# This file uses centimeters as units for non-parametric coordinates.

g default
v 827.223818 -1.119742 86.385065
v 876.150331 -1.119742 86.385065
v 827.223818 2.870748 86.385065
v 876.150331 2.870748 86.385065
v 835.610842 2.870748 -147.347990
v 871.205873 2.870748 -146.985228
v 835.610842 -1.119742 -147.347990
v 871.205873 -1.119742 -146.985228
v 827.223818 2.870748 -145.385878
v 827.223818 -1.119742 -145.385878
v 876.150331 -1.119742 -145.385878
v 876.150331 2.870748 -145.385878
v 835.610842 2.870748 -157.859083
v 871.205873 2.870748 -157.496321
v 871.205873 -1.119742 -157.496321
v 835.610842 -1.119742 -157.859083
v 835.610842 2.870748 -186.001807
v 871.205873 2.870748 -185.639044
v 871.205873 -1.119742 -185.639044
v 835.610842 -1.119742 -186.001807
v 835.610842 2.870748 -195.923743
v 861.291506 2.870748 -195.560980
v 861.291506 -1.119742 -195.560980
v 835.610842 -1.119742 -195.923743
v 818.847780 2.870748 -157.859083
v 818.847780 -1.119742 -157.859083
v 818.847780 2.870748 -186.001807
v 818.847780 -1.119742 -186.001807
v 828.347963 2.870748 -195.923743
v 828.347963 -1.119742 -195.923743
v 827.223818 2.870748 5.762335
v 827.223818 -1.119742 5.762335
v 876.150331 -1.119742 5.762335
v 876.150331 2.870748 5.762335
v 827.223818 2.870748 -34.083479
v 827.223818 -1.119742 -34.083479
v 876.150331 -1.119742 -34.083479
v 876.150331 2.870748 -34.083479
v 646.567568 -1.119742 -34.083479
v 646.567568 -1.119742 5.762335
v 646.567568 2.870748 5.762335
v 646.567568 2.870748 -34.083479
v 699.802431 2.870748 -34.083479
v 699.802431 2.870748 5.762331
v 699.802431 -1.119742 5.762331
v 699.802431 -1.119742 -34.083479
v 657.717897 2.870748 -34.083479
v 657.717897 2.870748 5.762331
v 657.717897 -1.119742 5.762331
v 657.717897 -1.119742 -34.083479
v 699.802431 -1.119742 -83.598780
v 699.802431 2.870748 -83.598780
v 657.717897 -1.119742 -83.598780
v 657.717897 2.870748 -83.598780
vt 0.375000 0.000000
vt 0.625000 0.000000
vt 0.375000 0.250000
vt 0.625000 0.250000
vt 0.375000 0.500000
vt 0.625000 0.500000
vt 0.375000 0.750000
vt 0.625000 0.750000
vt 0.375000 1.000000
vt 0.625000 1.000000
vt 0.875000 0.000000
vt 0.875000 0.250000
vt 0.125000 0.000000
vt 0.125000 0.250000
vt 0.136049 0.250000
vt 0.375000 0.488951
vt 0.136049 0.000000
vt 0.375000 0.761049
vt 0.625000 0.761049
vt 0.863951 0.000000
vt 0.625000 0.488951
vt 0.863951 0.250000
vt 0.375000 0.500000
vt 0.625000 0.500000
vt 0.625000 0.750000
vt 0.375000 0.750000
vt 0.375000 0.500000
vt 0.625000 0.500000
vt 0.625000 0.750000
vt 0.375000 0.750000
vt 0.375000 0.500000
vt 0.625000 0.500000
vt 0.625000 0.750000
vt 0.375000 0.750000
vt 0.375000 0.750000
vt 0.375000 0.500000
vt 0.375000 0.500000
vt 0.375000 0.750000
vt 0.375000 0.500000
vt 0.375000 0.750000
vt 0.291880 0.250000
vt 0.375000 0.333120
vt 0.291880 0.000000
vt 0.375000 0.916880
vt 0.625000 0.916880
vt 0.708120 0.000000
vt 0.625000 0.333120
vt 0.708120 0.250000
vt 0.250799 0.250000
vt 0.375000 0.374201
vt 0.250799 0.000000
vt 0.375000 0.875799
vt 0.625000 0.875799
vt 0.749201 0.000000
vt 0.625000 0.374201
vt 0.749201 0.250000
vt 0.250799 0.000000
vt 0.291880 0.000000
vt 0.291880 0.250000
vt 0.250799 0.250000
vt 0.250799 0.250000
vt 0.291880 0.250000
vt 0.291880 0.000000
vt 0.250799 0.000000
vt 0.250799 0.250000
vt 0.291880 0.250000
vt 0.291880 0.000000
vt 0.250799 0.000000
vt 0.250799 0.250000
vt 0.250799 0.000000
vt 0.250799 0.000000
vt 0.250799 0.250000
vn 0.000000 0.000000 1.000000
vn 0.000000 0.000000 1.000000
vn 0.000000 0.000000 1.000000
vn 0.000000 0.000000 1.000000
vn 0.000000 1.000000 0.000000
vn 0.000000 1.000000 0.000000
vn 0.000000 1.000000 0.000000
vn 0.000000 1.000000 0.000000
vn 0.014125 0.000000 -0.999900
vn 0.014125 0.000000 -0.999900
vn 0.014125 0.000000 -0.999900
vn 0.014125 0.000000 -0.999900
vn 0.000000 -1.000000 0.000000
vn 0.000000 -1.000000 0.000000
vn 0.000000 -1.000000 0.000000
vn 0.000000 -1.000000 0.000000
vn 1.000000 0.000000 0.000000
vn 1.000000 0.000000 0.000000
vn 1.000000 0.000000 0.000000
vn 1.000000 0.000000 0.000000
vn -1.000000 0.000000 0.000000
vn -1.000000 0.000000 0.000000
vn -1.000000 0.000000 0.000000
vn -1.000000 0.000000 0.000000
vn -0.227796 0.000000 -0.973709
vn -0.997270 0.000000 -0.073846
vn -0.997270 0.000000 -0.073846
vn -0.227796 0.000000 -0.973709
vn 0.000000 -1.000000 0.000000
vn 0.000000 -1.000000 0.000000
vn 0.000000 -1.000000 0.000000
vn 0.000000 -1.000000 0.000000
vn 0.999042 0.000000 -0.043752
vn 0.999042 0.000000 -0.043752
vn 0.307764 0.000000 -0.951463
vn 0.307764 0.000000 -0.951463
vn 0.000000 1.000000 -0.000000
vn 0.000000 1.000000 -0.000000
vn 0.000000 1.000000 0.000000
vn 0.000000 1.000000 0.000000
vn 0.000000 1.000000 0.000000
vn 0.000000 1.000000 0.000000
vn 0.000000 1.000000 0.000000
vn 0.000000 1.000000 0.000000
vn 1.000000 0.000000 0.000000
vn 1.000000 0.000000 0.000000
vn 1.000000 0.000000 0.000000
vn 1.000000 0.000000 0.000000
vn 0.000000 -1.000000 0.000000
vn 0.000000 -1.000000 0.000000
vn 0.000000 -1.000000 0.000000
vn 0.000000 -1.000000 0.000000
vn -1.000000 0.000000 0.000000
vn -1.000000 0.000000 0.000000
vn -1.000000 0.000000 0.000000
vn -1.000000 0.000000 0.000000
vn 0.000000 1.000000 0.000000
vn 0.000000 1.000000 0.000000
vn 0.000000 1.000000 0.000000
vn 0.000000 1.000000 0.000000
vn 1.000000 0.000000 0.000000
vn 1.000000 0.000000 0.000000
vn 1.000000 0.000000 0.000000
vn 1.000000 0.000000 0.000000
vn 0.000000 -1.000000 0.000000
vn 0.000000 -1.000000 0.000000
vn 0.000000 -1.000000 0.000000
vn 0.000000 -1.000000 0.000000
vn -1.000000 0.000000 0.000000
vn -1.000000 0.000000 0.000000
vn -1.000000 0.000000 0.000000
vn -1.000000 0.000000 0.000000
vn 0.000000 1.000000 0.000000
vn 0.000000 1.000000 0.000000
vn 0.000000 1.000000 0.000000
vn 0.000000 1.000000 0.000000
vn 0.707376 0.000000 -0.706837
vn 0.707376 0.000000 -0.706837
vn 0.707376 0.000000 -0.706837
vn 0.707376 0.000000 -0.706837
vn 0.000000 -1.000000 0.000000
vn 0.000000 -1.000000 0.000000
vn 0.000000 -1.000000 0.000000
vn 0.000000 -1.000000 0.000000
vn -0.722291 0.000000 -0.691589
vn -0.722291 0.000000 -0.691589
vn -0.722291 0.000000 -0.691589
vn -0.722291 0.000000 -0.691589
vn 0.000000 0.000000 1.000000
vn 0.000000 0.000000 1.000000
vn 0.000000 0.000000 1.000000
vn 0.000000 0.000000 1.000000
vn 0.000000 1.000000 0.000000
vn 0.000000 1.000000 0.000000
vn 0.000000 1.000000 0.000000
vn 0.000000 1.000000 0.000000
vn 0.000000 -1.000000 0.000000
vn 0.000000 -1.000000 0.000000
vn 0.000000 -1.000000 0.000000
vn 0.000000 -1.000000 0.000000
vn 0.000000 1.000000 0.000000
vn 0.000000 1.000000 0.000000
vn 0.000000 1.000000 0.000000
vn 0.000000 1.000000 0.000000
vn 0.000000 0.000000 -1.000000
vn 0.000000 0.000000 -1.000000
vn 0.000000 0.000000 -1.000000
vn 0.000000 0.000000 -1.000000
vn 0.000000 -1.000000 0.000000
vn 0.000000 -1.000000 0.000000
vn 0.000000 -1.000000 0.000000
vn 0.000000 -1.000000 0.000000
vn -1.000000 0.000000 0.000000
vn -1.000000 0.000000 0.000000
vn -1.000000 0.000000 0.000000
vn -1.000000 0.000000 0.000000
vn 0.000000 -1.000000 0.000000
vn 0.000000 -1.000000 0.000000
vn 1.000000 0.000000 0.000000
vn 1.000000 0.000000 0.000000
vn 0.000000 1.000000 -0.000000
vn 0.000000 1.000000 -0.000000
vn -1.000000 0.000000 0.000000
vn -1.000000 0.000000 0.000000
vn 0.000000 -1.000000 0.000000
vn 0.000000 -1.000000 0.000000
vn 0.000000 -1.000000 0.000000
vn 0.000000 -1.000000 0.000000
vn -0.000000 0.000000 1.000000
vn -0.000000 0.000000 1.000000
vn -0.000000 0.000000 1.000000
vn -0.000000 0.000000 1.000000
vn 0.000000 1.000000 0.000000
vn 0.000000 1.000000 0.000000
vn 0.000000 1.000000 0.000000
vn 0.000000 1.000000 0.000000
vn 0.000000 0.000000 -1.000000
vn 0.000000 0.000000 -1.000000
vn 0.000000 0.000000 -1.000000
vn 0.000000 0.000000 -1.000000
vn 0.000000 1.000000 0.000000
vn 0.000000 1.000000 0.000000
vn 0.000000 0.000000 1.000000
vn 0.000000 0.000000 1.000000
vn -0.000000 -1.000000 0.000000
vn -0.000000 -1.000000 0.000000
vn 0.000000 0.000000 -1.000000
vn 0.000000 0.000000 -1.000000
vn 0.000000 0.000000 -1.000000
vn 0.000000 0.000000 -1.000000
vn 0.000000 1.000000 0.000000
vn 0.000000 1.000000 0.000000
vn 0.000000 0.000000 1.000000
vn 0.000000 0.000000 1.000000
vn -0.000000 -1.000000 0.000000
vn -0.000000 -1.000000 0.000000
vn 0.000000 0.000000 -1.000000
vn 0.000000 0.000000 -1.000000
vn 0.000000 0.000000 -1.000000
vn 0.000000 0.000000 -1.000000
vn 1.000000 0.000000 0.000000
vn 1.000000 0.000000 0.000000
vn 1.000000 0.000000 0.000000
vn 1.000000 0.000000 0.000000
vn 0.000000 -1.000000 0.000000
vn 0.000000 -1.000000 0.000000
vn 0.000000 -1.000000 0.000000
vn 0.000000 -1.000000 0.000000
vn -1.000000 0.000000 0.000000
vn -1.000000 0.000000 0.000000
vn -1.000000 0.000000 0.000000
vn -1.000000 0.000000 0.000000
vn 0.000000 1.000000 0.000000
vn 0.000000 1.000000 0.000000
vn 0.000000 1.000000 0.000000
vn 0.000000 1.000000 0.000000
s off
g perustukset1
f 1/1/1 2/2/2 4/4/3 3/3/4
s 1
f 3/3/5 4/4/6 34/47/7 31/42/8
s off
f 21/31/9 22/32/10 23/33/11 24/34/12
s 2
f 32/44/13 33/45/14 2/10/15 1/9/16
s 3
f 2/2/17 33/46/18 34/48/19 4/4/20
s off
f 32/43/21 1/1/22 3/3/23 31/41/24
s 4
f 7/13/25 10/17/26 9/15/27 5/14/28
s 2
f 7/7/29 8/8/30 11/19/31 10/18/32
s 3
f 12/22/33 11/20/34 8/11/35 6/12/36
s 1
f 9/16/37 12/21/38 6/6/39 5/5/40
s off
f 5/5/41 6/6/42 14/24/43 13/23/44
f 6/6/45 8/8/46 15/25/47 14/24/48
f 8/8/49 7/7/50 16/26/51 15/25/52
f 7/7/53 5/5/54 13/23/55 16/26/56
f 13/23/57 14/24/58 18/28/59 17/27/60
f 14/24/61 15/25/62 19/29/63 18/28/64
f 15/25/65 16/26/66 20/30/67 19/29/68
f 26/35/69 25/36/70 27/37/71 28/38/72
f 17/27/73 18/28/74 22/32/75 21/31/76
f 18/28/77 19/29/78 23/33/79 22/32/80
f 19/29/81 20/30/82 24/34/83 23/33/84
f 28/38/85 27/37/86 29/39/87 30/40/88
f 16/26/89 13/23/90 25/36/91 26/35/92
f 13/23/93 17/27/94 27/37/95 25/36/96
f 20/30/97 16/26/98 26/35/99 28/38/100
f 17/27/101 21/31/102 29/39/103 27/37/104
f 21/31/105 24/34/106 30/40/107 29/39/108
f 24/34/109 20/30/110 28/38/111 30/40/112
f 39/57/113 40/58/114 41/59/115 42/60/116
s 2
f 36/52/117 37/53/118 33/45/14 32/44/13
s 3
f 34/48/19 33/46/18 37/54/119 38/56/120
s 1
f 31/42/8 34/47/7 38/55/121 35/50/122
s 4
f 10/17/26 36/51/123 35/49/124 9/15/27
s 2
f 10/18/32 11/19/31 37/53/118 36/52/117
s 3
f 38/56/120 37/54/119 11/20/34 12/22/33
s 1
f 35/50/122 38/55/121 12/21/38 9/16/37
s 8
f 36/51/125 32/43/126 45/63/127 46/64/128
s 9
f 32/43/129 31/41/130 44/62/131 45/63/132
s 10
f 31/41/133 35/49/134 43/61/135 44/62/136
s off
f 35/49/137 36/51/138 46/64/139 43/61/140
s 10
f 44/62/136 43/61/135 47/65/141 48/66/142
s 9
f 45/63/132 44/62/131 48/66/143 49/67/144
s 8
f 46/64/128 45/63/127 49/67/145 50/68/146
s off
f 52/69/147 51/70/148 53/71/149 54/72/150
s 10
f 48/66/142 47/65/141 42/60/151 41/59/152
s 9
f 49/67/144 48/66/143 41/59/153 40/58/154
s 8
f 50/68/146 49/67/145 40/58/155 39/57/156
s off
f 47/65/157 50/68/158 39/57/159 42/60/160
f 43/61/161 46/64/162 51/70/163 52/69/164
f 46/64/165 50/68/166 53/71/167 51/70/168
f 50/68/169 47/65/170 54/72/171 53/71/172
f 47/65/173 43/61/174 52/69/175 54/72/176
