# This file uses centimeters as units for non-parametric coordinates.

g default
v 2.180976 0.407336 -0.580784
v 1.755867 0.407336 -1.005909
v 1.175117 0.407336 -1.161533
v 0.594306 0.407336 -1.005909
v 0.169136 0.407336 -0.580784
v 0.013496 0.407336 -0.000004
v 0.169136 0.407336 0.580776
v 0.594306 0.407336 1.005932
v 1.175117 0.407336 1.161541
v 1.755867 0.407336 1.005932
v 2.180976 0.407336 0.580776
v 2.336677 0.407336 -0.000004
v 1.175117 3.757647 -0.000004
v 2.196479 0.239504 -0.589695
v 1.764717 0.239504 -1.021381
v 1.175117 0.239504 -1.179386
v 0.585456 0.239504 -1.021381
v 0.153755 0.239504 -0.589695
v -0.004265 0.239504 -0.000004
v 0.153755 0.239504 0.589703
v 0.585456 0.239504 1.021374
v 1.175117 0.239504 1.179378
v 1.764717 0.239504 1.021374
v 2.196479 0.239504 0.589703
v 2.354438 0.239504 -0.000004
v 1.591194 3.707713 -0.240223
v 1.516304 3.757647 -0.197010
v 1.415351 3.707713 -0.416065
v 1.372139 3.757647 -0.341175
v 1.175117 3.707713 -0.480442
v 1.175117 3.757647 -0.394001
v 0.934822 3.707713 -0.416065
v 0.978096 3.757647 -0.341175
v 0.758979 3.707713 -0.240223
v 0.833931 3.757647 -0.197010
v 0.694648 3.707713 -0.000004
v 0.781074 3.757647 -0.000004
v 0.758979 3.707713 0.240215
v 0.833931 3.757647 0.197002
v 0.934822 3.707713 0.416058
v 0.978096 3.757647 0.341198
v 1.175117 3.707713 0.480434
v 1.175117 3.757647 0.393993
v 1.415351 3.707713 0.416058
v 1.372139 3.757647 0.341198
v 1.591194 3.707713 0.240215
v 1.516304 3.757647 0.197002
v 1.655464 3.707713 -0.000004
v 1.569038 3.757647 -0.000004
v 0.381782 1.596888 0.458050
v 0.259101 1.596888 -0.000004
v 0.381782 1.596888 -0.458027
v 0.717048 1.596888 -0.793324
v 1.175117 1.596888 -0.916050
v 1.633125 1.596888 -0.793324
v 1.968391 1.596888 -0.458027
v 2.091133 1.596888 -0.000004
v 1.968391 1.596888 0.458050
v 1.633125 1.596888 0.793316
v 1.175117 1.596888 0.916042
v 0.717048 1.596888 0.793316
v 0.263740 0.936671 0.526150
v 0.122749 0.936671 -0.000004
v 0.263740 0.936671 -0.526157
v 0.648994 0.936671 -0.911305
v 1.175117 0.936671 -1.052296
v 1.701240 0.936671 -0.911305
v 2.086433 0.936671 -0.526157
v 2.227363 0.936671 -0.000004
v 2.086433 0.936671 0.526150
v 1.701240 0.936671 0.911312
v 1.175117 0.936671 1.052288
v 0.648994 0.936671 0.911312
v 0.652839 3.113566 0.301525
v 0.572090 3.113566 -0.000004
v 0.652839 3.113566 -0.301518
v 0.873603 3.113566 -0.522251
v 1.175117 3.113566 -0.603046
v 1.476631 3.113566 -0.522251
v 1.697334 3.113566 -0.301518
v 1.778144 3.113566 -0.000004
v 1.697334 3.113566 0.301525
v 1.476631 3.113566 0.522243
v 1.175117 3.113566 0.603069
v 0.873603 3.113566 0.522243
v 0.565010 2.622447 0.352199
v 0.470649 2.622447 -0.000004
v 0.565010 2.622447 -0.352207
v 0.822944 2.622447 -0.610020
v 1.175117 2.622447 -0.704411
v 1.527290 2.622447 -0.610020
v 1.785102 2.622447 -0.352207
v 1.879463 2.622447 -0.000004
v 1.785102 2.622447 0.352199
v 1.527290 2.622447 0.610027
v 1.175117 2.622447 0.704403
v 0.822944 2.622447 0.610027
v -0.455010 -0.009756 1.395061
v -0.194207 -0.009756 1.655865
v -0.455010 0.247073 1.395061
v -0.194207 0.247073 1.655865
v 2.805183 -0.009756 1.395061
v 2.544380 -0.009756 1.655865
v 2.805183 0.247073 1.395061
v 2.544380 0.247073 1.655865
v -0.455010 0.247073 -1.395039
v -0.194207 0.247073 -1.655842
v -0.455010 -0.009756 -1.395039
v -0.194207 -0.009756 -1.655842
v 2.544380 0.247073 -1.655842
v 2.805183 0.247073 -1.395039
v 2.805183 -0.009756 -1.395039
v 2.544380 -0.009756 -1.655842
v 0.708686 0.247073 0.987636
v 0.146980 0.247073 0.368603
v 1.543647 0.247073 1.028118
v 2.162727 0.247073 0.466350
v 2.203193 0.247073 -0.368610
v 1.641426 0.247073 -0.987644
v 0.806526 0.247073 -1.028126
v 0.187446 0.247073 -0.466358
v 0.901313 -0.009756 -0.331043
v 0.849189 -0.009756 -0.278904
v 1.448860 -0.009756 -0.331043
v 1.500984 -0.009756 -0.278904
v 1.500984 -0.009756 0.278896
v 1.448860 -0.009756 0.331036
v 0.901313 -0.009756 0.331036
v 0.849189 -0.009756 0.278896
vt 0.401323 0.144037
vt 0.313842 0.202365
vt 0.296479 0.182217
vt 0.387112 0.121529
vt 0.495640 0.099803
vt 0.484781 0.075467
vt 0.593521 0.069569
vt 0.586017 0.043960
vt 0.691934 0.051968
vt 0.687528 0.025594
vt 0.047881 0.832591
vt 0.786424 0.017207
vt 0.048641 0.736778
vt 0.022091 0.734985
vt 0.059455 0.639268
vt 0.033241 0.634687
vt 0.082647 0.541621
vt 0.057186 0.533928
vt 0.119653 0.446203
vt 0.095430 0.435245
vt 0.171017 0.355881
vt 0.148564 0.341653
vt 0.236257 0.273680
vt 0.216110 0.256335
vt 0.611184 0.589311
vt 0.617650 0.602197
vt 0.599657 0.614995
vt 0.589911 0.604525
vt 0.636210 0.580797
vt 0.638859 0.595168
vt 0.663434 0.579928
vt 0.661990 0.594774
vt 0.691078 0.587441
vt 0.685432 0.601798
vt 0.717315 0.603710
vt 0.707062 0.616937
vt 0.741134 0.628339
vt 0.618012 0.747193
vt 0.581211 0.737488
vt 0.594896 0.727755
vt 0.566755 0.708063
vt 0.581333 0.703334
vt 0.561221 0.678559
vt 0.575940 0.678092
vt 0.563835 0.650467
vt 0.577813 0.654043
vt 0.573735 0.625324
vt 0.586038 0.632628
vt 0.446396 0.215412
vt 0.368430 0.266295
vt 0.530590 0.177191
vt 0.618234 0.151474
vt 0.706823 0.137046
vt 0.794238 0.131909
vt 0.133418 0.743294
vt 0.142498 0.655116
vt 0.162827 0.567299
vt 0.195605 0.481957
vt 0.241268 0.401632
vt 0.299338 0.328956
vt 0.643692 0.663740
vt 0.801252 0.245147
vt 0.239123 0.752588
vt 0.404092 0.765136
vt 0.803842 0.426699
vt 0.725458 0.245131
vt 0.747146 0.417835
vt 0.648945 0.253891
vt 0.689912 0.415263
vt 0.573364 0.272883
vt 0.633132 0.421396
vt 0.500881 0.303111
vt 0.578557 0.437533
vt 0.433906 0.344750
vt 0.528307 0.463955
vt 0.374774 0.397085
vt 0.484544 0.500037
vt 0.325416 0.458602
vt 0.449094 0.544429
vt 0.287116 0.527222
vt 0.423244 0.595260
vt 0.260338 0.600585
vt 0.407540 0.650348
vt 0.244706 0.676371
vt 0.401620 0.707563
vt 0.790631 0.521951
vt 0.486073 0.762803
vt 0.745563 0.503886
vt 0.699533 0.493503
vt 0.653387 0.492330
vt 0.608831 0.501094
vt 0.567919 0.519699
vt 0.532697 0.547346
vt 0.504947 0.582674
vt 0.486028 0.623898
vt 0.476712 0.668988
vt 0.477038 0.715888
vt 0.702025 0.684938
vt 0.014428 0.025924
vt 0.013042 0.210121
vt 0.937343 0.684515
vt 0.237169 0.027600
vt 0.701690 0.966783
vt 0.937009 0.966359
vt 0.235783 0.211798
vt 0.958055 0.705957
vt 0.030451 0.227793
vt 0.218110 0.229205
vt 0.958465 0.945673
vt 0.680974 0.945339
vt 0.219760 0.009925
vt 0.032102 0.008513
vt 0.680565 0.705624
vt 0.144029 0.097084
vt 0.147509 0.100615
vt 0.147232 0.137438
vt 0.143699 0.140919
vt 0.106182 0.140637
vt 0.102702 0.137103
vt 0.102979 0.100280
vt 0.106512 0.096802
vt 0.779235 0.741628
vt 0.731896 0.794196
vt 0.850943 0.738013
vt 0.903526 0.785359
vt 0.907133 0.857101
vt 0.859795 0.909669
vt 0.788086 0.913284
vt 0.735503 0.865938
vt 0.412498 0.822051
vt 0.501237 0.808498
vt 0.605904 0.766091
vt 0.133999 0.830226
vt 0.242134 0.827808
vt 0.723357 0.641192
vt 0.788681 0.044025
vt 0.021171 0.832806
vt 0.944824 0.987153
vt 0.978241 0.952354
vt 0.978854 0.698156
vt 0.695009 0.986538
vt 0.660175 0.953140
vt 0.660789 0.698943
vt 0.944024 0.664760
vt 0.694210 0.664144
vn 0.492097 0.177372 -0.852279
vn 0.852283 0.177323 -0.492107
vn 0.861207 0.105391 -0.497207
vn 0.497160 0.105537 -0.861217
vn 0.000001 0.177423 -0.984135
vn 0.000001 0.105709 -0.994397
vn -0.492069 0.177423 -0.852285
vn -0.497115 0.105706 -0.861222
vn -0.852274 0.177336 -0.492119
vn -0.861176 0.105378 -0.497265
vn -0.984164 0.177262 0.000001
vn -0.994455 0.105161 -0.000002
vn -0.852284 0.177334 0.492102
vn -0.861173 0.105391 0.497266
vn -0.492067 0.177386 0.852294
vn -0.497136 0.105523 0.861232
vn -0.000002 0.177413 0.984137
vn -0.000002 0.105561 0.994413
vn 0.492085 0.177401 0.852280
vn 0.497151 0.105579 0.861216
vn 0.852289 0.177337 0.492092
vn 0.861190 0.105464 0.497221
vn 0.984154 0.177318 -0.000000
vn 0.994431 0.105386 0.000003
vn 0.832365 0.276287 -0.480452
vn 0.195372 0.974226 -0.112759
vn 0.225458 0.974253 -0.000013
vn 0.961062 0.276334 -0.000002
vn 0.480565 0.276278 -0.832302
vn 0.112769 0.974244 -0.195274
vn 0.000001 0.276305 -0.961070
vn -0.000004 0.974247 -0.225484
vn -0.480536 0.276285 -0.832317
vn -0.112709 0.974254 -0.195257
vn -0.832350 0.276237 -0.480506
vn -0.195195 0.974267 -0.112708
vn -0.961101 0.276196 -0.000003
vn -0.225511 0.974241 -0.000009
vn -0.832358 0.276238 0.480492
vn -0.195211 0.974266 0.112685
vn -0.480534 0.276273 0.832322
vn -0.112720 0.974250 0.195273
vn 0.000001 0.276307 0.961069
vn 0.000005 0.974242 0.225504
vn 0.480564 0.276283 0.832302
vn 0.112729 0.974248 0.195276
vn 0.832381 0.276253 0.480445
vn 0.195255 0.974256 0.112698
vn 0.489691 0.202137 -0.848141
vn 0.848148 0.202157 -0.489671
vn 0.000000 0.202110 -0.979363
vn -0.489652 0.202088 -0.848175
vn -0.848131 0.202128 -0.489712
vn -0.979348 0.202182 0.000001
vn -0.848131 0.202157 0.489700
vn -0.489635 0.202115 0.848178
vn -0.000000 0.202128 0.979359
vn 0.489679 0.202131 0.848150
vn 0.848155 0.202144 0.489664
vn 0.979353 0.202156 -0.000001
vn 0.000000 1.000000 0.000000
vn -0.979360 0.202126 0.000001
vn -0.848137 0.202135 0.489700
vn -0.848143 0.202128 0.489692
vn -0.979365 0.202101 -0.000000
vn -0.848146 0.202097 -0.489699
vn -0.848139 0.202131 -0.489697
vn -0.489683 0.202086 -0.848158
vn -0.489661 0.202135 -0.848159
vn 0.000000 0.202114 -0.979362
vn 0.000000 0.202126 -0.979360
vn 0.489707 0.202130 -0.848134
vn 0.489718 0.202109 -0.848132
vn 0.848155 0.202152 -0.489661
vn 0.848166 0.202094 -0.489666
vn 0.979354 0.202151 0.000001
vn 0.979369 0.202079 0.000001
vn 0.848151 0.202148 0.489670
vn 0.848168 0.202099 0.489661
vn 0.489676 0.202126 0.848152
vn 0.489683 0.202123 0.848149
vn 0.000000 0.202109 0.979363
vn 0.000000 0.202113 0.979362
vn -0.489647 0.202117 0.848171
vn -0.489626 0.202125 0.848182
vn -0.979352 0.202161 -0.000001
vn -0.848142 0.202136 0.489690
vn -0.848139 0.202143 -0.489692
vn -0.489658 0.202106 -0.848168
vn 0.000000 0.202102 -0.979365
vn 0.489717 0.202101 -0.848135
vn 0.848181 0.202093 -0.489639
vn 0.979369 0.202080 -0.000000
vn 0.848187 0.202078 0.489635
vn 0.489710 0.202103 0.848138
vn 0.000000 0.202101 0.979365
vn -0.489650 0.202075 0.848180
vn -0.086627 0.000000 0.996241
vn -0.086627 0.000000 0.996241
vn 0.086627 0.000000 0.996241
vn 0.086627 0.000000 0.996241
vn -0.086627 0.000000 -0.996241
vn -0.086627 0.000000 -0.996241
vn 0.086627 0.000000 -0.996241
vn 0.086627 0.000000 -0.996241
vn 0.996366 0.000000 0.085172
vn 0.996366 0.000000 0.085172
vn 0.996366 0.000000 -0.085172
vn 0.996366 0.000000 -0.085172
vn -0.996366 0.000000 -0.085172
vn -0.996366 0.000000 -0.085172
vn -0.996366 0.000000 0.085172
vn -0.996366 0.000000 0.085172
vn 0.000000 -1.000000 0.000002
vn 0.000000 -1.000000 0.000002
vn 0.000000 -1.000000 0.000002
vn 0.000000 -1.000000 0.000002
vn 0.000000 -1.000000 0.000002
vn 0.000000 -1.000000 0.000002
vn 0.000000 -1.000000 0.000002
vn 0.000000 -1.000000 0.000002
vn 0.000000 1.000000 -0.000008
vn 0.000000 1.000000 -0.000004
vn 0.000000 1.000000 0.000002
vn 0.000000 1.000000 -0.000003
vn 0.000000 1.000000 0.000002
vn 0.000000 1.000000 0.000005
vn 0.000000 1.000000 0.000000
vn 0.000000 1.000000 0.000000
vn 0.000000 1.000000 0.000000
vn 0.000000 1.000000 0.000000
vn 0.000000 1.000000 -0.000003
vn 0.000000 1.000000 -0.000005
vn 0.000000 1.000000 -0.000002
vn 0.000000 1.000000 -0.000005
vn 0.000000 1.000000 0.000000
vn 0.000000 1.000000 0.000000
vn 0.000000 -1.000000 0.000000
vn 0.000000 -1.000000 0.000000
vn 0.000000 -1.000000 0.000000
vn 0.000000 -1.000000 0.000000
vn 0.000000 -1.000000 0.000004
vn 0.000000 -1.000000 0.000004
vn 0.000000 -1.000000 0.000004
vn 0.000000 -1.000000 0.000004
vn 0.000000 -1.000000 -0.000020
vn 0.000000 -1.000000 -0.000020
vn 0.000000 -1.000000 -0.000020
vn 0.000000 -1.000000 -0.000020
vn 0.000000 -1.000000 0.000000
vn 0.000000 -1.000000 0.000000
vn 0.000000 -1.000000 0.000000
vn 0.000000 -1.000000 0.000000
vn 0.000000 -1.000000 0.000000
vn 0.000000 -1.000000 0.000000
vn 0.000000 -1.000000 0.000000
vn 0.000000 -1.000000 0.000000
vn 0.000000 -1.000000 -0.000004
vn 0.000000 -1.000000 -0.000004
vn 0.000000 -1.000000 -0.000004
vn 0.000000 -1.000000 -0.000004
vn 0.000000 -1.000000 0.000020
vn 0.000000 -1.000000 0.000020
vn 0.000000 -1.000000 0.000020
vn 0.000000 -1.000000 0.000020
vn 0.000000 -1.000000 0.000000
vn 0.000000 -1.000000 0.000000
vn 0.000000 -1.000000 0.000000
vn 0.000000 -1.000000 0.000000
s 1
g torppo1
f 2/1/1 1/2/2 14/3/3 15/4/4
f 3/5/5 2/1/1 15/4/4 16/6/6
f 4/7/7 3/5/5 16/6/6 17/8/8
f 5/9/9 4/7/7 17/8/8 18/10/10
f 6/136/11 5/9/9 18/10/10 19/12/12
f 7/13/13 6/11/11 19/137/12 20/14/14
f 8/15/15 7/13/13 20/14/14 21/16/16
f 9/17/17 8/15/15 21/16/16 22/18/18
f 10/19/19 9/17/17 22/18/18 23/20/20
f 11/21/21 10/19/19 23/20/20 24/22/22
f 12/23/23 11/21/21 24/22/22 25/24/24
f 1/2/2 12/23/23 25/24/24 14/3/3
f 26/25/25 27/26/26 49/27/27 48/28/28
f 27/26/26 26/25/25 28/29/29 29/30/30
f 29/30/30 28/29/29 30/31/31 31/32/32
f 31/32/32 30/31/31 32/33/33 33/34/34
f 33/34/34 32/33/33 34/35/35 35/36/36
f 35/36/36 34/35/35 36/37/37 37/135/38
f 37/38/38 36/132/37 38/39/39 39/40/40
f 39/40/40 38/39/39 40/41/41 41/42/42
f 41/42/42 40/41/41 42/43/43 43/44/44
f 43/44/44 42/43/43 44/45/45 45/46/46
f 45/46/46 44/45/45 46/47/47 47/48/48
f 47/48/48 46/47/47 48/28/28 49/27/27
f 1/2/2 2/1/1 67/49/49 68/50/50
f 2/1/1 3/5/5 66/51/51 67/49/49
f 3/5/5 4/7/7 65/52/52 66/51/51
f 4/7/7 5/9/9 64/53/53 65/52/52
f 5/9/9 6/136/11 63/54/54 64/53/53
f 6/11/11 7/13/13 62/55/55 63/133/54
f 7/13/13 8/15/15 73/56/56 62/55/55
f 8/15/15 9/17/17 72/57/57 73/56/56
f 9/17/17 10/19/19 71/58/58 72/57/57
f 10/19/19 11/21/21 70/59/59 71/58/58
f 11/21/21 12/23/23 69/60/60 70/59/59
f 12/23/23 1/2/2 68/50/50 69/60/60
f 27/26/26 29/30/30 13/61/61
f 29/30/30 31/32/32 13/61/61
f 31/32/32 33/34/34 13/61/61
f 33/34/34 35/36/36 13/61/61
f 35/36/36 37/135/38 13/61/61
f 37/38/38 39/40/40 13/61/61
f 39/40/40 41/42/42 13/61/61
f 41/42/42 43/44/44 13/61/61
f 43/44/44 45/46/46 13/61/61
f 45/46/46 47/48/48 13/61/61
f 47/48/48 49/27/27 13/61/61
f 49/27/27 27/26/26 13/61/61
f 51/134/62 50/63/63 86/64/64 87/130/65
f 52/66/66 51/62/62 87/65/65 88/67/67
f 53/68/68 52/66/66 88/67/67 89/69/69
f 54/70/70 53/68/68 89/69/69 90/71/71
f 55/72/72 54/70/70 90/71/71 91/73/73
f 56/74/74 55/72/72 91/73/73 92/75/75
f 57/76/76 56/74/74 92/75/75 93/77/77
f 58/78/78 57/76/76 93/77/77 94/79/79
f 59/80/80 58/78/78 94/79/79 95/81/81
f 60/82/82 59/80/80 95/81/81 96/83/83
f 61/84/84 60/82/82 96/83/83 97/85/85
f 50/63/63 61/84/84 97/85/85 86/64/64
f 63/133/54 62/55/55 50/63/63 51/134/62
f 64/53/53 63/54/54 51/62/62 52/66/66
f 65/52/52 64/53/53 52/66/66 53/68/68
f 66/51/51 65/52/52 53/68/68 54/70/70
f 67/49/49 66/51/51 54/70/70 55/72/72
f 68/50/50 67/49/49 55/72/72 56/74/74
f 69/60/60 68/50/50 56/74/74 57/76/76
f 70/59/59 69/60/60 57/76/76 58/78/78
f 71/58/58 70/59/59 58/78/78 59/80/80
f 72/57/57 71/58/58 59/80/80 60/82/82
f 73/56/56 72/57/57 60/82/82 61/84/84
f 62/55/55 73/56/56 61/84/84 50/63/63
f 75/131/86 74/87/87 38/39/39 36/132/37
f 76/88/88 75/86/86 36/37/37 34/35/35
f 77/89/89 76/88/88 34/35/35 32/33/33
f 78/90/90 77/89/89 32/33/33 30/31/31
f 79/91/91 78/90/90 30/31/31 28/29/29
f 80/92/92 79/91/91 28/29/29 26/25/25
f 81/93/93 80/92/92 26/25/25 48/28/28
f 82/94/94 81/93/93 48/28/28 46/47/47
f 83/95/95 82/94/94 46/47/47 44/45/45
f 84/96/96 83/95/95 44/45/45 42/43/43
f 85/97/97 84/96/96 42/43/43 40/41/41
f 74/87/87 85/97/97 40/41/41 38/39/39
f 87/130/65 86/64/64 74/87/87 75/131/86
f 88/67/67 87/65/65 75/86/86 76/88/88
f 89/69/69 88/67/67 76/88/88 77/89/89
f 90/71/71 89/69/69 77/89/89 78/90/90
f 91/73/73 90/71/71 78/90/90 79/91/91
f 92/75/75 91/73/73 79/91/91 80/92/92
f 93/77/77 92/75/75 80/92/92 81/93/93
f 94/79/79 93/77/77 81/93/93 82/94/94
f 95/81/81 94/79/79 82/94/94 83/95/95
f 96/83/83 95/81/81 83/95/95 84/96/96
f 97/85/85 96/83/83 84/96/96 85/97/97
f 86/64/64 97/85/85 85/97/97 74/87/87
s 3
f 101/98/98 99/145/99 103/144/100 105/101/101
f 109/141/102 107/103/103 110/104/104 113/138/105
f 104/106/106 102/140/107 112/139/108 111/109/109
f 106/110/110 108/142/111 98/143/112 100/113/113
s off
f 123/114/114 122/115/115 124/116/116 125/117/117 126/118/118 127/119/119 128/120/120 129/121/121
s 3
f 98/143/112 99/145/99 101/98/98 100/113/113
f 103/144/100 102/140/107 104/106/106 105/101/101
f 106/110/110 107/103/103 109/141/102 108/142/111
f 110/104/104 111/109/109 112/139/108 113/138/105
s 5
f 100/113/122 101/98/123 114/122/124 115/123/125
f 101/98/123 105/101/126 116/124/127 114/122/124
f 105/101/126 104/106/128 117/125/129 116/124/127
f 104/106/128 111/109/130 118/126/131 117/125/129
f 111/109/130 110/104/132 119/127/133 118/126/131
f 110/104/132 107/103/134 120/128/135 119/127/133
f 107/103/134 106/110/136 121/129/137 120/128/135
f 106/110/136 100/113/122 115/123/125 121/129/137
s off
f 108/111/138 109/102/139 122/115/140 123/114/141
f 109/102/142 113/105/143 124/116/144 122/115/145
f 113/105/146 112/108/147 125/117/148 124/116/149
f 112/108/150 102/107/151 126/118/152 125/117/153
f 102/107/154 103/100/155 127/119/156 126/118/157
f 103/100/158 99/99/159 128/120/160 127/119/161
f 99/99/162 98/112/163 129/121/164 128/120/165
f 98/112/166 108/111/167 123/114/168 129/121/169
