# Created with FME Version: FME(R) 2016.1.0.1 20160516 - Build 16494 - WIN64
mtllib materials.mtl
# COORDINATE_SYSTEM:  
# Number of Geometry Coordinates  : 4
# Number of Texture  Coordinates  : 4
# Number of Normal   Coordinates  : 1
v 17755.907000 6812.678000 27.860000
v 17753.007000 6812.956000 27.860000
v 17753.007000 6812.956000 29.850000
v 17755.907000 6812.678000 29.896000
vt 0.000000 0.000000
vt 1.000000 0.000000
vt 1.000000 0.977407
vt 0.000000 1.000000
vn 0.095425 0.995437 0.000000
usemtl e0000008_0000278
# Number of Elements in set       : 2
f 1/1/1 2/2/1 3/3/1 
f 4/4/1 1/1/1 3/3/1 
# Total Number of Elements in file: 2
# EOF
