# Created with FME Version: FME(R) 2016.1.0.1 20160516 - Build 16494 - WIN64
mtllib materials.mtl
# COORDINATE_SYSTEM:  
# Number of Geometry Coordinates  : 4
# Number of Texture  Coordinates  : 4
# Number of Normal   Coordinates  : 1
v 17751.244000 6825.614000 7.999000
v 17739.612000 6826.870000 7.999000
v 17739.612000 6826.870000 26.592000
v 17751.244000 6825.614000 26.615000
vt 0.000000 0.000000
vt 1.000000 0.000000
vt 1.000000 0.998765
vt 0.000000 1.000000
vn 0.107354 0.994221 0.000000
usemtl e0000008_0000318
# Number of Elements in set       : 2
f 1/1/1 2/2/1 3/3/1 
f 4/4/1 1/1/1 3/3/1 
# Total Number of Elements in file: 2
# EOF
