# Created with FME Version: FME(R) 2016.1.0.1 20160516 - Build 16494 - WIN64
mtllib materials.mtl
# COORDINATE_SYSTEM:  
# Number of Geometry Coordinates  : 6
# Number of Texture  Coordinates  : 6
# Number of Normal   Coordinates  : 1
v 17728.503000 6829.384000 25.452000
v 17720.910000 6828.080000 28.137000
v 17727.374000 6827.368000 25.777000
v 17723.186000 6848.260000 28.150000
v 17728.271000 6827.270000 25.449000
v 17730.491000 6847.438000 25.481000
vt 0.678324 0.729918
vt 0.592913 0.712055
vt 0.665624 0.702301
vt 0.618515 0.988493
vt 0.675714 0.700959
vt 0.700686 0.977233
vn 0.338981 -0.038837 0.939991
usemtl e0000008_0000345
# Number of Elements in set       : 4
f 1/1/1 2/2/1 3/3/1 
f 1/1/1 4/4/1 2/2/1 
f 5/5/1 1/1/1 3/3/1 
f 6/6/1 4/4/1 1/1/1 
# Total Number of Elements in file: 4
# EOF
