# Created with FME Version: FME(R) 2016.1.0.1 20160516 - Build 16494 - WIN64
mtllib materials.mtl
# COORDINATE_SYSTEM:  
# Number of Geometry Coordinates  : 4
# Number of Texture  Coordinates  : 4
# Number of Normal   Coordinates  : 1
v 17739.751000 6810.232000 26.629000
v 17739.189000 6805.100000 22.852000
v 17739.189000 6805.100000 26.640000
v 17739.751000 6810.232000 22.852000
vt 0.000000 0.997096
vt 1.000000 0.000000
vt 1.000000 1.000000
vt 0.000000 0.000000
vn -0.994057 0.108858 0.000000
usemtl e0000008_0000314
# Number of Elements in set       : 2
f 1/1/1 2/2/1 3/3/1 
f 1/1/1 4/4/1 2/2/1 
# Total Number of Elements in file: 2
# EOF
