# Created with FME Version: FME(R) 2016.1.0.1 20160516 - Build 16494 - WIN64
mtllib materials.mtl
# COORDINATE_SYSTEM:  
# Number of Geometry Coordinates  : 4
# Number of Texture  Coordinates  : 4
# Number of Normal   Coordinates  : 1
v 17679.233000 6801.735000 34.605000
v 17679.126000 6800.766000 7.999000
v 17679.126000 6800.766000 34.611000
v 17679.233000 6801.735000 7.999000
vt 0.000000 0.999775
vt 1.000000 0.000000
vt 1.000000 1.000000
vt 0.000000 0.000000
vn -0.993959 0.109756 0.000000
usemtl e0000008_0000267
# Number of Elements in set       : 2
f 1/1/1 2/2/1 3/3/1 
f 1/1/1 4/4/1 2/2/1 
# Total Number of Elements in file: 2
# EOF
