# Created with FME Version: FME(R) 2016.1.0.1 20160516 - Build 16494 - WIN64
mtllib materials.mtl
# COORDINATE_SYSTEM:  
# Number of Geometry Coordinates  : 7
# Number of Texture  Coordinates  : 7
# Number of Normal   Coordinates  : 1
v 17731.398000 6794.994000 25.663000
v 17734.085000 6819.465000 25.652000
v 17723.645000 6793.602000 28.155000
v 17727.374000 6827.368000 28.132000
v 17728.824000 6793.030000 26.437000
v 17728.271000 6827.270000 27.835000
v 17734.864000 6826.544000 25.648000
vt 0.710889 0.258822
vt 0.741114 0.594041
vt 0.623678 0.239753
vt 0.665624 0.702301
vt 0.681935 0.231918
vt 0.675714 0.700959
vt 0.749876 0.691014
vn 0.311316 -0.033748 0.949707
usemtl e0000008_0000344
# Number of Elements in set       : 5
f 1/1/1 2/2/1 3/3/1 
f 3/3/1 2/2/1 4/4/1 
f 5/5/1 1/1/1 3/3/1 
f 2/2/1 6/6/1 4/4/1 
f 7/7/1 6/6/1 2/2/1 
# Total Number of Elements in file: 5
# EOF
