# Created with FME Version: FME(R) 2016.1.0.1 20160516 - Build 16494 - WIN64
mtllib materials.mtl
# COORDINATE_SYSTEM:  
# Number of Geometry Coordinates  : 4
# Number of Texture  Coordinates  : 4
# Number of Normal   Coordinates  : 1
v 17668.291000 6788.171000 7.999000
v 17715.250000 6782.665000 7.999000
v 17715.250000 6782.665000 25.611000
v 17668.291000 6788.171000 25.720000
vt 0.000000 0.000000
vt 1.000000 0.000000
vt 1.000000 0.993849
vt 0.000000 1.000000
vn -0.116453 -0.993196 -0.000000
usemtl e0000008_0000320
# Number of Elements in set       : 2
f 1/1/1 2/2/1 3/3/1 
f 4/4/1 1/1/1 3/3/1 
# Total Number of Elements in file: 2
# EOF
