# Created with FME Version: FME(R) 2016.1.0.1 20160516 - Build 16494 - WIN64
mtllib materials.mtl
# COORDINATE_SYSTEM:  
# Number of Geometry Coordinates  : 4
# Number of Texture  Coordinates  : 4
# Number of Normal   Coordinates  : 1
v 17679.126000 6800.766000 34.611000
v 17679.036000 6799.940000 25.660000
v 17679.036000 6799.940000 34.617000
v 17679.126000 6800.766000 25.660000
vt 0.000000 0.999330
vt 1.000000 0.000000
vt 1.000000 1.000000
vt 0.000000 0.000000
vn -0.994116 0.108318 0.000000
usemtl e0000008_0000272
# Number of Elements in set       : 2
f 1/1/1 2/2/1 3/3/1 
f 1/1/1 4/4/1 2/2/1 
# Total Number of Elements in file: 2
# EOF
