# Created with FME Version: FME(R) 2016.1.0.1 20160516 - Build 16494 - WIN64
mtllib materials.mtl
# COORDINATE_SYSTEM:  
# Number of Geometry Coordinates  : 5
# Number of Texture  Coordinates  : 5
# Number of Normal   Coordinates  : 1
v 17715.789000 6787.895000 27.346000
v 17668.291000 6788.171000 25.720000
v 17715.250000 6782.665000 25.611000
v 17715.968000 6789.745000 27.959000
v 17669.087000 6794.884000 27.951000
vt 0.535309 0.161575
vt 0.001024 0.165356
vt 0.529246 0.089932
vt 0.537323 0.186918
vt 0.009978 0.257315
vn -0.034303 -0.311458 0.949641
usemtl e0000008_0000343
# Number of Elements in set       : 3
f 1/1/1 2/2/1 3/3/1 
f 4/4/1 5/5/1 1/1/1 
f 1/1/1 5/5/1 2/2/1 
# Total Number of Elements in file: 3
# EOF
