# Created with FME Version: FME(R) 2016.1.0.1 20160516 - Build 16494 - WIN64
mtllib materials.mtl
# COORDINATE_SYSTEM:  
# Number of Geometry Coordinates  : 4
# Number of Texture  Coordinates  : 4
# Number of Normal   Coordinates  : 1
v 17730.143000 6781.210000 29.927000
v 17730.701000 6786.281000 25.671000
v 17730.701000 6786.281000 31.638000
v 17730.143000 6781.210000 25.671000
vt 0.000000 0.713256
vt 1.000000 0.000000
vt 1.000000 1.000000
vt 0.000000 0.000000
vn 0.994000 -0.109377 0.000000
usemtl e0000008_0000266
# Number of Elements in set       : 2
f 1/1/1 2/2/1 3/3/1 
f 1/1/1 4/4/1 2/2/1 
# Total Number of Elements in file: 2
# EOF
