# Created with FME Version: FME(R) 2016.1.0.1 20160516 - Build 16494 - WIN64
mtllib materials.mtl
# COORDINATE_SYSTEM:  
# Number of Geometry Coordinates  : 10
# Number of Texture  Coordinates  : 10
# Number of Normal   Coordinates  : 1
v 17723.245000 6787.088000 31.646000
v 17730.903000 6788.120000 31.020000
v 17728.824000 6793.030000 29.468000
v 17731.412000 6792.744000 29.467000
v 17715.968000 6789.745000 31.035000
v 17718.496000 6794.169000 29.473000
v 17715.789000 6787.895000 31.655000
v 17716.338000 6794.408000 29.474000
v 17723.645000 6793.602000 29.470000
v 17730.701000 6786.281000 31.638000
vt 0.619179 0.150521
vt 0.705321 0.164658
vt 0.681935 0.231918
vt 0.711046 0.228000
vt 0.537323 0.186918
vt 0.565759 0.247521
vt 0.535309 0.161575
vt 0.541485 0.250795
vt 0.623678 0.239753
vt 0.703048 0.139466
vn 0.035149 0.314753 0.948523
usemtl e0000008_0000338
# Number of Elements in set       : 8
f 1/1/1 2/2/1 3/3/1 
f 2/2/1 4/4/1 3/3/1 
f 5/5/1 1/1/1 6/6/1 
f 5/5/1 7/7/1 1/1/1 
f 8/8/1 5/5/1 6/6/1 
f 9/9/1 6/6/1 1/1/1 
f 9/9/1 1/1/1 3/3/1 
f 1/1/1 10/10/1 2/2/1 
# Total Number of Elements in file: 8
# EOF
