# Created with FME Version: FME(R) 2016.1.0.1 20160516 - Build 16494 - WIN64
mtllib materials.mtl
# COORDINATE_SYSTEM:  
# Number of Geometry Coordinates  : 4
# Number of Texture  Coordinates  : 4
# Number of Normal   Coordinates  : 1
v 17728.824000 6793.030000 29.468000
v 17723.645000 6793.602000 26.437000
v 17723.645000 6793.602000 29.470000
v 17728.824000 6793.030000 26.437000
vt 0.000000 0.999341
vt 1.000000 0.000000
vt 1.000000 1.000000
vt 0.000000 0.000000
vn 0.109779 0.993956 0.000000
usemtl e0000008_0000300
# Number of Elements in set       : 2
f 1/1/1 2/2/1 3/3/1 
f 1/1/1 4/4/1 2/2/1 
# Total Number of Elements in file: 2
# EOF
