# Created with FME Version: FME(R) 2016.1.0.1 20160516 - Build 16494 - WIN64
mtllib materials.mtl
# COORDINATE_SYSTEM:  
# Number of Geometry Coordinates  : 8
# Number of Texture  Coordinates  : 8
# Number of Normal   Coordinates  : 1
v 17753.007000 6812.956000 29.850000
v 17755.464000 6808.653000 29.885000
v 17755.907000 6812.678000 29.896000
v 17752.703000 6823.959000 29.857000
v 17751.086000 6824.120000 29.831000
v 17751.832000 6809.052000 29.827000
v 17747.835000 6824.399000 29.780000
v 17746.333000 6809.566000 29.740000
vt 0.953960 0.504877
vt 0.981597 0.445932
vt 0.986580 0.501068
vt 0.950540 0.655603
vt 0.932351 0.657808
vt 0.940742 0.451397
vt 0.895782 0.661630
vt 0.878886 0.458438
vn -0.015920 -0.001084 0.999873
usemtl e0000008_0000333
# Number of Elements in set       : 6
f 1/1/1 2/2/1 3/3/1 
f 4/4/1 5/5/1 1/1/1 
f 1/1/1 6/6/1 2/2/1 
f 5/5/1 7/7/1 1/1/1 
f 7/7/1 8/8/1 1/1/1 
f 8/8/1 6/6/1 1/1/1 
# Total Number of Elements in file: 6
# EOF
