# Created with FME Version: FME(R) 2016.1.0.1 20160516 - Build 16494 - WIN64
mtllib materials.mtl
# COORDINATE_SYSTEM:  
# Number of Geometry Coordinates  : 4
# Number of Texture  Coordinates  : 4
# Number of Normal   Coordinates  : 1
v 17751.086000 6824.120000 26.612000
v 17747.835000 6824.399000 26.612000
v 17747.835000 6824.399000 29.780000
v 17751.086000 6824.120000 29.831000
vt 0.000000 0.000000
vt 1.000000 0.000000
vt 1.000000 0.984157
vt 0.000000 1.000000
vn 0.085505 0.996338 0.000000
usemtl e0000008_0000275
# Number of Elements in set       : 2
f 1/1/1 2/2/1 3/3/1 
f 4/4/1 1/1/1 3/3/1 
# Total Number of Elements in file: 2
# EOF
