# Created with FME Version: FME(R) 2016.1.0.1 20160516 - Build 16494 - WIN64
mtllib materials.mtl
# COORDINATE_SYSTEM:  
# Number of Geometry Coordinates  : 4
# Number of Texture  Coordinates  : 4
# Number of Normal   Coordinates  : 1
v 17734.085000 6819.465000 7.999000
v 17734.864000 6826.544000 7.999000
v 17734.864000 6826.544000 25.648000
v 17734.085000 6819.465000 25.652000
vt 0.000000 0.000000
vt 1.000000 0.000000
vt 1.000000 0.999773
vt 0.000000 1.000000
vn 0.994000 -0.109383 0.000000
usemtl e0000008_0000323
# Number of Elements in set       : 2
f 1/1/1 2/2/1 3/3/1 
f 4/4/1 1/1/1 3/3/1 
# Total Number of Elements in file: 2
# EOF
