# Blender v2.79 (sub 0) OBJ File: ''
# www.blender.org
mtllib talo_build0000014_rotated.mtl
o talo_Build0000014
v -1.091340 0.245687 0.658226
v 1.002561 -0.251913 0.657524
v 1.002561 0.248387 0.657524
v -1.091340 -0.251913 0.658226
v 3.516679 -0.251913 0.336661
v 3.516265 -0.251913 -0.970746
v 3.516265 0.251187 -0.970746
v 3.516679 0.251487 0.336661
v -1.516813 0.082187 0.596904
v -1.091815 0.124487 -0.736208
v -1.517335 0.079987 -0.736036
v -1.091468 0.126587 0.596830
v -1.091468 -0.251913 0.596830
v -1.516813 -0.251913 0.596904
v -1.517335 -0.251913 -0.736036
v -1.091468 0.245687 0.596830
v 1.002478 0.248287 0.337411
v -1.091815 0.245387 -0.736208
v -1.091837 0.245287 -0.969294
v -1.091815 -0.251913 -0.736208
v -1.091837 -0.251913 -0.969294
v 1.002478 -0.251913 0.337411
v -1.091468 0.124487 0.596830
vt 0.000000 1.000000
vt 1.000000 0.000000
vt 1.000000 1.000000
vt 0.000000 0.000000
vt 0.000000 0.997000
vt 1.000000 0.000000
vt 1.000000 1.000000
vt 0.000000 0.000000
vt 0.000000 0.000000
vt 1.000000 0.000000
vt 1.000000 0.988000
vt 0.000000 1.000000
vt 0.000000 0.995000
vt 1.000000 0.000000
vt 1.000000 1.000000
vt 0.000000 0.000000
vt 0.459000 0.139000
vt 0.079000 0.381000
vt 0.076000 0.357000
vt 0.475000 0.265000
vt 0.144000 0.905000
vt 0.935000 0.003000
vt 0.998000 0.517000
vt 0.155000 0.996000
vt 0.000000 0.000000
vt 1.000000 0.000000
vt 1.000000 1.000000
vt 0.000000 1.000000
vt 0.000000 0.000000
vt 1.000000 0.000000
vt 1.000000 0.882000
vt 0.000000 1.000000
vt 0.001000 0.425000
vt 0.144000 0.905000
vt 0.066000 0.949000
vt 0.079000 0.381000
vt 0.000000 0.994000
vt 1.000000 0.000000
vt 1.000000 1.000000
vt 0.000000 0.000000
vt 0.000000 0.000000
vt 1.000000 0.000000
vt 1.000000 0.999000
vt 0.000000 1.000000
vt 0.000000 1.000000
vt 1.000000 0.000000
vt 1.000000 1.000000
vt 0.000000 0.000000
vt 0.000000 0.994000
vt 1.000000 0.000000
vt 1.000000 1.000000
vt 0.000000 0.000000
vt 0.000000 0.882000
vt 1.000000 0.000000
vt 1.000000 1.000000
vt 0.000000 0.000000
vn -1.0000 0.0000 0.0001
vn -1.0000 -0.0000 0.0003
vn -0.0003 0.0000 -1.0000
vn 0.0003 -0.0000 1.0000
vn -0.0013 1.0000 -0.0003
vn -0.0013 1.0000 -0.0001
vn -0.0013 1.0000 0.0000
vn -0.0012 1.0000 -0.0004
vn -0.0013 1.0000 -0.0002
vn 1.0000 -0.0000 -0.0003
vn -0.0004 0.0000 -1.0000
vn -0.1040 0.9946 -0.0016
vn -0.1038 0.9946 -0.0015
vn -1.0000 0.0000 0.0021
vn -1.0000 -0.0000 0.0004
vn 0.0002 -0.0000 1.0000
usemtl noname3430
s 1
f 19/1/1 20/2/1 18/3/1
f 19/1/1 21/4/1 20/2/1
usemtl noname3437
f 18/5/2 23/6/2 16/7/2
f 18/5/2 10/8/2 23/6/2
usemtl noname3431
f 6/9/3 21/10/3 19/11/3
f 7/12/3 6/9/3 19/11/3
usemtl noname3435
f 1/13/4 2/14/4 3/15/4
f 1/13/4 4/16/4 2/14/4
usemtl noname3441
f 3/17/5 16/18/6 1/19/7
f 17/20/5 18/21/8 16/18/6
f 3/17/5 17/20/5 16/18/6
f 8/22/9 7/23/9 17/20/5
f 7/23/9 19/24/8 17/20/5
f 19/24/8 18/21/8 17/20/5
usemtl noname3434
f 2/25/10 22/26/10 17/27/10
f 3/28/10 2/25/10 17/27/10
usemtl noname3440
f 20/29/11 15/30/11 11/31/11
f 10/32/11 20/29/11 11/31/11
usemtl noname3442
f 9/33/12 10/34/12 11/35/12
f 9/33/13 12/36/13 10/34/13
usemtl noname3433
f 17/37/4 5/38/4 8/39/4
f 17/37/4 22/40/4 5/38/4
usemtl noname3432
f 5/41/10 6/42/10 7/43/10
f 8/44/10 5/41/10 7/43/10
usemtl noname3436
f 16/45/14 4/46/14 1/47/14
f 16/45/14 13/48/14 4/46/14
usemtl noname3439
f 11/49/15 14/50/15 9/51/15
f 11/49/15 15/52/15 14/50/15
usemtl noname3438
f 9/53/16 13/54/16 12/55/16
f 9/53/16 14/56/16 13/54/16
