# Blender v2.79 (sub 0) OBJ File: ''
# www.blender.org
mtllib talo_build0000013_rotated.mtl
o talo_Build0000013
v 1.473229 0.285863 0.617942
v 2.113527 0.285863 0.617477
v 2.113527 0.359563 0.617477
v 1.473229 0.359763 0.617942
v 2.432363 0.357063 0.617236
v 2.431973 -1.061537 -0.122549
v 2.431973 0.357663 -0.122549
v 2.432363 -1.061537 0.617236
v -2.367106 0.351963 -0.702200
v -2.366655 0.287763 -0.168634
v -2.366655 0.356663 -0.168634
v -2.367106 0.287763 -0.702200
v 2.431602 0.356463 -0.618975
v 2.431324 -1.061537 -1.006063
v 2.431324 0.360563 -1.006063
v 2.431602 -1.061537 -0.618975
v -1.430065 0.280163 0.566181
v -1.429788 0.280163 0.849663
v -1.429788 0.361163 0.849663
v -1.430065 0.361763 0.566181
v -1.430671 0.352863 -0.199751
v -1.179568 0.355863 -0.455069
v -1.430967 0.356063 -0.454903
v -1.179284 0.352763 -0.199964
v 2.431602 0.288063 -0.618975
v 2.589679 0.287463 -0.122647
v 2.589295 0.289863 -0.619120
v 2.431973 0.285663 -0.122549
v 1.473330 -1.061537 0.847798
v 2.113630 -1.061537 0.847333
v 2.113630 0.286363 0.847334
v 1.473330 0.287763 0.847798
v -2.366163 -1.061537 0.566934
v -2.122048 -1.061537 0.566716
v -2.122048 0.362663 0.566716
v -2.366163 0.362963 0.566934
v -1.430967 0.352863 -0.454903
v -1.430671 0.407763 -0.199751
v -1.430967 0.411263 -0.454903
v 1.105899 -1.061537 -1.005100
v 1.106246 -1.061537 -0.643074
v 1.106246 0.356863 -0.643074
v 1.105899 0.361364 -1.005100
v -2.366655 -1.061537 -0.168634
v -1.179284 0.413063 -0.199964
v -1.179568 0.352763 -0.455069
v -1.179568 0.416563 -0.455069
v 1.246474 0.412163 -0.163154
v 1.474020 0.412063 -0.163405
v 1.473859 0.413563 -0.417279
v 1.246276 0.413663 -0.417171
v 2.589679 -1.061537 -0.122648
v 1.473859 0.350763 -0.417279
v 1.474020 0.350763 -0.163405
v 1.473330 0.287463 0.847798
v 1.473229 0.287463 0.617942
v 1.473330 0.360363 0.847798
v -2.367106 -1.061537 -0.702200
v -2.670994 -1.061537 -0.701955
v -2.670994 0.281264 -0.701955
v -2.367106 0.290663 -0.702200
v -2.121770 -1.061537 0.850197
v -2.121770 0.280963 0.850198
v -2.122048 0.286563 0.566716
v 2.113527 -1.061537 0.617477
v -2.670568 0.278463 -0.168483
v -2.670568 -1.061537 -0.168483
v -1.429788 -1.061537 0.849663
v -0.605537 -1.061537 0.849059
v -0.605537 0.360963 0.849059
v -0.605668 0.281763 0.605275
v -0.605668 0.360963 0.605275
v -0.605537 0.281763 0.849059
v 0.643192 -1.061537 0.848286
v 0.643192 0.281063 0.848286
v -1.430065 0.285763 0.566181
v 0.643192 0.360563 0.848286
v 0.643024 0.359363 0.604360
v 0.026771 0.357463 -0.642257
v -1.052502 0.358163 -0.641443
v -1.052585 0.363063 -1.041608
v -2.367291 0.349063 -1.040589
v -2.367291 -1.061537 -1.040589
v -1.052585 -1.061537 -1.041609
v -2.122048 0.285763 0.566716
v 2.589295 -1.061537 -0.619121
v 1.246474 0.350863 -0.163154
v 1.473859 0.353863 -0.417279
v 1.246276 0.353963 -0.417171
v 0.643024 0.281063 0.604360
v 1.246276 0.350863 -0.417171
v -0.605668 0.287863 0.605275
v 0.643024 0.287863 0.604360
v -1.052502 -1.061537 -0.641443
v -0.605668 0.288663 0.605275
v 2.431602 0.285663 -0.618975
v 1.246474 0.350763 -0.163154
v -1.430967 0.355863 -0.454903
v -1.430671 0.352763 -0.199751
v 1.246276 0.353863 -0.417171
vt 0.000000 0.000000
vt 1.000000 0.000000
vt 1.000000 0.998000
vt 0.000000 1.000000
vt 0.000000 0.998000
vt 1.000000 0.000000
vt 1.000000 1.000000
vt 0.000000 0.000000
vt 0.000000 0.000000
vt 1.000000 0.000000
vt 1.000000 0.990000
vt 0.000000 1.000000
vt 0.000000 0.000000
vt 1.000000 0.000000
vt 1.000000 1.000000
vt 0.000000 1.000000
vt 0.000000 0.998000
vt 1.000000 0.000000
vt 1.000000 1.000000
vt 0.000000 0.000000
vt 0.000000 0.000000
vt 1.000000 0.000000
vt 1.000000 1.000000
vt 0.000000 1.000000
vt 0.000000 0.000000
vt 1.000000 0.000000
vt 1.000000 0.993000
vt 0.000000 1.000000
vt 0.000000 0.000000
vt 1.000000 0.000000
vt 1.000000 0.999000
vt 0.000000 1.000000
vt 0.000000 0.999000
vt 1.000000 0.000000
vt 1.000000 1.000000
vt 0.000000 0.000000
vt 0.195000 0.396000
vt 0.053000 0.363000
vt 0.181000 0.304000
vt 0.067000 0.455000
vt 0.000000 0.976000
vt 1.000000 0.000000
vt 1.000000 1.000000
vt 0.000000 0.000000
vt 0.000000 0.999000
vt 1.000000 0.000000
vt 1.000000 1.000000
vt 0.000000 0.000000
vt 0.000000 0.000000
vt 1.000000 0.000000
vt 1.000000 0.976000
vt 0.000000 1.000000
vt 0.000000 0.000000
vt 1.000000 0.000000
vt 1.000000 0.977000
vt 0.000000 1.000000
vt 0.970000 0.451000
vt 0.975000 0.276000
vt 0.999000 0.437000
vt 0.946000 0.290000
vt 0.279000 0.623000
vt 0.291000 0.706000
vt 0.245000 0.727000
vt 0.232000 0.645000
vt 0.232000 0.645000
vt 0.291000 0.706000
vt 0.245000 0.727000
vt 0.279000 0.623000
vt 0.728000 0.404000
vt 0.770000 0.385000
vt 0.782000 0.467000
vt 0.740000 0.487000
vt 0.000000 0.984000
vt 1.000000 0.000000
vt 1.000000 1.000000
vt 0.000000 0.000000
vt 0.000000 0.000000
vt 1.000000 0.000000
vt 1.000000 0.999000
vt 0.000000 1.000000
vt 0.566000 0.127000
vt 0.578000 0.207000
vt 0.346000 0.313000
vt 0.334000 0.234000
vt 0.000000 1.000000
vt 1.000000 0.000000
vt 1.000000 1.000000
vt 0.000000 0.000000
vt 0.728000 0.404000
vt 0.770000 0.385000
vt 0.782000 0.467000
vt 0.740000 0.487000
vt 0.000000 0.000000
vt 1.000000 0.000000
vt 1.000000 1.000000
vt 0.000000 1.000000
vt 0.000000 0.000000
vt 1.000000 0.000000
vt 1.000000 0.997000
vt 0.000000 1.000000
vt 0.000000 0.997000
vt 1.000000 0.000000
vt 1.000000 1.000000
vt 0.000000 0.000000
vt 0.000000 0.999000
vt 1.000000 0.000000
vt 1.000000 1.000000
vt 0.000000 0.000000
vt 0.000000 0.997000
vt 1.000000 0.000000
vt 1.000000 1.000000
vt 0.000000 0.000000
vt 0.000000 0.000000
vt 1.000000 0.000000
vt 1.000000 0.997000
vt 0.000000 1.000000
vt 0.000000 0.000000
vt 1.000000 0.000000
vt 1.000000 0.992000
vt 0.000000 1.000000
vt 0.000000 0.993000
vt 1.000000 0.000000
vt 1.000000 1.000000
vt 0.000000 0.000000
vt 0.000000 0.000000
vt 1.000000 0.000000
vt 1.000000 0.999000
vt 0.000000 1.000000
vt 0.000000 0.000000
vt 1.000000 0.000000
vt 1.000000 0.999000
vt 0.000000 1.000000
vt 0.000000 0.946000
vt 1.000000 0.000000
vt 1.000000 1.000000
vt 0.000000 0.000000
vt 0.000000 0.999000
vt 1.000000 0.000000
vt 1.000000 1.000000
vt 0.000000 0.000000
vt 0.731000 0.131000
vt 0.839000 0.002000
vt 0.850000 0.077000
vt 0.720000 0.057000
vt 0.000000 0.000000
vt 1.000000 0.000000
vt 1.000000 0.998000
vt 0.000000 1.000000
vt 0.000000 0.000000
vt 1.000000 0.000000
vt 1.000000 0.940000
vt 0.000000 1.000000
vt 0.000000 0.999000
vt 1.000000 0.000000
vt 1.000000 1.000000
vt 0.000000 0.000000
vt 0.000000 0.000000
vt 1.000000 0.000000
vt 1.000000 0.999000
vt 0.000000 1.000000
vt 0.000000 0.000000
vt 1.000000 0.000000
vt 1.000000 0.996000
vt 0.000000 1.000000
vt 0.000000 0.000000
vt 1.000000 0.000000
vt 1.000000 0.983000
vt 0.000000 1.000000
vt 0.000000 0.912000
vt 1.000000 0.000000
vt 1.000000 1.000000
vt 0.000000 0.000000
vt 0.000000 0.000000
vt 1.000000 0.000000
vt 1.000000 1.000000
vt 0.000000 1.000000
vt 0.000000 0.000000
vt 1.000000 0.000000
vt 1.000000 0.912000
vt 0.000000 1.000000
vt 0.000000 0.000000
vt 1.000000 0.000000
vt 1.000000 0.993000
vt 0.000000 1.000000
vt 0.334000 0.234000
vt 0.346000 0.313000
vt 0.181000 0.304000
vt 0.195000 0.396000
vt 0.725000 0.572000
vt 0.731000 0.131000
vt 0.946000 0.290000
vt 0.970000 0.451000
vt 0.850000 0.077000
vt 0.720000 0.057000
vt 0.566000 0.127000
vt 0.578000 0.207000
vt 0.910000 0.050000
vt 0.989000 0.576000
vt 0.743000 0.689000
vt 0.525000 0.664000
vt 0.324000 0.756000
vt 0.083000 0.888000
vt 0.057000 0.714000
vt 0.344000 0.886000
vt 0.100000 0.997000
vt 0.067000 0.455000
vt 0.021000 0.476000
vt 0.000000 0.000000
vt 1.000000 0.000000
vt 1.000000 0.988000
vt 0.000000 1.000000
vt 0.000000 0.996000
vt 1.000000 0.000000
vt 1.000000 1.000000
vt 0.000000 0.000000
vt 0.057000 0.714000
vt 0.083000 0.888000
vt 0.027000 0.913000
vt 0.001000 0.740000
vt 0.000000 0.933000
vt 1.000000 0.000000
vt 1.000000 1.000000
vt 0.000000 0.000000
vn 0.0008 -0.0000 1.0000
vn -1.0000 -0.0000 0.0005
vn -0.0008 0.0000 -1.0000
vn 0.0009 -0.0000 1.0000
vn 1.0000 0.0000 -0.0008
vn 1.0000 -0.0000 -0.0004
vn -1.0000 0.0000 0.0010
vn 1.0000 0.0000 -0.0005
vn 0.0012 0.9998 0.0197
vn 1.0000 -0.0000 -0.0006
vn -0.0005 -0.0000 -1.0000
vn -1.0000 -0.0000 0.0008
vn 0.0007 0.0000 1.0000
vn -0.0114 0.9999 0.0048
vn -0.0211 0.9997 0.0137
vn 0.0006 0.9999 0.0123
vn 0.0008 0.9999 0.0125
vn 0.0004 0.9999 0.0122
vn 0.0005 0.9999 0.0122
vn -1.0000 0.0000 0.0007
vn -0.0009 0.0000 -1.0000
vn 0.0006 0.9996 0.0283
vn 0.0007 0.9996 0.0279
vn 0.0006 0.9996 0.0282
vn 0.0004 1.0000 0.0059
vn 0.0006 -0.0000 1.0000
vn 1.0000 0.0000 -0.0007
vn -0.0007 0.0000 -1.0000
vn 1.0000 0.0000 -0.0002
vn 0.0005 -0.0000 1.0000
vn 0.0011 -0.0000 1.0000
vn 1.0000 -0.0000 -0.0011
vn 0.0024 1.0000 -0.0018
vn 0.0023 1.0000 -0.0017
vn 0.0025 1.0000 -0.0022
vn 0.0022 1.0000 -0.0013
vn -1.0000 0.0000 0.0012
vn 0.0002 1.0000 0.0000
vn 0.0008 1.0000 0.0012
vn 0.0004 1.0000 0.0004
vn 0.0004 1.0000 -0.0064
vn 0.0003 1.0000 -0.0021
vn -0.0001 1.0000 -0.0037
vn 0.0047 1.0000 -0.0005
vn 0.0003 1.0000 -0.0024
vn 0.0069 1.0000 0.0005
vn 0.0002 1.0000 -0.0026
vn 0.0001 1.0000 -0.0031
vn 0.0009 1.0000 -0.0017
vn 0.0078 1.0000 0.0008
vn 0.0005 0.9999 0.0120
vn 0.0002 0.9999 0.0111
vn 0.0001 0.9999 0.0106
vn 0.0006 0.9999 0.0124
vn 0.0008 1.0000 -0.0021
vn 0.0010 1.0000 -0.0023
vn 0.0006 1.0000 -0.0025
vn -0.0028 1.0000 -0.0078
vn -0.0043 1.0000 -0.0088
vn 0.0011 1.0000 -0.0081
vn -0.0107 0.9999 -0.0086
vn -0.0053 0.9999 0.0122
vn 0.0013 1.0000 -0.0086
vn 0.0012 1.0000 -0.0086
vn -0.0307 0.9995 0.0053
vn -0.0309 0.9995 0.0055
vn -0.0308 0.9995 0.0054
vn -0.0306 0.9995 0.0053
usemtl noname658
s 1
f 65/1/1 8/2/1 5/3/1
f 3/4/1 65/1/1 5/3/1
usemtl noname649
f 82/5/2 58/6/2 9/7/2
f 82/5/2 83/8/2 58/6/2
usemtl noname650
f 84/9/3 83/10/3 82/11/3
f 81/12/3 84/9/3 82/11/3
usemtl noname646
f 33/13/4 34/14/4 35/15/4
f 36/16/4 33/13/4 35/15/4
usemtl noname628
f 26/17/5 86/18/5 27/19/5
f 26/17/5 52/20/5 86/18/5
usemtl noname630
f 30/21/6 65/22/6 2/23/6
f 31/24/6 30/21/6 2/23/6
usemtl noname666
f 17/25/7 18/26/7 19/27/7
f 20/28/7 17/25/7 19/27/7
usemtl noname643
f 62/29/1 68/30/1 18/31/1
f 63/32/1 62/29/1 18/31/1
usemtl noname664
f 70/33/8 71/34/8 72/35/8
f 70/33/8 73/36/8 71/34/8
usemtl noname673
f 76/37/9 63/38/9 18/39/9
f 76/37/9 64/40/9 63/38/9
usemtl noname634
f 49/41/10 53/42/10 50/43/10
f 49/41/10 54/44/10 53/42/10
usemtl noname633
f 50/45/11 100/46/11 51/47/11
f 50/45/11 88/48/11 100/46/11
usemtl noname632
f 91/49/12 87/50/12 48/51/12
f 51/52/12 91/49/12 48/51/12
usemtl noname663
f 92/53/13 93/54/13 78/55/13
f 72/56/13 92/53/13 78/55/13
usemtl noname668
f 25/57/14 26/58/14 27/59/14
f 25/57/14 28/60/14 26/58/14
usemtl noname672
f 45/61/15 47/62/15 39/63/15
f 38/64/15 45/61/15 39/63/15
usemtl noname677
f 21/65/16 22/66/16 23/67/17
f 21/65/16 24/68/18 22/66/16
usemtl noname676
f 87/69/18 54/70/19 88/71/18
f 89/72/18 87/69/18 88/71/18
usemtl noname662
f 78/73/20 75/74/20 77/75/20
f 78/73/20 90/76/20 75/74/20
usemtl noname627
f 86/77/21 16/78/21 25/79/21
f 27/80/21 86/77/21 25/79/21
usemtl noname674
f 75/81/22 93/82/23 95/83/24
f 73/84/22 75/81/22 95/83/24
usemtl noname657
f 5/85/8 6/86/8 7/87/8
f 5/85/8 8/88/8 6/86/8
usemtl noname670
f 48/89/25 49/90/25 50/91/25
f 51/92/25 48/89/25 50/91/25
usemtl noname661
f 74/93/26 29/94/26 57/95/26
f 77/96/26 74/93/26 57/95/26
usemtl noname659
f 1/97/13 2/98/13 3/99/13
f 4/100/13 1/97/13 3/99/13
usemtl noname655
f 13/101/27 14/102/27 15/103/27
f 13/101/27 16/104/27 14/102/27
usemtl noname654
f 15/105/28 40/106/28 43/107/28
f 15/105/28 14/108/28 40/106/28
usemtl noname651
f 80/109/29 84/110/29 81/111/29
f 80/109/29 94/112/29 84/110/29
usemtl noname653
f 40/113/7 41/114/7 42/115/7
f 43/116/7 40/113/7 42/115/7
usemtl noname660
f 55/117/6 56/118/6 4/119/6
f 57/120/6 55/117/6 4/119/6
usemtl noname636
f 66/121/30 44/122/30 10/123/30
f 66/121/30 67/124/30 44/122/30
usemtl noname635
f 97/125/31 54/126/31 49/127/31
f 48/128/31 97/125/31 49/127/31
usemtl noname631
f 29/129/13 30/130/13 31/131/13
f 32/132/13 29/129/13 31/131/13
usemtl noname642
f 45/133/32 46/134/32 47/135/32
f 45/133/32 24/136/32 46/134/32
usemtl noname629
f 28/137/26 52/138/26 26/139/26
f 28/137/26 6/140/26 52/138/26
usemtl noname669
f 56/141/33 31/142/34 2/143/35
f 56/141/33 32/144/36 31/142/34
usemtl noname637
f 59/145/12 67/146/12 66/147/12
f 60/148/12 59/145/12 66/147/12
usemtl noname640
f 37/149/37 21/150/37 38/151/37
f 39/152/37 37/149/37 38/151/37
usemtl noname652
f 42/153/3 94/154/3 80/155/3
f 42/153/3 41/156/3 94/154/3
usemtl noname645
f 69/157/26 74/158/26 75/159/26
f 73/160/26 69/157/26 75/159/26
usemtl noname644
f 34/161/7 62/162/7 63/163/7
f 64/164/7 34/161/7 63/163/7
usemtl noname656
f 28/165/27 96/166/27 13/167/27
f 7/168/27 28/165/27 13/167/27
usemtl noname639
f 38/169/1 24/170/1 45/171/1
f 38/169/1 99/172/1 24/170/1
usemtl noname665
f 68/173/13 69/174/13 70/175/13
f 19/176/13 68/173/13 70/175/13
usemtl noname641
f 22/177/28 98/178/28 39/179/28
f 47/180/28 22/177/28 39/179/28
usemtl noname638
f 58/181/3 59/182/3 60/183/3
f 61/184/3 58/181/3 60/183/3
usemtl noname675
f 70/185/38 72/186/39 19/187/40
f 72/186/39 20/188/41 19/187/40
f 42/189/42 4/190/43 7/191/44
f 13/192/45 42/189/42 7/191/44
f 4/190/43 3/193/46 7/191/44
f 57/194/47 4/190/43 77/195/48
f 4/190/43 78/196/49 77/195/48
f 3/193/46 5/197/50 7/191/44
f 15/198/51 42/189/52 13/192/53
f 43/199/54 42/189/52 15/198/51
f 79/200/55 78/196/49 42/189/42
f 72/186/56 78/196/49 79/200/55
f 72/186/56 79/200/55 80/201/57
f 72/186/39 80/201/58 20/188/41
f 78/196/49 4/190/43 42/189/42
f 80/201/58 9/202/59 11/203/60
f 81/204/61 82/205/61 9/202/61
f 81/204/62 9/202/62 80/201/62
f 80/201/58 11/203/60 20/188/41
f 11/203/60 35/206/63 20/188/41
f 36/207/64 35/206/63 11/203/60
usemtl noname667
f 85/208/1 76/209/1 20/210/1
f 35/211/1 85/208/1 20/210/1
usemtl noname647
f 11/212/20 33/213/20 36/214/20
f 11/212/20 44/215/20 33/213/20
usemtl noname671
f 10/216/65 61/217/66 60/218/67
f 66/219/68 10/216/65 60/218/67
usemtl noname648
f 9/220/12 10/221/12 11/222/12
f 9/220/12 12/223/12 10/221/12
