# Blender v2.79 (sub 0) OBJ File: ''
# www.blender.org
mtllib talo_build0000016_rotated.mtl
o talo_Build0000016
v 0.737929 0.737016 0.976895
v -0.871174 0.734116 1.172055
v 0.737999 0.737116 1.170978
v 0.844947 0.737616 0.976860
v 0.842679 0.734917 -2.389756
v -0.872207 0.731116 -0.193423
v -0.872674 0.732516 -1.110084
v -0.873699 0.732817 -2.388591
v -0.872674 -0.451383 -1.110084
v -0.872207 -0.451384 -0.193423
v -0.872674 -0.912784 -1.110084
v -0.987230 -0.912784 -1.110135
v -0.987230 -0.469884 -1.110135
v -0.872674 -0.449983 -1.110084
v 0.844947 0.737016 0.976860
v 0.737929 0.994716 0.976895
v 0.844947 0.995516 0.976860
v -0.986536 -0.471284 -0.193387
v -0.872208 -0.912784 -0.193423
v -0.986536 -0.912784 -0.193387
v 0.737999 0.737016 1.170978
v 0.737999 0.997016 1.170978
v 1.012935 -0.912784 1.170815
v 1.012935 0.999216 1.170815
v 0.737998 -0.912784 1.170977
v -0.873699 -0.912784 -2.388592
v 0.842679 -0.912784 -2.389757
v 1.012864 0.996816 0.976733
v -0.871174 -0.912784 1.172055
v 0.844946 -0.912784 0.976860
v 1.012864 -0.912784 0.976732
vt 0.000000 0.998000
vt 1.000000 0.000000
vt 1.000000 1.000000
vt 0.000000 0.000000
vt 0.000000 0.000000
vt 1.000000 0.000000
vt 1.000000 0.999000
vt 0.000000 1.000000
vt 0.000000 0.991000
vt 1.000000 0.000000
vt 1.000000 1.000000
vt 0.000000 0.000000
vt 0.000000 0.998000
vt 1.000000 0.000000
vt 1.000000 1.000000
vt 0.000000 0.000000
vt 0.000000 0.000000
vt 1.000000 0.000000
vt 1.000000 1.000000
vt 0.000000 1.000000
vt 0.000000 0.000000
vt 1.000000 0.000000
vt 1.000000 0.999000
vt 0.000000 1.000000
vt 0.000000 0.000000
vt 1.000000 0.000000
vt 1.000000 0.999000
vt 0.000000 1.000000
vt 0.648000 0.061000
vt 0.609000 0.068000
vt 0.589000 0.021000
vt 0.709000 0.049000
vt 0.689000 0.002000
vt 0.000000 0.000000
vt 1.000000 0.000000
vt 1.000000 0.999000
vt 0.000000 1.000000
vt 0.000000 0.957000
vt 1.000000 0.000000
vt 1.000000 1.000000
vt 0.000000 0.000000
vt 0.000000 0.000000
vt 1.000000 0.000000
vt 1.000000 0.998000
vt 0.000000 1.000000
vt 0.000000 0.999000
vt 1.000000 0.000000
vt 1.000000 1.000000
vt 0.000000 0.000000
vt 0.609000 0.068000
vt 0.002000 0.132000
vt 0.589000 0.021000
vt 0.648000 0.061000
vt 0.996000 0.881000
vt 0.144000 0.465000
vt 0.239000 0.688000
vt 0.371000 0.999000
vt 0.000000 0.000000
vt 1.000000 0.000000
vt 1.000000 0.997000
vt 0.000000 1.000000
vt 0.000000 0.000000
vt 1.000000 0.000000
vt 1.000000 0.957000
vt 0.000000 1.000000
vt 0.239000 0.688000
vt 0.102000 0.473000
vt 0.144000 0.465000
vt 0.197000 0.696000
vt 0.000000 0.000000
vt 1.000000 0.000000
vt 1.000000 0.997000
vt 0.000000 1.000000
vn 0.0007 -0.0000 1.0000
vn -0.0008 0.0000 -1.0000
vn -1.0000 0.0000 0.0004
vn -1.0000 0.0000 0.0008
vn -1.0000 0.0000 0.0005
vn 1.0000 -0.0000 -0.0004
vn -0.0078 0.9999 -0.0121
vn -0.0075 0.9999 -0.0118
vn -0.0078 0.9999 -0.0120
vn -0.0078 0.9999 -0.0124
vn -0.0079 0.9999 -0.0122
vn -0.0007 0.0000 -1.0000
vn 0.0003 -0.0000 1.0000
vn 1.0000 -0.0000 -0.0007
vn 0.0006 -0.0000 1.0000
vn -0.0030 1.0000 0.0012
vn -0.0020 1.0000 -0.0010
vn -0.0019 1.0000 -0.0005
vn -0.0056 1.0000 -0.0008
vn -0.0040 1.0000 -0.0005
vn -0.0026 1.0000 -0.0016
vn -0.0037 1.0000 0.0012
vn -0.0012 1.0000 0.0002
vn 0.0004 0.0000 -1.0000
vn -0.1715 0.9852 0.0016
vn -0.1712 0.9852 0.0016
vn -0.0003 0.0000 -1.0000
usemtl noname3920
s 1
f 2/1/1 25/2/1 3/3/1
f 2/1/1 29/4/1 25/2/1
usemtl noname3908
f 31/5/2 30/6/2 17/7/2
f 28/8/2 31/5/2 17/7/2
usemtl noname3911
f 16/9/3 21/10/3 22/11/3
f 16/9/3 1/12/3 21/10/3
usemtl noname3921
f 6/13/4 29/14/4 2/15/4
f 6/13/4 19/16/4 29/14/4
usemtl noname3917
f 26/17/4 11/18/4 7/19/4
f 8/20/4 26/17/4 7/19/4
usemtl noname3916
f 9/21/5 10/22/5 6/23/5
f 7/24/5 9/21/5 6/23/5
usemtl noname3909
f 23/25/6 31/26/6 28/27/6
f 24/28/6 23/25/6 28/27/6
usemtl noname3922
f 17/29/7 16/30/8 22/31/9
f 28/32/10 17/29/7 24/33/11
f 24/33/11 17/29/7 22/31/9
usemtl noname3918
f 27/34/12 26/35/12 8/36/12
f 5/37/12 27/34/12 8/36/12
usemtl noname3914
f 18/38/13 19/39/13 10/40/13
f 18/38/13 20/41/13 19/39/13
usemtl noname3919
f 30/42/14 27/43/14 5/44/14
f 4/45/14 30/42/14 5/44/14
usemtl noname3910
f 22/46/15 23/47/15 24/48/15
f 22/46/15 25/49/15 23/47/15
usemtl noname3924
f 1/50/16 2/51/17 3/52/18
f 4/53/19 5/54/20 1/50/16
f 1/50/16 6/55/21 2/51/17
f 5/54/20 7/56/22 1/50/16
f 7/56/22 6/55/21 1/50/16
f 8/57/23 7/56/22 5/54/20
usemtl noname3915
f 12/58/4 20/59/4 18/60/4
f 13/61/4 12/58/4 18/60/4
usemtl noname3913
f 11/62/24 12/63/24 13/64/24
f 14/65/24 11/62/24 13/64/24
usemtl noname3923
f 14/66/25 18/67/25 10/68/25
f 14/66/26 13/69/26 18/67/26
usemtl noname3912
f 15/70/27 1/71/27 16/72/27
f 17/73/27 15/70/27 16/72/27
