# Created with FME Version: FME(R) 2016.1.0.1 20160516 - Build 16494 - WIN64
mtllib materials.mtl
# COORDINATE_SYSTEM:  
# Number of Geometry Coordinates  : 4
# Number of Texture  Coordinates  : 4
# Number of Normal   Coordinates  : 1
v 17681.093000 6799.714000 25.629000
v 17681.194000 6800.636000 25.629000
v 17681.194000 6800.636000 34.569000
v 17681.093000 6799.714000 34.575000
vt 0.000000 0.000000
vt 1.000000 0.000000
vt 1.000000 0.999329
vt 0.000000 1.000000
vn 0.994053 -0.108893 0.000000
usemtl e0000008_0000270
# Number of Elements in set       : 2
f 1/1/1 2/2/1 3/3/1 
f 4/4/1 1/1/1 3/3/1 
# Total Number of Elements in file: 2
# EOF
