# Created with FME Version: FME(R) 2016.1.0.1 20160516 - Build 16494 - WIN64
mtllib materials.mtl
# COORDINATE_SYSTEM:  
# Number of Geometry Coordinates  : 12
# Number of Texture  Coordinates  : 12
# Number of Normal   Coordinates  : 1
v 17738.730000 6818.954000 26.608000
v 17739.751000 6810.232000 26.629000
v 17746.333000 6809.566000 26.642000
v 17737.772000 6810.389000 26.626000
v 17739.189000 6805.100000 26.640000
v 17749.535000 6804.257000 26.659000
v 17751.832000 6809.052000 26.652000
v 17751.254000 6804.117000 26.662000
v 17739.612000 6826.870000 26.592000
v 17747.835000 6824.399000 26.612000
v 17751.086000 6824.120000 26.618000
v 17751.244000 6825.614000 26.615000
vt 0.793363 0.587041
vt 0.804848 0.467562
vt 0.878886 0.458438
vt 0.782587 0.469712
vt 0.798526 0.397260
vt 0.914904 0.385712
vt 0.940742 0.451397
vt 0.934241 0.383795
vt 0.803285 0.695479
vt 0.895782 0.661630
vt 0.932351 0.657808
vt 0.934128 0.678274
vn -0.001648 0.002237 0.999996
usemtl e0000008_0000342
# Number of Elements in set       : 10
f 1/1/1 2/2/1 3/3/1 
f 1/1/1 4/4/1 2/2/1 
f 2/2/1 5/5/1 3/3/1 
f 3/3/1 6/6/1 7/7/1 
f 6/6/1 8/8/1 7/7/1 
f 9/9/1 1/1/1 10/10/1 
f 6/6/1 3/3/1 5/5/1 
f 11/11/1 12/12/1 10/10/1 
f 12/12/1 9/9/1 10/10/1 
f 10/10/1 1/1/1 3/3/1 
# Total Number of Elements in file: 10
# EOF
