# Created with FME Version: FME(R) 2016.1.0.1 20160516 - Build 16494 - WIN64
mtllib materials.mtl
# COORDINATE_SYSTEM:  
# Number of Geometry Coordinates  : 4
# Number of Texture  Coordinates  : 4
# Number of Normal   Coordinates  : 1
v 17728.271000 6827.270000 27.835000
v 17727.374000 6827.368000 25.449000
v 17727.374000 6827.368000 28.132000
v 17728.271000 6827.270000 25.449000
vt 0.000000 0.889303
vt 1.000000 0.000000
vt 1.000000 1.000000
vt 0.000000 0.000000
vn 0.108607 0.994085 0.000000
usemtl e0000008_0000325
# Number of Elements in set       : 2
f 1/1/1 2/2/1 3/3/1 
f 1/1/1 4/4/1 2/2/1 
# Total Number of Elements in file: 2
# EOF
