# Created with FME Version: FME(R) 2016.1.0.1 20160516 - Build 16494 - WIN64
mtllib materials.mtl
# COORDINATE_SYSTEM:  
# Number of Geometry Coordinates  : 4
# Number of Texture  Coordinates  : 4
# Number of Normal   Coordinates  : 1
v 17730.701000 6786.281000 27.418000
v 17730.903000 6788.120000 27.418000
v 17730.903000 6788.120000 31.020000
v 17730.701000 6786.281000 31.638000
vt 0.000000 0.000000
vt 1.000000 0.000000
vt 1.000000 0.853555
vt 0.000000 1.000000
vn 0.994021 -0.109186 0.000000
usemtl e0000008_0000295
# Number of Elements in set       : 2
f 1/1/1 2/2/1 3/3/1 
f 4/4/1 1/1/1 3/3/1 
# Total Number of Elements in file: 2
# EOF
