# Created with FME Version: FME(R) 2016.1.0.1 20160516 - Build 16494 - WIN64
mtllib materials.mtl
# COORDINATE_SYSTEM:  
# Number of Geometry Coordinates  : 4
# Number of Texture  Coordinates  : 4
# Number of Normal   Coordinates  : 1
v 17737.138000 6794.400000 25.653000
v 17731.398000 6794.994000 22.820000
v 17731.398000 6794.994000 25.663000
v 17737.138000 6794.400000 22.820000
vt 0.000000 0.996483
vt 1.000000 0.000000
vt 1.000000 1.000000
vt 0.000000 0.000000
vn 0.102935 0.994688 0.000000
usemtl e0000008_0000308
# Number of Elements in set       : 2
f 1/1/1 2/2/1 3/3/1 
f 1/1/1 4/4/1 2/2/1 
# Total Number of Elements in file: 2
# EOF
