# Created with FME Version: FME(R) 2016.1.0.1 20160516 - Build 16494 - WIN64
mtllib materials.mtl
# COORDINATE_SYSTEM:  
# Number of Geometry Coordinates  : 4
# Number of Texture  Coordinates  : 4
# Number of Normal   Coordinates  : 1
v 17755.907000 6812.678000 28.045000
v 17757.100000 6823.518000 7.999000
v 17757.100000 6823.518000 28.132000
v 17755.907000 6812.678000 7.999000
vt 0.000000 0.995679
vt 1.000000 0.000000
vt 1.000000 1.000000
vt 0.000000 0.000000
vn 0.993998 -0.109395 0.000000
usemtl e0000008_0000292
# Number of Elements in set       : 2
f 1/1/1 2/2/1 3/3/1 
f 1/1/1 4/4/1 2/2/1 
# Total Number of Elements in file: 2
# EOF
