# Created with FME Version: FME(R) 2016.1.0.1 20160516 - Build 16494 - WIN64
mtllib materials.mtl
# COORDINATE_SYSTEM:  
# Number of Geometry Coordinates  : 4
# Number of Texture  Coordinates  : 4
# Number of Normal   Coordinates  : 1
v 17716.338000 6794.408000 29.474000
v 17715.968000 6789.745000 26.415000
v 17715.968000 6789.745000 31.035000
v 17716.338000 6794.408000 26.415000
vt 0.000000 0.662121
vt 1.000000 0.000000
vt 1.000000 1.000000
vt 0.000000 0.000000
vn -0.996867 0.079099 0.000000
usemtl e0000008_0000297
# Number of Elements in set       : 2
f 1/1/1 2/2/1 3/3/1 
f 1/1/1 4/4/1 2/2/1 
# Total Number of Elements in file: 2
# EOF
