# Created with FME Version: FME(R) 2016.1.0.1 20160516 - Build 16494 - WIN64
mtllib materials.mtl
# COORDINATE_SYSTEM:  
# Number of Geometry Coordinates  : 4
# Number of Texture  Coordinates  : 4
# Number of Normal   Coordinates  : 1
v 17715.250000 6782.665000 7.999000
v 17714.749000 6777.757000 7.999000
v 17714.749000 6777.757000 28.236000
v 17715.250000 6782.665000 29.891000
vt 0.000000 0.000000
vt 1.000000 0.000000
vt 1.000000 0.924402
vt 0.000000 1.000000
vn -0.994830 0.101551 0.000000
usemtl e0000008_0000264
# Number of Elements in set       : 2
f 1/1/1 2/2/1 3/3/1 
f 4/4/1 1/1/1 3/3/1 
# Total Number of Elements in file: 2
# EOF
