# Blender v2.79 (sub 0) OBJ File: ''
# www.blender.org
mtllib talo_Build0000081.mtl
o talo_Build0000081
v -0.279614 0.688635 0.044199
v -0.277130 0.179590 0.044199
v -0.277130 0.179590 0.074999
v -0.279614 0.688635 0.132099
v -0.280199 0.844818 0.024299
v -0.279614 0.688635 0.024299
v -0.280199 0.844818 0.135399
v -0.280345 0.849223 -0.476101
v -0.280199 0.844818 -0.476101
v -0.280345 0.849223 0.135799
v 0.600514 0.853530 -0.476101
v 0.600514 0.853530 0.137299
v -0.438809 0.183216 0.020499
v -0.438057 0.058727 0.020499
v -0.438057 0.058727 0.063799
v -0.438809 0.183216 0.075099
v -0.438809 0.183216 0.044199
v -1.257879 0.683867 0.030599
v -1.257107 0.508497 0.030599
v -1.257107 0.508497 0.121099
v -1.257879 0.683867 0.140399
v -0.886824 0.685691 0.128199
v -1.257879 0.683867 0.030699
v -0.886824 0.685691 0.030699
v -0.638389 0.686951 0.105299
v -0.886824 0.685691 0.105299
v -0.638389 0.686951 0.141999
v -0.520814 0.687504 0.007299
v -0.638389 0.686951 0.007299
v -0.520814 0.687504 0.142299
v -0.520814 0.687504 0.024299
v -1.254237 -0.066677 -0.005101
v -0.437519 -0.062637 -0.476101
v -0.437519 -0.062637 -0.003001
v -1.254237 -0.066677 -0.476101
v 1.641421 -0.116396 0.018599
v 1.642857 -0.403604 0.018599
v 1.642857 -0.403604 0.143699
v 1.641421 -0.116396 0.150199
v 1.891681 -0.115162 0.148899
v 1.641421 -0.116396 0.017399
v 1.891681 -0.115162 0.017399
v 1.795887 -0.402736 0.144099
v 1.794892 -0.195727 0.119799
v 1.794892 -0.195727 0.144599
v 1.795887 -0.402736 0.119799
v 0.713694 -1.535435 -0.476102
v 1.801280 -1.530208 -0.476102
v 1.801280 -1.530208 0.016799
v 0.713694 -1.535435 0.024298
v -0.887610 0.841870 0.105999
v -0.886824 0.685691 0.114999
v -0.887610 0.841870 0.030699
v -0.639163 0.843086 0.096299
v -0.887610 0.841870 -0.476101
v -0.639163 0.843086 -0.476101
v -0.638389 0.686951 0.018699
v -0.639163 0.843086 0.018699
v -1.373444 0.589441 0.031599
v -1.611802 0.588249 -0.476101
v -1.611802 0.588249 0.032399
v -1.373444 0.589441 -0.476101
v -1.374819 0.839463 -0.476101
v -1.374819 0.839463 0.033499
v -0.887610 0.841870 0.031899
v 1.796960 -0.615431 0.137299
v 1.795887 -0.402736 0.099899
v 1.796960 -0.615431 0.099899
v 1.643905 -0.616205 0.137099
v 1.796960 -0.615431 0.018299
v 1.643905 -0.616205 0.018299
v 1.642857 -0.403604 0.018799
v 1.643905 -0.616205 0.018799
v -2.316411 -0.515168 -0.476101
v -2.177876 -0.514467 -0.476101
v -2.177876 -0.514467 0.021499
v -2.316411 -0.515168 0.032999
v -2.317628 -0.278836 -0.476101
v -2.317628 -0.278836 0.033499
v -2.179080 -0.278181 0.021999
v -2.179080 -0.278181 -0.476101
v -0.521551 0.843497 0.007299
v -0.520814 0.687504 0.032599
v -0.521551 0.843497 0.039099
v -0.280199 0.844818 0.025199
v -0.521551 0.843497 -0.476101
v 0.801008 1.218443 -0.476101
v 0.801979 1.008448 -0.476101
v 0.801979 1.008448 0.031999
v 0.801008 1.218443 0.032199
v 1.885122 1.223820 0.030499
v 1.885122 1.223820 -0.476101
v 1.885418 1.166500 0.030499
v 1.885418 1.166500 -0.476101
v 0.705982 0.064276 0.117399
v 1.890609 0.069819 0.017199
v 1.890609 0.069819 0.120999
v 0.705982 0.064276 0.017199
v 0.600514 0.853530 0.065499
v 0.604348 0.063764 0.065499
v 0.604348 0.063764 0.116999
v 0.600514 0.853530 0.188399
v 0.599706 1.007483 -0.476101
v 0.599706 1.007483 0.202299
v 0.801979 1.008448 0.202899
v 1.886130 1.013683 0.030299
v 0.801979 1.008448 0.030299
v 1.886130 1.013683 0.206299
v -2.318252 -0.160219 -0.476101
v -2.179718 -0.159519 -0.476101
v -2.179718 -0.159519 0.030599
v -2.318252 -0.160219 0.035599
v -2.319363 0.058774 0.032899
v -2.319363 0.058774 -0.476101
v -2.180626 0.059478 0.027999
v -2.180626 0.059478 -0.476101
v -0.438057 0.058727 -0.003001
v -0.437519 -0.062637 0.789899
v -0.438057 0.058727 0.790099
v 0.112297 0.061345 0.063799
v 0.112297 0.061345 0.904999
v -0.366166 -6.339546 -0.476102
v -0.366166 -6.339546 0.790298
v 0.604348 0.063764 0.804999
v 0.112297 0.061345 0.064699
v 0.604348 0.063764 0.064699
v 0.705982 0.064276 0.784399
v 0.705982 0.064276 0.116999
v 0.713694 -1.535435 0.022799
v 0.705982 0.064276 0.022799
v 0.713694 -1.535435 0.786699
v 0.747407 -6.332552 -0.476102
v 0.747407 -6.332552 0.791398
v -2.179080 -0.278181 0.021499
v -2.177876 -0.514467 0.105699
v -2.179080 -0.278181 0.112199
v -2.179718 -0.159519 0.115399
v -2.179718 -0.159519 0.027999
v -2.180626 0.059478 0.121399
v -2.183307 0.585434 -0.476101
v -2.183307 0.585434 0.135799
v -1.611802 0.588249 0.137099
v -1.611454 0.506866 0.134899
v -1.611802 0.588249 0.031799
v -1.611454 0.506866 0.031799
v -1.611454 0.506866 0.030599
v -1.254237 -0.066677 0.119999
v -1.257107 0.508497 -0.005101
v -1.248655 -1.212574 0.088599
v -1.248655 -1.212574 -0.476101
v -2.174506 -1.217023 0.086499
v -2.174506 -1.217023 -0.476101
v -0.639163 0.843086 0.055999
v 1.891681 -0.115162 0.017199
v 1.890609 0.069819 0.163999
v 1.886130 1.013683 0.120999
v 1.886130 1.013683 0.252199
v 1.885418 1.166500 0.030299
v 1.885418 1.166500 0.266499
v 3.183292 1.172927 -0.476101
v 3.183292 1.172927 0.268599
v 3.192085 -0.600253 0.102999
v 3.192085 -0.600252 -0.476102
v 3.454448 -0.598973 -0.476102
v 3.454448 -0.598973 0.103399
v 3.458922 -1.522039 0.017099
v 3.458922 -1.522039 -0.476102
v 1.796960 -0.615431 0.016799
v -0.438809 0.183216 0.044599
v 1.891907 -0.195315 0.144899
v 1.643905 -0.616205 0.018999
v -1.257879 0.683867 0.031899
v 0.179165 -5.758937 0.905498
vt 0.000000 0.991000
vt 1.000000 0.000000
vt 1.000000 1.000000
vt 0.000000 0.000000
vt 0.000000 0.000000
vt 1.000000 0.000000
vt 1.000000 0.996000
vt 0.000000 1.000000
vt 0.351000 0.882000
vt 0.299000 0.963000
vt 0.229000 0.952000
vt 0.237000 0.975000
vt 0.204000 0.878000
vt 0.400000 0.942000
vt 0.360000 0.950000
vt 0.341000 0.851000
vt 0.346000 0.866000
vt 0.378000 0.877000
vt 0.340000 0.954000
vt 0.673000 0.736000
vt 0.699000 0.731000
vt 0.708000 0.758000
vt 0.686000 0.773000
vt 0.724000 0.755000
vt 0.728000 0.765000
vt 0.000000 0.000000
vt 1.000000 0.000000
vt 1.000000 0.998000
vt 0.000000 1.000000
vt 0.030000 0.851000
vt 0.000000 0.760000
vt 0.155000 0.730000
vt 0.170000 0.964000
vt 0.204000 0.878000
vt 0.055000 0.926000
vt 0.173000 0.975000
vt 0.078000 0.994000
vt 0.046000 0.897000
vt 0.040000 0.882000
vt 0.000000 0.000000
vt 1.000000 0.000000
vt 1.000000 1.000000
vt 1.000000 0.000000
vt 1.000000 1.000000
vt 0.000000 0.000000
vt 1.000000 0.000000
vt 1.000000 0.998000
vt 0.000000 1.000000
vt 0.000000 0.998000
vt 1.000000 0.000000
vt 1.000000 1.000000
vt 0.000000 0.000000
vt 0.000000 0.999000
vt 1.000000 0.000000
vt 1.000000 1.000000
vt 0.000000 0.000000
vt 0.000000 0.000000
vt 1.000000 0.000000
vt 1.000000 0.998000
vt 0.000000 1.000000
vt 0.046000 0.897000
vt 0.055000 0.926000
vt 0.032000 0.930000
vt 0.022000 0.902000
vt 0.000000 0.999000
vt 1.000000 0.000000
vt 1.000000 1.000000
vt 0.000000 0.000000
vt 0.000000 0.000000
vt 1.000000 0.000000
vt 1.000000 1.000000
vt 0.000000 1.000000
vt 0.000000 0.000000
vt 1.000000 0.000000
vt 0.000000 1.000000
vt 0.000000 0.000000
vt 1.000000 0.000000
vt 1.000000 0.995000
vt 0.000000 1.000000
vt 0.000000 0.970000
vt 1.000000 0.000000
vt 1.000000 1.000000
vt 0.000000 0.000000
vt 0.000000 0.000000
vt 1.000000 0.000000
vt 1.000000 0.970000
vt 0.000000 1.000000
vt 0.690000 0.704000
vt 0.664000 0.709000
vt 0.651000 0.585000
vt 0.673000 0.736000
vt 0.537000 0.828000
vt 0.469000 0.622000
vt 0.686000 0.773000
vt 0.728000 0.765000
vt 0.736000 0.789000
vt 0.340000 0.954000
vt 0.360000 0.950000
vt 0.367000 0.971000
vt 0.347000 0.974000
vt 0.000000 0.000000
vt 1.000000 0.000000
vt 1.000000 0.947000
vt 0.000000 1.000000
vt 0.000000 0.000000
vt 1.000000 0.000000
vt 1.000000 0.936000
vt 0.000000 1.000000
vt 0.000000 0.000000
vt 1.000000 0.000000
vt 1.000000 0.897000
vt 0.000000 1.000000
vt 0.000000 0.000000
vt 1.000000 0.000000
vt 1.000000 0.990000
vt 0.000000 1.000000
vt 0.000000 0.965000
vt 1.000000 0.000000
vt 1.000000 1.000000
vt 0.000000 0.000000
vt 0.000000 0.000000
vt 1.000000 0.000000
vt 1.000000 1.000000
vt 1.000000 0.000000
vt 1.000000 1.000000
vt 0.000000 0.997000
vt 1.000000 0.000000
vt 1.000000 1.000000
vt 0.000000 0.000000
vt 0.305000 0.983000
vt 0.340000 0.954000
vt 0.347000 0.974000
vt 0.299000 0.963000
vt 0.360000 0.950000
vt 0.400000 0.942000
vt 0.407000 0.963000
vt 0.264000 0.001000
vt 0.194000 0.094000
vt 0.078000 0.038000
vt 0.007000 0.856000
vt 0.040000 0.882000
vt 0.017000 0.886000
vt 0.030000 0.851000
vt 0.000000 0.000000
vt 1.000000 0.000000
vt 1.000000 0.940000
vt 0.000000 1.000000
vt 0.000000 0.851000
vt 1.000000 0.000000
vt 1.000000 1.000000
vt 0.000000 0.000000
vt 0.000000 0.000000
vt 1.000000 0.000000
vt 1.000000 1.000000
vt 0.000000 0.000000
vt 1.000000 0.000000
vt 0.000000 0.997000
vt 1.000000 0.000000
vt 1.000000 1.000000
vt 0.000000 0.000000
vt 0.000000 0.000000
vt 1.000000 0.000000
vt 1.000000 1.000000
vt 0.000000 1.000000
vt 0.000000 0.000000
vt 1.000000 0.000000
vt 1.000000 0.999000
vt 0.000000 1.000000
vt 0.000000 0.995000
vt 1.000000 0.000000
vt 1.000000 1.000000
vt 0.000000 0.000000
vt 0.000000 0.000000
vt 1.000000 0.000000
vt 1.000000 1.000000
vt 1.000000 0.000000
vt 1.000000 1.000000
vt 0.595000 0.947000
vt 0.776000 0.911000
vt 0.783000 0.931000
vt 0.785000 0.938000
vt 0.604000 0.974000
vt 0.438000 0.848000
vt 0.378000 0.877000
vt 0.351000 0.882000
vt 0.346000 0.866000
vt 0.520000 0.832000
vt 0.554000 0.934000
vt 0.407000 0.963000
vt 0.407000 0.963000
vt 0.000000 0.000000
vt 1.000000 0.000000
vt 1.000000 0.977000
vt 0.000000 1.000000
vt 1.000000 0.888000
vt 0.736000 0.789000
vt 0.924000 0.658000
vt 0.928000 0.530000
vt 0.690000 0.704000
vt 0.968000 0.650000
vt 0.699000 0.731000
vt 0.783000 0.931000
vt 0.776000 0.911000
vt 0.000000 0.000000
vt 1.000000 0.000000
vt 1.000000 0.999000
vt 0.000000 1.000000
vt 0.000000 0.968000
vt 1.000000 0.000000
vt 1.000000 1.000000
vt 0.000000 0.000000
vt 0.000000 0.000000
vt 1.000000 0.000000
vt 1.000000 0.929000
vt 0.000000 1.000000
vt 0.000000 0.000000
vt 1.000000 0.000000
vt 1.000000 0.863000
vt 0.000000 1.000000
vt 0.000000 0.983000
vt 1.000000 0.000000
vt 1.000000 1.000000
vt 0.000000 0.000000
vt 0.000000 0.000000
vt 1.000000 0.000000
vt 1.000000 0.997000
vt 0.000000 1.000000
vt 0.000000 0.913000
vt 1.000000 0.000000
vt 1.000000 1.000000
vt 0.000000 0.000000
vt 0.000000 0.000000
vt 1.000000 0.000000
vt 1.000000 0.328000
vt 0.000000 1.000000
vt 0.736000 0.789000
vt 0.776000 0.911000
vt 0.595000 0.947000
vt 0.561000 0.954000
vt 0.554000 0.934000
vt 0.537000 0.828000
vt 0.520000 0.832000
vt 0.000000 0.000000
vt 1.000000 0.000000
vt 1.000000 0.967000
vt 0.000000 1.000000
vt 0.000000 0.000000
vt 1.000000 0.000000
vt 1.000000 1.000000
vt 1.000000 0.000000
vt 1.000000 1.000000
vt 0.000000 0.991000
vt 1.000000 0.000000
vt 1.000000 1.000000
vt 0.000000 0.000000
vt 0.000000 0.000000
vt 1.000000 0.000000
vt 1.000000 0.996000
vt 0.000000 1.000000
vt 0.000000 0.977000
vt 1.000000 0.000000
vt 1.000000 1.000000
vt 0.000000 0.000000
vt 0.000000 0.000000
vt 1.000000 0.000000
vt 1.000000 0.824000
vt 0.000000 1.000000
vt 0.000000 0.778000
vt 1.000000 0.000000
vt 1.000000 1.000000
vt 0.000000 0.000000
vt 0.000000 0.973000
vt 1.000000 0.000000
vt 1.000000 1.000000
vt 0.000000 0.000000
vt 0.000000 0.990000
vt 1.000000 0.000000
vt 1.000000 1.000000
vt 0.000000 0.000000
vt 0.000000 0.000000
vt 1.000000 0.000000
vt 1.000000 0.419000
vt 0.000000 1.000000
vt 0.000000 0.000000
vt 1.000000 0.000000
vt 1.000000 0.981000
vt 0.000000 1.000000
vt 0.000000 1.000000
vt 1.000000 0.000000
vt 1.000000 1.000000
vt 0.000000 0.000000
vt 0.000000 0.000000
vt 1.000000 0.000000
vt 1.000000 0.999000
vt 0.000000 1.000000
vt 0.000000 0.998000
vt 1.000000 0.000000
vt 1.000000 1.000000
vt 0.000000 0.000000
vt 0.000000 0.000000
vt 1.000000 0.000000
vt 1.000000 0.897000
vt 0.000000 1.000000
vt 0.305000 0.983000
vt 0.237000 0.975000
vt 0.299000 0.963000
vt 0.224000 0.999000
vt 0.213000 0.967000
vt 0.229000 0.952000
vt 0.173000 0.975000
vt 0.170000 0.964000
vt 0.438000 0.848000
vt 0.469000 0.622000
vt 0.520000 0.832000
vt 0.537000 0.828000
vt 0.000000 0.000000
vt 1.000000 0.000000
vt 1.000000 1.000000
vt 0.000000 0.000000
vt 1.000000 0.000000
vt 0.000000 1.000000
vt 1.000000 0.000000
vt 1.000000 1.000000
vt 0.000000 0.000000
vt 0.000000 0.000000
vt 1.000000 0.000000
vt 1.000000 1.000000
vt 0.000000 0.000000
vt 0.000000 0.996000
vt 1.000000 0.000000
vt 1.000000 1.000000
vt 0.000000 0.000000
vt 0.000000 0.000000
vt 1.000000 0.000000
vt 1.000000 0.951000
vt 0.000000 1.000000
vt 0.000000 0.881000
vt 1.000000 0.000000
vt 1.000000 1.000000
vt 0.000000 0.000000
vt 0.664000 0.709000
vt 0.690000 0.704000
vt 0.000000 0.000000
vt 1.000000 0.000000
vt 1.000000 0.985000
vt 0.000000 1.000000
vt 0.000000 0.000000
vt 1.000000 0.350000
vt 0.000000 1.000000
vt 0.000000 0.000000
vt 1.000000 0.000000
vt 1.000000 1.000000
vt 0.000000 0.000000
vt 1.000000 0.000000
vt 0.000000 0.000000
vt 1.000000 0.000000
vt 1.000000 0.997000
vt 0.000000 1.000000
vt 0.341000 0.851000
vt 0.346000 0.866000
vt 0.000000 0.000000
vt 1.000000 0.000000
vt 1.000000 0.979000
vt 0.000000 1.000000
vt 0.000000 0.996000
vt 1.000000 0.000000
vt 1.000000 1.000000
vt 0.000000 0.000000
vt 0.000000 0.888000
vt 1.000000 0.000000
vt 1.000000 1.000000
vt 0.000000 0.000000
vt 0.000000 0.868000
vt 1.000000 0.000000
vt 1.000000 1.000000
vt 0.000000 0.000000
vt 0.000000 0.000000
vt 1.000000 0.000000
vt 1.000000 0.976000
vt 0.000000 1.000000
vt 0.000000 0.894000
vt 1.000000 0.000000
vt 1.000000 1.000000
vt 0.000000 0.000000
vt 0.000000 0.947000
vt 1.000000 0.000000
vt 1.000000 1.000000
vt 0.000000 0.000000
vn -0.0049 1.0000 0.0000
vn -1.0000 -0.0055 -0.0000
vn 0.0420 -0.1274 0.9910
vn 0.0332 -0.1092 0.9935
vn 0.0061 -0.2143 0.9768
vn 0.0424 -0.1834 0.9821
vn -0.0016 -0.1901 0.9818
vn -0.0014 -0.1702 0.9854
vn -0.0016 -0.1905 0.9817
vn -0.0532 -0.2098 0.9763
vn -0.0026 -0.0024 1.0000
vn 0.0248 -0.0225 0.9994
vn -0.0029 -0.0499 0.9988
vn 0.0055 -0.0599 0.9982
vn -0.0047 1.0000 0.0000
vn -0.0021 -0.0273 0.9996
vn 0.0389 -0.0017 0.9992
vn -0.0022 -0.0274 0.9996
vn -0.0022 -0.0273 0.9996
vn -0.0021 -0.0270 0.9996
vn -0.0023 -0.0270 0.9996
vn -0.0021 -0.0275 0.9996
vn 1.0000 0.0043 0.0000
vn -0.0050 1.0000 0.0000
vn 0.0063 -1.0000 0.0000
vn 0.0352 0.0120 0.9993
vn 0.0360 0.0125 0.9993
vn 0.0049 -1.0000 -0.0000
vn -1.0000 -0.0044 -0.0000
vn -1.0000 -0.0047 0.0000
vn -1.0000 -0.0054 -0.0000
vn -1.0000 -0.0037 0.0000
vn 0.0046 -0.0016 1.0000
vn 0.0048 0.0010 1.0000
vn 0.0047 0.0010 1.0000
vn 0.0069 -0.0012 1.0000
vn 0.0046 0.0007 1.0000
vn 0.0048 0.0011 1.0000
vn 0.0047 0.0012 1.0000
vn 0.0955 -0.1984 0.9755
vn 0.1392 -0.2294 0.9633
vn -1.0000 -0.0049 0.0000
vn -1.0000 -0.0041 -0.0000
vn -1.0000 -0.0058 -0.0000
vn 0.0051 -1.0000 -0.0000
vn 0.0047 -1.0000 -0.0000
vn 0.0224 0.9997 0.0000
vn 0.0387 0.0577 0.9976
vn -0.0051 1.0000 0.0000
vn 0.0344 -0.0056 0.9994
vn 0.0577 -0.0413 0.9975
vn 0.0003 -0.1948 0.9808
vn 0.0827 -0.0017 0.9966
vn 1.0000 0.0048 0.0000
vn -1.0000 -0.0060 -0.0000
vn -1.0000 -0.0046 0.0000
vn -1.0000 -0.0051 -0.0000
vn 0.0016 -0.0013 1.0000
vn 0.0016 0.0000 1.0000
vn 0.0015 -0.0009 1.0000
vn -0.0076 -0.1115 0.9937
vn -0.0014 -0.0904 0.9959
vn -0.0012 -0.0905 0.9959
vn -0.0012 -0.0907 0.9959
vn 0.0127 -0.0990 0.9950
vn -0.0013 -0.0906 0.9959
vn -0.0019 -0.0211 0.9998
vn -0.0012 -0.0930 0.9957
vn 0.0048 -0.0813 0.9967
vn 0.0167 -0.0498 0.9986
vn 0.0003 -0.0927 0.9957
vn -0.0011 -0.0931 0.9957
vn -0.0583 -0.0933 0.9939
vn -0.0011 -0.0932 0.9956
vn -0.0011 -0.1063 0.9943
vn -0.0026 -0.1190 0.9929
vn -0.0035 1.0000 0.0000
vn -0.0048 1.0000 0.0000
vn -0.0027 -0.0900 0.9959
vn -0.0025 -0.0899 0.9959
vn -0.0035 -0.0901 0.9959
vn -0.0026 -0.0899 0.9959
vn -1.0000 -0.0048 -0.0000
vn 1.0000 0.0050 0.0000
vn 1.0000 0.0070 -0.0000
vn -0.0055 1.0000 0.0000
vn 1.0000 0.0052 0.0000
vn 0.0033 -0.0077 1.0000
vn 0.0033 -0.0078 1.0000
vn 0.0036 -0.0076 1.0000
vn 0.0034 -0.0074 1.0000
vn 0.1991 0.0024 0.9800
vn 0.1986 0.0024 0.9801
vn 0.1992 0.0024 0.9800
vn -0.9999 -0.0114 0.0000
vn -0.9995 -0.0331 -0.0000
vn 0.0048 -1.0000 0.0000
vn -1.0000 -0.0050 0.0000
vn -0.0011 -0.0310 0.9995
vn -0.0024 -0.0320 0.9995
vn -0.2044 -0.0023 0.9789
vn -0.2044 -0.0025 0.9789
vn -1.0000 -0.0053 -0.0000
vn -0.0046 1.0000 0.0000
vn 1.0000 0.0049 0.0000
usemtl noname3355
s off
f 40/1/1 41/2/1 39/3/1
f 40/1/1 42/4/1 41/2/1
usemtl noname3362
f 63/5/2 62/6/2 59/7/2
f 64/8/2 63/5/2 59/7/2
usemtl noname3413
f 169/9/3 22/10/3 20/11/3
f 22/10/4 21/12/4 20/11/4
f 169/9/5 20/11/5 32/13/5
f 169/9/6 4/14/6 30/15/6
f 32/13/7 34/16/7 14/17/7
f 169/9/7 32/13/7 14/17/7
f 2/18/8 4/14/8 169/9/8
f 169/9/9 30/15/9 27/19/9
f 169/9/10 27/19/10 22/10/10
usemtl noname3414
f 38/20/11 43/21/11 45/22/11
f 39/23/12 38/20/12 45/22/12
f 170/24/13 40/25/13 45/22/13
f 40/25/14 39/23/14 45/22/14
usemtl noname3351
f 28/26/15 29/27/15 27/28/15
f 30/29/15 28/26/15 27/28/15
usemtl noname3426
f 135/30/16 151/31/16 149/32/16
f 20/11/17 143/33/17 147/34/17
f 147/34/18 135/30/18 149/32/18
f 143/33/19 139/35/19 147/34/19
f 142/36/20 141/37/20 143/33/20
f 141/37/18 139/35/18 143/33/18
f 137/38/21 136/39/21 147/34/21
f 136/39/22 135/30/22 147/34/22
f 139/35/18 137/38/18 147/34/18
usemtl noname3395
f 143/40/23 144/41/23 142/42/23
f 143/40/23 145/43/23 144/44/23
usemtl noname3394
f 60/45/1 140/46/1 141/47/1
f 142/48/1 60/45/1 141/47/1
usemtl noname3361
f 59/49/24 60/50/24 61/51/24
f 59/49/24 62/52/24 60/50/24
usemtl noname3402
f 123/53/25 132/54/25 133/55/25
f 123/53/25 122/56/25 132/54/25
usemtl noname3345
f 11/57/1 8/58/1 10/59/1
f 12/60/1 11/57/1 10/59/1
usemtl noname3423
f 111/61/26 115/62/26 113/63/26
f 112/64/27 111/61/27 113/63/27
usemtl noname3410
f 49/65/28 167/66/28 166/67/28
f 49/65/28 48/68/28 167/66/28
usemtl noname3383
f 117/69/29 34/70/29 118/71/29
f 119/72/29 117/69/29 118/71/29
usemtl noname3411
f 168/73/30 49/74/30 68/75/30
usemtl noname3391
f 110/76/31 81/77/31 136/78/31
f 137/79/31 110/76/31 136/78/31
usemtl noname3387
f 127/80/24 101/81/24 124/82/24
f 127/80/24 128/83/24 101/81/24
usemtl noname3343
f 5/84/32 6/85/32 4/86/32
f 7/87/32 5/84/32 4/86/32
usemtl noname3415
f 70/88/33 171/89/33 49/90/33
f 72/91/34 130/92/34 171/89/34
f 171/89/35 130/92/35 50/93/35
f 49/90/36 171/89/36 50/93/36
f 36/94/37 130/92/37 72/91/37
f 42/95/38 96/96/38 36/94/38
f 96/96/39 130/92/39 36/94/39
usemtl noname3427
f 57/97/40 28/98/40 84/99/40
f 153/100/41 57/97/41 84/99/41
usemtl noname3366
f 72/101/42 73/102/42 69/103/42
f 38/104/42 72/101/42 69/103/42
usemtl noname3392
f 115/105/43 138/106/43 137/107/43
f 139/108/43 115/105/43 137/107/43
usemtl noname3403
f 96/109/44 154/110/44 40/111/44
f 155/112/44 96/109/44 40/111/44
usemtl noname3380
f 109/113/45 110/114/45 111/115/45
f 112/116/45 109/113/45 111/115/45
usemtl noname3375
f 95/117/46 96/118/46 97/119/46
f 95/117/46 98/120/46 96/118/46
usemtl noname3347
f 3/121/47 17/122/47 16/123/47
f 3/121/47 2/124/47 17/125/47
usemtl noname3373
f 91/126/24 87/127/24 90/128/24
f 91/126/24 92/129/24 87/127/24
usemtl noname3416
f 51/130/48 25/131/48 54/132/48
f 52/133/49 22/10/49 25/131/49
f 51/130/48 52/133/48 25/131/48
usemtl noname3420
f 83/134/50 6/135/50 85/136/50
f 84/99/51 83/134/51 85/136/51
usemtl noname3428
f 133/137/52 173/138/52 123/139/52
usemtl noname3419
f 77/140/53 80/141/53 79/142/53
f 77/140/53 76/143/53 80/141/53
usemtl noname3405
f 158/144/30 106/145/30 157/146/30
f 159/147/30 158/144/30 157/146/30
usemtl noname3409
f 166/148/54 164/149/54 165/150/54
f 166/148/54 167/151/54 164/149/54
usemtl noname3346
f 13/152/55 14/153/55 15/154/55
f 16/155/55 13/156/55 15/154/55
usemtl noname3363
f 65/157/1 63/158/1 64/159/1
f 65/157/1 55/160/1 63/158/1
usemtl noname3372
f 87/161/56 88/162/56 89/163/56
f 90/164/56 87/161/56 89/163/56
usemtl noname3408
f 164/165/1 163/166/1 162/167/1
f 165/168/1 164/165/1 162/167/1
usemtl noname3381
f 113/169/57 109/170/57 112/171/57
f 113/169/57 114/172/57 109/170/57
usemtl noname3356
f 43/173/54 44/174/54 45/175/54
f 43/173/54 46/176/54 44/177/54
usemtl noname3421
f 89/178/58 106/179/58 93/180/58
f 91/181/59 90/182/59 93/180/59
f 93/180/60 90/182/60 89/178/60
usemtl noname3412
f 125/183/61 4/14/61 3/184/61
f 3/184/62 16/185/62 15/186/62
f 100/187/63 12/188/63 125/183/63
f 125/183/64 3/184/64 15/186/64
f 12/188/65 4/14/65 125/183/65
f 12/188/66 10/189/66 7/190/66
f 12/188/67 7/190/67 4/14/67
usemtl noname3367
f 74/191/45 75/192/45 76/193/45
f 77/194/45 74/191/45 76/193/45
usemtl noname3429
f 161/195/68 155/196/68 162/197/68
f 155/196/69 40/25/69 162/197/69
f 40/25/70 170/24/70 162/197/70
f 162/197/71 49/90/71 166/198/71
f 162/197/63 68/199/63 49/90/63
f 165/200/72 162/197/72 166/198/72
f 46/201/73 68/199/73 170/24/73
f 161/195/74 159/202/74 157/203/74
f 170/24/75 68/199/75 162/197/75
f 45/22/76 46/201/76 170/24/76
f 161/195/68 157/203/68 155/196/68
usemtl noname3368
f 78/204/57 74/205/57 77/206/57
f 79/207/57 78/204/57 77/206/57
usemtl noname3401
f 84/208/77 56/209/77 153/210/77
f 84/208/77 86/211/77 56/209/77
usemtl noname3390
f 134/212/57 76/213/57 135/214/57
f 136/215/57 134/212/57 135/214/57
usemtl noname3384
f 120/216/78 15/217/78 119/218/78
f 121/219/78 120/216/78 119/218/78
usemtl noname3359
f 54/220/1 55/221/1 51/222/1
f 54/220/1 56/223/1 55/221/1
usemtl noname3406
f 160/224/24 94/225/24 159/226/24
f 161/227/24 160/224/24 159/226/24
usemtl noname3352
f 4/228/15 31/229/15 30/230/15
f 4/228/15 6/231/15 31/229/15
usemtl noname3404
f 156/232/30 97/233/30 155/234/30
f 157/235/30 156/232/30 155/234/30
usemtl noname3422
f 97/236/79 108/237/79 105/238/79
f 104/239/80 102/240/80 105/238/80
f 95/241/81 102/240/81 101/242/81
f 105/238/82 95/241/82 97/236/82
f 105/238/80 102/240/80 95/241/80
usemtl noname3400
f 75/243/83 152/244/83 151/245/83
f 135/246/83 75/243/83 151/245/83
usemtl noname3364
f 66/247/84 67/248/84 43/249/84
f 66/247/84 68/250/84 67/251/84
usemtl noname3397
f 147/252/84 148/253/84 20/254/84
f 147/252/84 32/255/84 148/253/84
usemtl noname3389
f 132/256/85 47/257/85 131/258/85
f 133/259/85 132/256/85 131/258/85
usemtl noname3369
f 80/260/15 78/261/15 79/262/15
f 80/260/15 81/263/15 78/261/15
usemtl noname3348
f 18/264/29 19/265/29 20/266/29
f 21/267/29 18/264/29 20/266/29
usemtl noname3407
f 162/268/84 160/269/84 161/270/84
f 162/268/84 163/271/84 160/269/84
usemtl noname3371
f 85/272/86 86/273/86 84/274/86
f 85/272/86 9/275/86 86/273/86
usemtl noname3382
f 115/276/49 114/277/49 113/278/49
f 115/276/49 116/279/49 114/277/49
usemtl noname3376
f 99/280/42 100/281/42 101/282/42
f 102/283/42 99/280/42 101/282/42
usemtl noname3379
f 106/284/78 107/285/78 105/286/78
f 108/287/78 106/284/78 105/286/78
usemtl noname3374
f 93/288/87 92/289/87 91/290/87
f 93/288/87 94/291/87 92/289/87
usemtl noname3378
f 88/292/78 103/293/78 104/294/78
f 105/295/78 88/292/78 104/294/78
usemtl noname3365
f 69/296/45 70/297/45 66/298/45
f 69/296/45 71/299/45 70/297/45
usemtl noname3360
f 57/300/84 58/301/84 54/302/84
f 25/303/84 57/300/84 54/302/84
usemtl noname3417
f 65/304/88 172/305/88 24/306/88
f 64/307/89 172/305/89 65/304/89
f 59/308/90 172/305/90 64/307/90
f 59/308/91 19/309/91 172/305/91
f 61/310/91 145/311/91 59/308/91
f 145/311/91 19/309/91 59/308/91
usemtl noname3425
f 121/312/92 131/313/92 124/314/92
f 124/314/93 131/313/93 127/315/93
f 173/138/92 131/313/92 121/312/92
f 133/137/94 131/313/94 173/138/94
usemtl noname3370
f 82/316/30 28/317/30 83/318/30
f 84/319/30 82/320/30 83/318/30
usemtl noname3385
f 118/321/95 122/322/95 123/323/95
f 118/321/95 33/324/95 122/322/95
usemtl noname3344
f 8/325/96 9/326/96 7/327/96
f 10/328/96 8/58/96 7/327/96
usemtl noname3399
f 151/329/97 150/330/97 149/331/97
f 151/329/97 152/332/97 150/330/97
usemtl noname3354
f 36/333/98 37/334/98 38/335/98
f 39/336/98 36/333/98 38/335/98
usemtl noname3386
f 124/337/1 125/338/1 121/339/1
f 124/337/1 126/340/1 125/338/1
usemtl noname3418
f 38/20/99 69/341/99 66/342/99
f 43/21/100 38/20/100 66/342/100
usemtl noname3357
f 47/343/97 48/344/97 49/345/97
f 50/346/97 47/343/97 49/345/97
usemtl noname3342
f 1/347/42 2/124/42 3/348/42
f 4/349/42 1/347/42 3/348/42
usemtl noname3350
f 25/350/49 26/351/49 22/352/49
f 27/353/49 25/354/49 22/352/49
usemtl noname3388
f 129/355/54 130/356/54 127/357/54
f 131/358/54 129/355/54 127/357/54
usemtl noname3424
f 118/359/101 123/139/101 173/138/101
f 119/360/102 118/359/102 121/312/102
f 121/312/101 118/359/101 173/138/101
usemtl noname3377
f 103/361/103 11/362/103 102/363/103
f 104/364/103 103/361/103 102/363/103
usemtl noname3353
f 32/365/28 33/366/28 34/367/28
f 32/365/28 35/368/28 33/366/28
usemtl noname3349
f 22/369/1 23/370/1 21/371/1
f 22/369/1 24/372/1 23/370/1
usemtl noname3396
f 20/373/104 146/374/104 143/375/104
f 20/373/104 19/376/104 146/374/104
usemtl noname3393
f 140/377/57 116/378/57 139/379/57
f 141/380/57 140/377/57 139/379/57
usemtl noname3358
f 51/381/98 24/382/98 52/383/98
f 51/381/98 53/384/98 24/382/98
usemtl noname3398
f 149/385/105 35/386/105 147/387/105
f 149/385/105 150/388/105 35/386/105
