# Blender v2.79 (sub 0) OBJ File: ''
# www.blender.org
mtllib talo_Build0000036.mtl
o talo_Build0000036
v -2.859489 2.170967 -0.564542
v -2.861161 0.817626 -1.087042
v -2.861161 0.817625 -0.376542
v -2.858242 3.300519 -0.724642
v -2.858242 3.300519 -1.087042
v 1.041155 -0.418643 0.931358
v 1.330928 -0.132675 0.931158
v 1.330928 -0.132675 1.158858
v 1.041155 -0.418643 1.161157
v 0.771826 -0.145687 1.156857
v 0.771826 -0.145687 0.930658
v 1.061598 0.140283 1.154658
v 1.061598 0.140283 0.930458
v 0.281254 -0.565262 0.943958
v -0.033570 -0.875891 0.943958
v -0.033570 -0.875891 1.153258
v 0.281254 -0.565262 1.155157
v 0.577472 -0.865497 1.159157
v 0.577472 -0.865497 0.931657
v 0.262647 -1.176127 1.157257
v 0.262647 -1.176127 0.931857
v 2.089487 0.461384 0.279557
v 2.088897 0.461323 0.279557
v 2.088897 0.461323 0.452957
v 2.089487 0.461384 0.452957
v -0.543041 -0.746679 0.930257
v -0.544514 -1.970286 0.596757
v -0.544514 -1.970286 0.932357
v -0.543041 -0.746679 0.593157
v 0.895284 0.680240 -0.378742
v -0.543041 -0.746679 -0.380843
v 0.895284 0.680239 0.929358
v 1.860160 0.679061 0.606357
v 0.895284 0.680239 0.596757
v 1.860160 0.679061 0.930357
v 1.856714 0.032704 0.607858
v 1.856714 0.032704 0.931358
v -0.142497 -1.939593 0.932657
v -0.142497 -1.939593 0.592957
v -0.142497 -1.939593 0.280557
v -0.544514 -1.970286 0.280857
v 2.089721 0.631014 0.447157
v 2.089721 0.631014 0.279657
v -1.995992 -0.965925 0.594957
v -1.997300 -1.968495 -1.087043
v -1.997300 -1.968495 0.597957
v -1.995992 -0.965925 -1.087042
v -1.995842 -0.742613 0.594357
v -1.995992 -0.965925 -0.380743
v -1.995842 -0.742613 -0.380142
v -1.226799 -0.747323 0.593657
v -1.226799 -0.747323 -0.380543
v -0.889574 -0.746273 0.593458
v -0.889574 -0.746273 -0.380643
v -1.997300 -1.968495 0.279857
v -2.622021 -0.965177 -0.381042
v -2.622021 -0.965177 -1.087042
v -2.621788 -0.749586 -1.087042
v -2.621788 -0.749587 -0.380643
v -2.919516 -0.749213 -1.087042
v -2.919516 -0.749213 -0.380643
v -2.918178 0.375554 -1.087042
v -2.918178 0.375553 -0.377742
v -2.513574 2.170595 -0.561042
v -2.515217 0.817159 -0.376142
v -2.513574 2.170595 -0.374642
v -2.512326 3.300147 -0.372542
v -2.512326 3.300147 -0.723142
v -2.858242 3.300519 -0.372342
v -2.856944 4.400978 -1.087041
v -2.856944 4.400978 -0.370342
v 0.899830 4.396551 -0.371942
v 0.899830 4.396551 -1.087042
v -1.997875 -2.542344 -1.087043
v -1.997875 -2.542344 0.288757
v 0.232898 -2.554906 -1.087043
v 0.233614 -1.971197 -1.087043
v 0.233614 -1.971197 0.281357
v 0.232898 -2.554906 0.290457
v 0.107522 -2.554732 0.290357
v 0.107522 -2.554732 -1.087043
v 0.107475 -2.544922 0.290157
v 0.107475 -2.544922 -1.087043
v -1.222981 -2.543279 0.289257
v -1.222981 -2.543279 -1.087043
v -1.222981 -2.543279 -0.568343
v -1.997875 -2.542344 -0.568543
v 0.899830 4.396551 0.587858
v 2.094193 4.395038 -1.087042
v 2.094193 4.395038 0.599558
v 2.093280 3.539263 -1.087042
v 2.093280 3.539263 0.601658
v 2.093280 3.539263 0.282058
v 2.089721 0.631014 0.608657
v 2.089623 0.499434 0.451657
v 2.089623 0.499434 0.609057
v 2.089487 0.461384 0.609157
v 2.088844 -0.124074 0.279057
v 2.088844 -0.124074 0.610557
v 1.003300 -1.202914 0.602457
v 2.088844 -0.124074 -1.087042
v 1.003300 -1.202914 -1.087043
v 0.622119 -1.594534 0.599657
v 0.622119 -1.594534 -1.087043
v 0.233614 -1.971197 0.596757
v -2.921636 -2.541222 -0.568743
v -2.922198 -2.992068 -1.087043
v -2.922198 -2.992068 -0.557143
v -2.921636 -2.541221 -1.087043
v -1.223556 -2.994076 -1.087043
v -1.223556 -2.994076 -0.556743
v 2.694198 3.538541 -1.087042
v 2.694198 3.538540 0.289158
v 2.613653 -0.038885 0.285257
v 2.613653 -0.038885 -1.087042
v 2.613405 -0.124699 0.285257
v 2.613405 -0.124699 -1.087042
v 2.515980 -0.144577 0.284057
v 2.515980 -0.144577 -1.087042
v 2.515948 -0.139271 0.284057
v 2.515948 -0.139271 -1.087042
v 2.315223 -0.138975 0.281657
v 2.315223 -0.138975 -1.087042
v 2.315273 -0.124333 -1.087042
v 2.315273 -0.124334 0.281757
v -0.547435 -1.038216 0.930758
v -0.375009 -1.212872 0.943857
v -0.547435 -1.038216 0.963058
v 0.387334 -0.116015 0.930158
v 0.387334 -0.116015 0.964057
v 0.559572 -0.290723 0.944058
v -0.978476 4.398838 -0.371142
v 0.897557 2.538395 -0.375342
v 0.897557 2.538395 0.592258
v 2.091400 2.085137 0.280858
v 2.653925 1.749828 0.287158
v 2.653925 1.749828 -1.087042
v -2.859489 2.170968 -1.087042
v -0.978476 4.398838 -1.087042
vt 0.000000 0.000000
vt 1.000000 0.000000
vt 1.000000 0.997000
vt 0.000000 1.000000
vt 0.000000 0.000000
vt 1.000000 0.000000
vt 1.000000 1.000000
vt 0.523000 0.258000
vt 0.570000 0.283000
vt 0.553000 0.311000
vt 0.469000 0.229000
vt 0.393000 0.226000
vt 0.410000 0.198000
vt 0.806000 0.331000
vt 0.804000 0.326000
vt 0.804000 0.326000
vt 0.000000 0.000000
vt 1.000000 0.018000
vt 1.000000 0.971000
vt 0.000000 1.000000
vt 0.000000 0.000000
vt 1.000000 0.000000
vt 1.000000 0.991000
vt 0.000000 1.000000
vt 0.000000 0.967000
vt 1.000000 0.000000
vt 1.000000 1.000000
vt 0.000000 0.001000
vt 0.469000 0.229000
vt 0.498000 0.181000
vt 0.551000 0.209000
vt 0.523000 0.258000
vt 0.000000 1.000000
vt 1.000000 0.000000
vt 1.000000 1.000000
vt 0.000000 0.000000
vt 0.000000 0.999000
vt 1.000000 0.000000
vt 1.000000 1.000000
vt 0.000000 0.001000
vt 0.000000 0.054000
vt 1.000000 0.000000
vt 1.000000 1.000000
vt 0.000000 0.982000
vt 0.840000 0.234000
vt 0.853000 0.233000
vt 0.857000 0.244000
vt 0.804000 0.326000
vt 0.783000 0.251000
vt 0.813000 0.243000
vt 0.813000 0.241000
vt 0.864000 0.533000
vt 0.999000 0.697000
vt 0.918000 0.718000
vt 0.840000 0.234000
vt 0.928000 0.470000
vt 0.811000 0.347000
vt 0.804000 0.326000
vt 0.000000 0.003000
vt 1.000000 0.000000
vt 1.000000 0.982000
vt 0.000000 1.000000
vt 0.000000 0.998000
vt 1.000000 0.000000
vt 1.000000 1.000000
vt 0.000000 0.000000
vt 0.000000 1.000000
vt 1.000000 0.462000
vt 1.000000 0.994000
vt 0.000000 0.000000
vt 0.000000 0.999000
vt 1.000000 0.000000
vt 1.000000 1.000000
vt 0.000000 0.000000
vt 0.000000 0.998000
vt 1.000000 0.000000
vt 1.000000 1.000000
vt 0.000000 0.000000
vt 0.000000 0.999000
vt 1.000000 0.000000
vt 1.000000 1.000000
vt 0.000000 0.000000
vt 0.000000 0.001000
vt 1.000000 0.000000
vt 1.000000 0.990000
vt 0.000000 1.000000
vt 0.288000 0.848000
vt 0.536000 0.934000
vt 0.282000 1.000000
vt 0.241000 0.860000
vt 0.209000 0.314000
vt 0.312000 0.287000
vt 0.196000 0.531000
vt 0.246000 0.704000
vt 0.358000 0.275000
vt 0.126000 0.489000
vt 0.150000 0.543000
vt 0.124000 0.335000
vt 0.084000 0.346000
vt 0.201000 0.286000
vt 0.116000 0.308000
vt 0.651000 0.395000
vt 0.405000 0.263000
vt 0.720000 0.632000
vt 0.789000 0.869000
vt 0.000000 0.028000
vt 1.000000 0.000000
vt 1.000000 0.998000
vt 0.000000 1.000000
vt 0.928000 0.470000
vt 0.789000 0.869000
vt 0.918000 0.718000
vt 0.200000 0.716000
vt 0.536000 0.934000
vt 0.950000 0.827000
vt 0.999000 0.697000
vt 0.783000 0.251000
vt 0.857000 0.244000
vt 0.813000 0.243000
vt 0.853000 0.233000
vt 0.840000 0.234000
vt 0.230000 0.001000
vt 0.001000 0.060000
vt 0.142000 0.085000
vt 0.201000 0.286000
vt 0.531000 0.115000
vt 0.464000 0.080000
vt 0.247000 0.058000
vt 0.018000 0.117000
vt 0.596000 0.151000
vt 0.124000 0.335000
vt 0.084000 0.346000
vt 0.126000 0.489000
vt 0.150000 0.543000
vt 0.241000 0.860000
vt 0.282000 1.000000
vt 0.163000 0.158000
vt 0.840000 0.234000
vt 0.426000 0.012000
vt 0.813000 0.241000
vt 0.443000 0.006000
vt 0.426000 0.010000
vt 0.116000 0.308000
vt 0.000000 0.000000
vt 1.000000 0.000000
vt 1.000000 0.993000
vt 0.000000 1.000000
vt 0.000000 0.995000
vt 1.000000 0.000000
vt 1.000000 1.000000
vt 0.000000 0.000000
vt 0.415000 0.097000
vt 0.464000 0.080000
vt 0.531000 0.115000
vt 0.757000 0.279000
vt 0.804000 0.326000
vt 0.781000 0.361000
vt 0.806000 0.331000
vt 0.811000 0.347000
vt 0.918000 0.718000
vt 0.720000 0.632000
vt 0.789000 0.869000
vt 0.950000 0.827000
vt 0.651000 0.395000
vt 0.783000 0.251000
vt 0.596000 0.151000
vt 0.000000 0.992000
vt 1.000000 0.000000
vt 1.000000 1.000000
vt 0.000000 0.001000
vt 0.000000 0.998000
vt 1.000000 0.000000
vt 1.000000 1.000000
vt 0.000000 0.000000
vt 0.455000 0.735000
vt 1.000000 0.000000
vt 1.000000 1.000000
vt 0.000000 0.510000
vt 0.000000 0.000000
vt 0.000000 1.000000
vt 1.000000 0.000000
vt 1.000000 1.000000
vt 0.000000 0.000000
vt 0.000000 0.002000
vt 1.000000 0.000000
vt 1.000000 1.000000
vt 0.000000 0.999000
vt 0.246000 0.704000
vt 0.200000 0.716000
vt 0.000000 0.981000
vt 1.000000 0.003000
vt 1.000000 1.000000
vt 0.000000 0.000000
vt 0.142000 0.085000
vt 0.230000 0.001000
vt 0.247000 0.058000
vt 0.018000 0.117000
vt 0.001000 0.060000
vt 0.000000 0.999000
vt 1.000000 0.000000
vt 1.000000 1.000000
vt 0.000000 0.000000
vt 0.000000 0.000000
vt 1.000000 0.000000
vt 1.000000 1.000000
vt 1.000000 1.000000
vt 0.000000 0.000000
vt 1.000000 0.000000
vt 1.000000 1.000000
vt 0.000000 1.000000
vt 0.000000 0.994000
vt 1.000000 0.000000
vt 1.000000 1.000000
vt 0.000000 0.000000
vt 0.000000 0.998000
vt 1.000000 0.000000
vt 1.000000 1.000000
vt 0.000000 0.000000
vt 0.000000 1.000000
vt 1.000000 0.000000
vt 1.000000 1.000000
vt 0.000000 0.000000
vt 0.000000 0.994000
vt 1.000000 0.011000
vt 1.000000 1.000000
vt 0.000000 0.000000
vt 0.288000 0.848000
vt 0.241000 0.860000
vt 0.000000 0.000000
vt 1.000000 0.000000
vt 1.000000 1.000000
vt 0.000000 1.000000
vt 0.000000 1.000000
vt 1.000000 0.044000
vt 1.000000 0.996000
vt 0.000000 0.000000
vt 0.000000 0.991000
vt 1.000000 0.000000
vt 1.000000 1.000000
vt 0.000000 0.007000
vt 0.680000 0.276000
vt 0.654000 0.321000
vt 0.604000 0.294000
vt 0.630000 0.250000
vt 0.000000 1.000000
vt 1.000000 0.054000
vt 1.000000 0.982000
vt 0.000000 0.000000
vt 0.000000 0.000000
vt 1.000000 0.000000
vt 1.000000 0.996000
vt 0.000000 1.000000
vt 0.000000 0.998000
vt 1.000000 0.000000
vt 1.000000 1.000000
vt 0.000000 0.000000
vt 0.000000 0.000000
vt 1.000000 0.000000
vt 1.000000 1.000000
vt 1.000000 0.000000
vt 1.000000 1.000000
vt 0.000000 0.000000
vt 1.000000 0.000000
vt 1.000000 0.999000
vt 0.000000 1.000000
vt 0.000000 0.000000
vt 1.000000 0.992000
vt 0.000000 1.000000
vt 0.000000 1.000000
vt 1.000000 0.000000
vt 1.000000 1.000000
vt 0.000000 0.000000
vt 0.000000 0.000000
vt 1.000000 0.000000
vt 1.000000 0.999000
vt 0.000000 1.000000
vt 0.000000 0.990000
vt 1.000000 0.001000
vt 1.000000 1.000000
vt 0.000000 0.000000
vt 0.000000 1.000000
vt 1.000000 0.004000
vt 1.000000 1.000000
vt 0.000000 0.000000
vt 0.000000 0.978000
vt 1.000000 0.000000
vt 1.000000 1.000000
vt 0.000000 0.000000
vt 0.000000 1.000000
vt 1.000000 0.000000
vt 1.000000 1.000000
vt 0.000000 0.000000
vt 0.000000 0.000000
vt 1.000000 0.000000
vt 1.000000 0.978000
vt 0.000000 1.000000
vt 0.000000 0.999000
vt 1.000000 1.000000
vt 0.000000 0.000000
vt 0.000000 0.000000
vt 0.000000 0.000000
vt 1.000000 0.000000
vt 0.000000 0.998000
vt 1.000000 0.000000
vt 1.000000 1.000000
vt 0.000000 0.000000
vt 0.000000 0.000000
vt 1.000000 0.000000
vt 1.000000 0.993000
vt 0.000000 1.000000
vt 0.358000 0.275000
vt 0.359000 0.108000
vt 0.405000 0.263000
vt 0.312000 0.287000
vt 0.163000 0.158000
vt 0.201000 0.286000
vt 0.209000 0.314000
vt 0.000000 0.000000
vt 1.000000 0.000000
vt 1.000000 1.000000
vt 0.553000 0.311000
vt 0.393000 0.226000
vt 0.498000 0.181000
vt 0.551000 0.209000
vt 1.000000 0.000000
vt 1.000000 1.000000
vt 0.000000 0.000000
vt 1.000000 0.000000
vt 0.000000 0.988000
vt 1.000000 0.003000
vt 1.000000 1.000000
vt 0.000000 0.000000
vt 0.000000 1.000000
vt 1.000000 0.000000
vt 1.000000 1.000000
vt 0.000000 0.000000
vt 0.680000 0.276000
vt 0.654000 0.321000
vt 0.604000 0.294000
vt 0.630000 0.250000
vt 0.464000 0.080000
vt 0.415000 0.097000
vt 0.426000 0.012000
vt 0.359000 0.108000
vt 0.426000 0.010000
vt 0.443000 0.006000
vt 0.247000 0.058000
vt 0.142000 0.085000
vt 0.163000 0.158000
vt 0.000000 0.000000
vt 1.000000 0.000000
vt 1.000000 0.995000
vt 0.000000 1.000000
vt 0.000000 0.000000
vt 1.000000 0.000000
vt 1.000000 1.000000
vt 0.000000 1.000000
vt 0.000000 0.005000
vt 1.000000 0.000000
vt 1.000000 0.997000
vt 0.000000 1.000000
vt 0.781000 0.361000
vt 0.651000 0.395000
vt 0.757000 0.279000
vt 0.405000 0.263000
vt 0.415000 0.097000
vt 0.359000 0.108000
vt 0.000000 0.997000
vt 1.000000 0.000000
vt 1.000000 1.000000
vt 0.000000 0.000000
vt 0.000000 0.000000
vt 1.000000 0.002000
vt 1.000000 0.996000
vt 0.000000 1.000000
vt 0.000000 0.029000
vt 1.000000 0.000000
vt 1.000000 0.997000
vt 0.000000 1.000000
vt 0.000000 0.000000
vt 1.000000 0.000000
vt 1.000000 0.998000
vt 0.000000 1.000000
vt 0.811000 0.347000
vt 0.000000 0.999000
vt 1.000000 0.000000
vt 1.000000 1.000000
vt 0.000000 0.000000
vt 0.000000 0.000000
vt 1.000000 0.003000
vt 1.000000 0.996000
vt 0.000000 1.000000
vt 0.000000 0.000000
vt 1.000000 0.007000
vt 1.000000 0.979000
vt 0.000000 1.000000
vn -1.0000 0.0012 0.0000
vn 0.7121 0.7021 0.0000
vn 0.0569 -0.0580 0.9967
vn 0.0574 -0.0581 0.9967
vn 0.0550 -0.0568 0.9969
vn 0.0546 -0.0557 0.9970
vn 0.0037 -0.0341 -0.9994
vn -0.7023 0.7119 0.0000
vn -0.7023 0.7118 0.0000
vn -1.0000 0.0049 0.0000
vn -0.0097 0.0037 0.9999
vn 0.0761 -0.9971 0.0000
vn -1.0000 0.0007 0.0000
vn -0.7119 -0.7023 -0.0000
vn -0.0123 0.0000 0.9999
vn -0.0119 -0.0008 0.9999
vn -0.0115 -0.0007 0.9999
vn -0.0120 -0.0068 0.9999
vn -0.0118 -0.0008 0.9999
vn -0.0123 -0.0001 0.9999
vn -0.0117 -0.0008 0.9999
vn -0.0117 -0.0009 0.9999
vn -0.0114 -0.0006 0.9999
vn -0.0000 -0.0006 1.0000
vn 0.7118 0.7024 0.0000
vn -1.0000 0.0013 0.0000
vn -1.0000 0.0011 0.0000
vn -0.0012 -1.0000 0.0000
vn 0.0012 1.0000 0.0000
vn 0.7024 -0.7118 -0.0000
vn 0.0004 -0.0019 1.0000
vn 0.0006 -0.0018 1.0000
vn 0.0005 -0.0024 1.0000
vn 0.0003 -0.0026 1.0000
vn -0.0012 -0.0026 1.0000
vn -0.0008 -0.0028 1.0000
vn -0.0000 -0.0026 1.0000
vn -0.0008 -0.0027 1.0000
vn -0.0005 -0.0019 1.0000
vn 0.0007 -0.0011 1.0000
vn 0.0007 -0.0022 1.0000
vn 0.0006 -0.0021 1.0000
vn 0.0004 -0.0018 1.0000
vn 1.0000 -0.0007 0.0000
vn 1.0000 -0.0008 -0.0000
vn -0.0000 0.0000 -1.0000
vn 1.0000 -0.0012 -0.0000
vn 0.7049 -0.7093 -0.0000
vn -0.0099 0.0025 0.9999
vn -0.0100 0.0024 0.9999
vn -0.0097 0.0027 0.9999
vn -0.0094 0.0030 1.0000
vn -0.0099 0.0024 0.9999
vn -0.0098 0.0025 0.9999
vn -0.0095 0.0027 1.0000
vn 0.7023 -0.7118 0.0000
vn -0.0015 -1.0000 -0.0000
vn -1.0000 0.0012 0.0002
vn 1.0000 -0.0029 -0.0000
vn -0.7043 0.7099 0.0000
vn -0.0099 0.1376 0.9904
vn -0.0010 0.1354 0.9908
vn -0.7118 -0.7024 0.0000
vn -0.0002 0.0257 0.9997
vn -0.0002 0.0258 0.9997
vn 0.1999 -0.9798 -0.0000
vn -1.0000 -0.0060 -0.0000
vn -1.0000 -0.0059 -0.0000
vn -1.0000 0.0010 0.0000
vn -0.0011 -1.0000 -0.0000
vn -0.0099 0.1421 0.9898
vn -0.0041 0.1403 0.9901
vn -1.0000 0.0034 0.0000
vn -1.0000 0.0035 0.0000
vn 0.7023 -0.7119 -0.0000
vn -0.0009 0.0016 1.0000
vn 0.7119 0.7023 0.0000
vn 0.6961 -0.7180 -0.0000
vn -1.0000 -0.0048 0.0000
vn 1.0000 -0.0011 0.0000
vn -0.7024 0.7118 0.0000
vn -0.0031 1.0000 0.0000
vn 1.0000 -0.0013 -0.0000
vn -0.1019 0.9948 0.0000
vn -0.1020 0.9948 0.0000
vn 0.7166 -0.6975 -0.0000
vn 0.0013 1.0000 0.0000
vn 0.0009 0.0029 1.0000
vn 0.0008 0.0030 1.0000
vn 0.0006 0.0029 1.0000
vn 0.0009 0.0027 1.0000
vn -0.7116 -0.7025 0.0000
vn -0.0399 0.0401 0.9984
vn -0.0395 0.0400 0.9984
vn -0.0380 0.0392 0.9985
vn 0.0205 -0.0201 0.9996
vn 0.0205 -0.0208 0.9996
vn -0.0376 0.0378 0.9986
vn 1.0000 -0.0036 0.0000
vn -0.0837 -0.9965 -0.0000
vn -0.0014 -1.0000 -0.0000
vn -0.0038 0.0116 0.9999
vn -0.0039 0.0119 0.9999
vn -0.0008 0.0155 0.9999
vn -0.0005 0.0157 0.9999
vn -0.0008 0.0204 0.9998
vn -0.0012 0.0156 0.9999
vn -0.0007 0.0154 0.9999
vn -0.0006 0.0155 0.9999
vn -0.0007 0.0155 0.9999
vn -0.0013 -1.0000 -0.0000
vn 1.0000 -0.0053 -0.0000
vn -0.0010 0.0016 1.0000
vn -0.0010 0.0017 1.0000
vn -0.0009 0.0017 1.0000
vn 0.9997 -0.0225 -0.0000
vn -0.9918 0.1279 0.0000
vn -0.0047 0.0342 0.9994
vn 0.0061 1.0000 0.0000
usemtl noname384
s off
f 70/1/1 5/2/1 69/3/1
f 71/4/1 70/1/1 69/3/1
usemtl noname417
f 131/5/2 129/6/2 130/7/2
usemtl noname433
f 14/8/3 131/9/3 130/10/3
f 15/11/4 14/8/4 130/10/4
f 128/12/5 15/11/5 130/10/5
f 127/13/6 15/11/6 128/12/6
usemtl noname422
f 95/14/7 25/15/7 24/16/7
usemtl noname416
f 129/17/8 126/18/8 128/19/8
f 130/20/8 129/17/8 128/19/8
usemtl noname358
f 14/21/9 15/22/9 16/23/9
f 17/24/9 14/21/9 16/23/9
usemtl noname369
f 42/25/10 23/26/10 24/27/10
f 42/25/10 43/28/10 23/26/10
usemtl noname421
f 16/29/11 20/30/11 18/31/11
f 17/32/11 16/29/11 18/31/11
usemtl noname368
f 28/33/12 40/34/12 38/35/12
f 28/33/12 41/36/12 40/34/12
usemtl noname371
f 48/37/13 49/38/13 44/39/13
f 48/37/13 50/40/13 49/38/13
usemtl noname361
f 15/41/14 21/42/14 20/43/14
f 16/44/14 15/41/14 20/43/14
usemtl noname432
f 120/45/15 116/46/15 114/47/15
f 22/48/16 98/49/16 125/50/16
f 120/45/17 114/47/17 125/50/17
f 122/51/18 120/45/18 125/50/18
f 135/52/19 113/53/19 93/54/19
f 118/55/20 116/46/20 120/45/20
f 125/50/17 114/47/17 22/48/17
f 114/47/21 136/56/21 43/57/21
f 136/56/22 113/53/22 135/52/22
f 114/47/23 43/57/23 22/48/23
f 136/56/21 135/52/21 43/57/21
f 43/57/24 23/58/24 22/48/24
usemtl noname357
f 7/59/25 13/60/25 12/61/25
f 8/62/25 7/59/25 12/61/25
usemtl noname370
f 44/63/26 45/64/26 46/65/26
f 44/63/26 47/66/26 45/64/26
usemtl noname382
f 67/67/27 64/68/27 66/69/27
f 67/67/27 68/70/27 64/68/27
usemtl noname391
f 75/71/28 86/72/28 84/73/28
f 75/71/28 87/74/28 86/72/28
usemtl noname385
f 72/75/29 70/76/29 71/77/29
f 72/75/29 73/78/29 70/76/29
usemtl noname406
f 108/79/28 110/80/28 111/81/28
f 108/79/28 107/82/28 110/80/28
usemtl noname354
f 6/83/30 7/84/30 8/85/30
f 9/86/30 6/83/30 8/85/30
usemtl noname428
f 67/87/31 132/88/31 71/89/31
f 67/87/32 71/89/32 69/90/32
f 50/91/33 52/92/33 65/93/33
f 66/94/31 132/88/31 67/87/31
f 65/93/34 52/92/34 54/95/34
f 63/96/35 65/93/35 3/97/35
f 50/91/36 65/93/36 63/96/36
f 59/98/37 63/96/37 61/99/37
f 50/91/38 59/98/38 49/100/38
f 50/91/36 63/96/36 59/98/36
f 59/98/39 56/101/39 49/100/39
f 65/93/40 30/102/40 66/94/40
f 54/95/41 30/102/41 65/93/41
f 54/95/42 31/103/42 30/102/42
f 132/88/43 66/94/43 133/104/43
f 66/94/43 30/102/43 133/104/43
f 133/104/43 72/105/43 132/88/43
usemtl noname396
f 95/106/44 42/107/44 94/108/44
f 96/109/45 95/106/45 94/108/45
usemtl noname434
f 137/110/46 73/111/46 91/112/46
f 138/113/46 139/114/46 137/110/46
f 73/111/46 89/115/46 91/112/46
f 91/112/46 112/116/46 137/110/46
f 138/113/46 137/110/46 101/117/46
f 137/110/46 115/118/46 101/117/46
f 124/119/46 101/117/46 115/118/46
f 117/120/46 121/121/46 115/118/46
f 121/121/46 124/119/46 115/118/46
f 110/122/46 107/123/46 74/124/46
f 47/125/46 104/126/46 77/127/46
f 110/122/46 74/124/46 85/128/46
f 107/123/46 109/129/46 74/124/46
f 102/130/46 104/126/46 47/125/46
f 58/131/46 60/132/46 62/133/46
f 2/134/46 47/125/46 62/133/46
f 138/113/46 5/135/46 139/114/46
f 47/125/46 58/131/46 62/133/46
f 102/130/46 47/125/46 2/134/46
f 102/130/46 2/134/46 101/117/46
f 2/134/46 138/113/46 101/117/46
f 5/135/46 70/136/46 139/114/46
f 137/110/46 139/114/46 73/111/46
f 47/125/46 85/128/46 45/137/46
f 117/120/46 119/138/46 121/121/46
f 85/128/46 74/124/46 45/137/46
f 83/139/46 85/128/46 77/127/46
f 121/121/46 123/140/46 124/119/46
f 76/141/46 81/142/46 83/139/46
f 76/141/46 83/139/46 77/127/46
f 85/128/46 47/125/46 77/127/46
f 47/125/46 57/143/46 58/131/46
usemtl noname387
f 76/144/47 77/145/47 78/146/47
f 79/147/47 76/144/47 78/146/47
usemtl noname399
f 100/148/48 101/149/48 99/150/48
f 100/148/48 102/151/48 101/149/48
usemtl noname430
f 39/152/49 105/153/49 103/154/49
f 36/155/50 97/156/50 33/157/50
f 97/156/51 96/158/51 33/157/51
f 96/158/52 94/159/52 33/157/52
f 94/159/53 92/160/53 134/161/53
f 92/160/53 88/162/53 134/161/53
f 90/163/54 88/162/54 92/160/54
f 33/157/53 134/161/53 34/164/53
f 99/165/49 36/155/49 100/166/49
f 94/159/55 134/161/55 33/157/55
f 99/165/50 97/156/50 36/155/50
f 36/155/53 39/152/53 100/166/53
f 100/166/49 39/152/49 103/154/49
usemtl noname360
f 20/167/56 19/168/56 18/169/56
f 20/167/56 21/170/56 19/168/56
usemtl noname412
f 122/171/57 121/172/57 120/173/57
f 122/171/57 123/174/57 121/172/57
usemtl noname353
f 1/175/1 2/176/1 3/177/1
f 4/178/27 5/179/27 1/175/27
f 1/175/58 5/179/58 2/176/58
usemtl noname409
f 116/180/59 115/181/59 114/182/59
f 116/180/59 117/183/59 115/181/59
usemtl noname364
f 30/184/60 31/185/60 26/186/60
f 32/187/60 30/184/60 26/186/60
usemtl noname418
f 64/188/61 1/189/61 3/97/61
f 65/93/62 64/188/62 3/97/62
usemtl noname355
f 10/190/63 6/191/63 9/192/63
f 10/190/63 11/193/63 6/191/63
usemtl noname431
f 87/194/64 111/195/64 86/196/64
f 106/197/64 108/198/64 87/194/64
f 87/194/65 108/198/65 111/195/65
usemtl noname410
f 118/199/66 117/200/66 116/201/66
f 118/199/66 119/202/66 117/200/66
usemtl noname411
f 120/203/67 119/204/67 118/205/67
f 120/203/68 121/172/68 119/206/68
usemtl noname404
f 74/207/29 109/208/29 106/209/29
f 87/210/29 74/207/29 106/209/29
usemtl noname386
f 55/211/69 74/212/69 75/213/69
f 55/211/69 45/214/69 74/212/69
usemtl noname414
f 98/215/70 124/216/70 125/217/70
f 98/215/70 101/218/70 124/216/70
usemtl noname374
f 29/219/29 54/220/29 53/221/29
f 29/219/29 31/222/29 54/220/29
usemtl noname363
f 26/223/1 27/224/1 28/225/1
f 26/223/1 29/226/1 27/224/1
usemtl noname419
f 1/189/71 64/188/71 68/227/71
f 4/228/72 1/189/72 68/227/72
usemtl noname413
f 124/229/73 123/230/73 122/231/73
f 125/232/74 124/229/74 122/231/74
usemtl noname367
f 38/233/75 36/234/75 37/235/75
f 38/233/75 39/236/75 36/234/75
usemtl noname392
f 88/237/1 30/238/1 34/239/1
f 88/237/1 72/240/1 30/238/1
usemtl noname425
f 7/241/76 13/242/76 11/243/76
f 6/244/76 7/241/76 11/243/76
usemtl noname359
f 18/245/77 14/246/77 17/247/77
f 18/245/77 19/248/77 14/246/77
usemtl noname379
f 62/249/1 60/250/1 61/251/1
f 63/252/1 62/249/1 61/251/1
usemtl noname401
f 105/253/78 104/254/78 103/255/78
f 105/253/78 77/256/78 104/254/78
usemtl noname389
f 82/257/79 81/258/79 80/259/79
f 82/257/79 83/260/79 81/261/79
usemtl noname377
f 58/262/27 57/263/27 56/264/27
f 59/265/27 58/262/27 56/264/27
usemtl noname381
f 64/266/1 65/267/1 66/268/1
usemtl noname376
f 56/269/28 47/270/28 49/271/28
f 56/269/28 57/272/28 47/270/28
usemtl noname394
f 91/273/80 89/274/80 90/275/80
f 92/276/80 91/273/80 90/275/80
usemtl noname356
f 12/277/81 11/278/81 10/279/81
f 12/277/81 13/280/81 11/278/81
usemtl noname383
f 69/281/70 68/282/70 67/283/70
f 69/281/70 4/284/70 68/282/70
usemtl noname403
f 106/285/1 107/286/1 108/287/1
f 106/285/1 109/288/1 107/286/1
usemtl noname373
f 53/289/82 52/290/82 51/291/82
f 53/289/82 54/292/82 52/290/82
usemtl noname405
f 110/293/83 85/294/83 86/295/83
f 111/296/83 110/293/83 86/295/83
usemtl noname390
f 84/297/28 83/260/28 82/298/28
f 84/297/28 85/299/28 83/260/28
usemtl noname362
f 22/300/84 23/26/84 24/27/84
f 25/301/85 22/302/85 24/27/85
usemtl noname400
f 103/303/86 102/304/86 100/305/86
f 103/303/86 104/306/86 102/304/86
usemtl noname393
f 89/307/87 73/308/87 88/309/87
f 90/310/87 89/307/87 88/309/87
usemtl noname427
f 53/311/88 27/312/88 29/313/88
f 51/314/89 46/315/89 27/312/89
f 53/311/90 51/314/90 27/312/90
f 44/316/89 46/315/89 51/314/89
f 48/317/91 44/316/91 51/314/91
usemtl noname415
f 126/318/92 127/319/92 128/320/92
usemtl noname424
f 14/8/93 131/9/93 129/321/93
f 15/11/94 14/8/94 129/321/94
f 126/322/95 15/11/95 129/321/95
f 21/323/96 19/324/96 15/11/96
f 15/11/97 19/324/97 14/8/97
f 127/13/98 15/11/98 126/322/98
usemtl noname397
f 25/301/99 95/325/99 96/326/99
f 97/327/99 25/328/99 96/326/99
usemtl noname402
f 39/329/100 78/330/100 105/331/100
f 39/329/100 40/332/100 78/330/100
usemtl noname388
f 80/333/101 76/334/101 79/335/101
f 80/333/101 81/336/101 76/334/101
usemtl noname420
f 8/337/102 12/338/102 10/339/102
f 9/340/103 8/337/103 10/339/103
usemtl noname429
f 78/341/104 40/342/104 82/343/104
f 82/343/105 40/342/105 41/344/105
f 82/343/106 80/345/106 79/346/106
f 82/343/107 79/346/107 78/341/107
f 41/344/108 84/347/108 82/343/108
f 75/348/109 84/347/109 55/349/109
f 55/349/110 84/347/110 41/344/110
usemtl noname407
f 112/350/29 91/351/29 93/352/29
f 113/353/29 112/350/29 93/352/29
usemtl noname378
f 60/354/111 58/355/111 59/356/111
f 61/357/111 60/354/111 59/356/111
usemtl noname366
f 36/358/112 33/359/112 35/360/112
f 37/361/112 36/358/112 35/360/112
usemtl noname423
f 35/362/113 32/363/113 37/364/113
f 37/364/114 26/365/114 38/366/114
f 37/364/113 32/363/113 26/365/113
f 26/365/115 28/367/115 38/366/115
usemtl noname408
f 114/368/116 112/369/116 113/370/116
f 114/368/116 115/371/116 112/369/116
usemtl noname398
f 98/372/80 22/373/80 97/374/80
f 99/375/80 98/372/80 97/374/80
usemtl noname365
f 33/376/29 34/377/29 32/378/29
f 35/379/29 33/376/29 32/378/29
usemtl noname380
f 2/380/117 62/381/117 63/382/117
f 3/383/117 2/380/117 63/382/117
usemtl noname426
f 42/384/118 24/16/118 95/14/118
usemtl noname372
f 51/385/119 50/386/119 48/387/119
f 51/385/119 52/388/119 50/386/119
usemtl noname375
f 55/389/28 41/390/28 27/391/28
f 46/392/28 55/389/28 27/391/28
usemtl noname395
f 43/393/47 93/394/47 92/395/47
f 94/396/47 43/393/47 92/395/47
