# Blender v2.79 (sub 0) OBJ File: ''
# www.blender.org
mtllib talo_Build0000016.mtl
o talo_Build0000016
v 1.012864 -0.976732 -0.912784
v 0.844946 -0.976860 -0.912784
v 0.844947 -0.976860 0.995516
v 1.012864 -0.976733 0.996816
v 1.012935 -1.170815 -0.912784
v 1.012935 -1.170815 0.999216
v 0.737999 -1.170978 0.997016
v 0.737998 -1.170977 -0.912784
v 0.737929 -0.976895 0.994716
v 0.737999 -1.170978 0.737016
v 0.737929 -0.976895 0.737016
v 0.844947 -0.976860 0.737016
v -0.872674 1.110084 -0.912784
v -0.987230 1.110135 -0.912784
v -0.987230 1.110135 -0.469884
v -0.872674 1.110084 -0.449983
v -0.986536 0.193387 -0.471284
v -0.872208 0.193423 -0.912784
v -0.872207 0.193423 -0.451384
v -0.986536 0.193387 -0.912784
v -0.872674 1.110084 -0.451383
v -0.872207 0.193423 0.731116
v -0.872674 1.110084 0.732516
v -0.873699 2.388592 -0.912784
v -0.873699 2.388591 0.732817
v 0.842679 2.389757 -0.912784
v 0.842679 2.389756 0.734917
v 0.844947 -0.976860 0.737616
v -0.871174 -1.172055 0.734116
v 0.737999 -1.170978 0.737116
v -0.871174 -1.172055 -0.912784
vt 0.609000 0.068000
vt 0.002000 0.132000
vt 0.589000 0.021000
vt 0.648000 0.061000
vt 0.996000 0.881000
vt 0.144000 0.465000
vt 0.239000 0.688000
vt 0.371000 0.999000
vt 0.000000 0.000000
vt 1.000000 0.000000
vt 1.000000 0.999000
vt 0.000000 1.000000
vt 0.000000 0.000000
vt 1.000000 0.000000
vt 1.000000 0.957000
vt 0.000000 1.000000
vt 0.000000 0.000000
vt 1.000000 0.000000
vt 1.000000 0.997000
vt 0.000000 1.000000
vt 0.000000 0.957000
vt 1.000000 0.000000
vt 1.000000 1.000000
vt 0.000000 0.000000
vt 0.000000 0.991000
vt 1.000000 0.000000
vt 1.000000 1.000000
vt 0.000000 0.000000
vt 0.000000 0.999000
vt 1.000000 0.000000
vt 1.000000 1.000000
vt 0.000000 0.000000
vt 0.000000 0.000000
vt 1.000000 0.000000
vt 1.000000 1.000000
vt 0.000000 1.000000
vt 0.000000 0.000000
vt 1.000000 0.000000
vt 1.000000 0.997000
vt 0.000000 1.000000
vt 0.000000 0.000000
vt 1.000000 0.000000
vt 1.000000 0.999000
vt 0.000000 1.000000
vt 0.648000 0.061000
vt 0.609000 0.068000
vt 0.589000 0.021000
vt 0.709000 0.049000
vt 0.689000 0.002000
vt 0.000000 0.998000
vt 1.000000 0.000000
vt 1.000000 1.000000
vt 0.000000 0.000000
vt 0.239000 0.688000
vt 0.102000 0.473000
vt 0.144000 0.465000
vt 0.197000 0.696000
vt 0.000000 0.000000
vt 1.000000 0.000000
vt 1.000000 0.998000
vt 0.000000 1.000000
vt 0.000000 0.000000
vt 1.000000 0.000000
vt 1.000000 0.999000
vt 0.000000 1.000000
vt 0.000000 0.000000
vt 1.000000 0.000000
vt 1.000000 0.999000
vt 0.000000 1.000000
vt 0.000000 0.998000
vt 1.000000 0.000000
vt 1.000000 1.000000
vt 0.000000 0.000000
vn -0.0019 0.0005 1.0000
vn -0.0056 0.0008 1.0000
vn -0.0021 0.0022 1.0000
vn -0.0019 0.0007 1.0000
vn -0.0048 -0.0015 1.0000
vn -0.0012 -0.0002 1.0000
vn -1.0000 -0.0005 -0.0000
vn 0.0004 1.0000 0.0000
vn -0.0003 1.0000 0.0000
vn 0.0003 -1.0000 -0.0000
vn -1.0000 -0.0004 0.0000
vn 0.0006 -1.0000 -0.0000
vn -1.0000 -0.0008 0.0000
vn -0.0007 1.0000 0.0000
vn -0.0075 0.0118 0.9999
vn -0.0077 0.0124 0.9999
vn -0.0080 0.0121 0.9999
vn 0.0007 -1.0000 -0.0000
vn -0.1715 -0.0016 0.9852
vn -0.1712 -0.0016 0.9852
vn 1.0000 0.0007 -0.0000
vn 1.0000 0.0004 0.0000
vn -0.0008 1.0000 0.0000
usemtl noname3924
s off
f 11/1/1 29/2/1 30/3/1
f 28/4/2 27/5/2 11/1/2
f 11/1/3 22/6/3 29/2/3
f 27/5/4 23/7/4 11/1/4
f 23/7/5 22/6/5 11/1/5
f 25/8/6 23/7/6 27/5/6
usemtl noname3916
f 21/9/7 19/10/7 22/11/7
f 23/12/7 21/9/7 22/11/7
usemtl noname3913
f 13/13/8 14/14/8 15/15/8
f 16/16/8 13/13/8 15/15/8
usemtl noname3912
f 12/17/9 11/18/9 9/19/9
f 3/20/9 12/17/9 9/19/9
usemtl noname3914
f 17/21/10 18/22/10 19/23/10
f 17/21/10 20/24/10 18/22/10
usemtl noname3911
f 9/25/11 10/26/11 7/27/11
f 9/25/11 11/28/11 10/26/11
usemtl noname3910
f 7/29/12 5/30/12 6/31/12
f 7/29/12 8/32/12 5/30/12
usemtl noname3917
f 24/33/13 13/34/13 23/35/13
f 25/36/13 24/33/13 23/35/13
usemtl noname3915
f 14/37/13 20/38/13 17/39/13
f 15/40/13 14/37/13 17/39/13
usemtl noname3918
f 26/41/14 24/42/14 25/43/14
f 27/44/14 26/41/14 25/43/14
usemtl noname3922
f 3/45/15 9/46/15 7/47/15
f 4/48/16 3/45/16 6/49/16
f 6/49/17 3/45/17 7/47/17
usemtl noname3920
f 29/50/18 8/51/18 30/52/18
f 29/50/18 31/53/18 8/51/18
usemtl noname3923
f 16/54/19 17/55/19 19/56/19
f 16/54/20 15/57/20 17/55/20
usemtl noname3919
f 2/58/21 26/59/21 27/60/21
f 28/61/21 2/58/21 27/60/21
usemtl noname3909
f 5/62/22 1/63/22 4/64/22
f 6/65/22 5/62/22 4/64/22
usemtl noname3908
f 1/66/23 2/67/23 3/68/23
f 4/69/23 1/66/23 3/68/23
usemtl noname3921
f 22/70/13 31/71/13 29/72/13
f 22/70/13 18/73/13 31/71/13
