# Blender v2.79 (sub 0) OBJ File: ''
# www.blender.org
mtllib talo_Build0000035.mtl
o talo_Build0000035
v -0.209285 -0.547625 0.248100
v 0.183123 -0.556956 -0.255300
v 0.183123 -0.556956 0.263100
v -0.209285 -0.547625 -0.255300
v -0.183117 0.556933 0.247500
v -0.183117 0.556933 -0.255300
v 0.209279 0.547649 -0.255300
v 0.209279 0.547649 0.262500
vt 0.990000 0.904000
vt 0.003000 0.089000
vt 0.433000 0.992000
vt 0.560000 0.001000
vt 0.003000 0.089000
vt 0.990000 0.904000
vt 0.433000 0.992000
vt 0.560000 0.001000
vt 0.000000 0.999000
vt 1.000000 0.000000
vt 1.000000 1.000000
vt 0.000000 0.000000
vt 0.000000 0.000000
vt 1.000000 0.000000
vt 1.000000 0.999000
vt 0.000000 1.000000
vt 0.000000 0.000000
vt 1.000000 0.000000
vt 1.000000 0.971000
vt 0.000000 1.000000
vt 0.000000 0.971000
vt 1.000000 0.000000
vt 1.000000 1.000000
vt 0.000000 0.000000
vn 0.0000 0.0000 -1.0000
vn -0.0382 0.0014 0.9993
vn -0.9997 0.0237 0.0000
vn 0.9997 -0.0237 -0.0000
vn 0.0237 0.9997 0.0000
vn -0.0238 -0.9997 -0.0000
usemtl noname683
s off
f 7/1/1 4/2/1 6/3/1
f 7/1/1 2/4/1 4/2/1
usemtl noname682
f 1/5/2 8/6/2 5/7/2
f 1/5/2 3/8/2 8/6/2
usemtl noname679
f 5/9/3 4/10/3 1/11/3
f 5/9/3 6/12/3 4/10/3
usemtl noname681
f 2/13/4 7/14/4 8/15/4
f 3/16/4 2/13/4 8/15/4
usemtl noname680
f 7/17/5 6/18/5 5/19/5
f 8/20/5 7/17/5 5/19/5
usemtl noname678
f 1/21/6 2/22/6 3/23/6
f 1/21/6 4/24/6 2/22/6
