# Blender v2.79 (sub 0) OBJ File: ''
# www.blender.org
mtllib talo_Build0000007.mtl
o talo_Build0000007
v -2.203860 -3.928029 -0.618935
v -0.794284 -3.899232 -1.186435
v -0.794284 -3.899232 -0.614135
v -2.203860 -3.928028 -1.186435
v -2.217093 -3.285553 -0.676534
v -2.217093 -3.285553 -1.186435
v 1.018237 2.654996 -1.186434
v 0.760645 2.374799 -1.186434
v 0.760645 2.374799 -0.666734
v 1.018237 2.654996 -0.660634
v 1.351935 2.340015 -0.661434
v 1.351935 2.340015 -1.186434
v 1.085721 2.056615 -0.667734
v 1.085721 2.056615 -1.186434
v 0.027060 -0.324339 -0.228434
v 0.572108 -0.313164 -0.228434
v 0.572108 -0.313164 0.632565
v 0.027060 -0.324339 0.638266
v 0.023359 -0.145114 -1.186434
v 0.027060 -0.324339 -1.186434
v 0.023359 -0.145114 0.683966
v 0.654589 -0.311418 0.631666
v 0.650729 -0.132342 0.450566
v 0.650729 -0.132342 0.677365
v 0.654589 -0.311418 0.450566
v 0.572108 -0.313164 0.090566
v 0.654589 -0.311418 0.090566
v 0.646937 0.414262 0.820666
v 0.227930 0.405791 0.724565
v 0.227930 0.405791 0.836166
v 0.646937 0.414262 0.724565
v 0.653596 0.080673 0.792366
v 0.653596 0.080673 0.724565
v 0.302118 0.073481 0.725465
v 0.653596 0.080673 0.725465
v 0.302118 0.073481 0.805465
v -0.003187 0.067371 0.719665
v 0.302118 0.073481 0.719665
v -0.003187 0.067371 0.816765
v -0.010032 0.400904 0.719665
v -0.010032 0.400904 0.845066
v -0.010032 0.400904 0.719966
v 0.227930 0.405791 0.719966
v 0.023359 -0.145114 0.719466
v 0.306345 -0.139390 0.680966
v 0.306345 -0.139390 0.719566
v 0.023359 -0.145114 0.680966
v -0.209734 -0.149914 0.719366
v -0.209734 -0.149914 -1.186434
v -0.243915 1.271299 -1.186434
v -0.243915 1.271299 0.720866
v -1.203892 1.251656 0.720666
v -1.203892 1.251656 -1.186434
v -2.282898 1.229730 0.720365
v -1.203892 1.251656 0.415266
v -2.282898 1.229730 0.415266
v -2.304451 2.277136 0.415266
v -2.304451 2.277136 0.721466
v 0.560715 2.335659 0.415566
v -2.304451 2.277136 0.415567
v 0.560715 2.335659 0.722066
v 0.569851 1.890696 0.721566
v 0.560715 2.335659 0.574866
v 0.569851 1.890696 0.574866
v 1.088420 -0.123609 0.439566
v 1.047411 1.900451 0.439566
v 1.047411 1.900451 0.708466
v 1.088420 -0.123609 0.713766
v 0.650729 -0.132342 0.439566
v 0.650729 -0.132342 0.726165
v 0.306345 -0.139390 0.677365
v 0.306345 -0.139390 0.735965
v 0.302118 0.073481 0.735365
v 0.302118 0.073481 0.719566
v 0.197677 1.883147 0.732566
v 0.227930 0.405791 0.720066
v 0.227930 0.405791 0.736465
v 0.197677 1.883147 0.720066
v 0.569851 1.890696 0.721966
v 0.197677 1.883147 0.721566
v 1.047411 1.900451 0.574866
v -0.778292 -4.675736 -1.186435
v 0.667368 -4.651645 -1.186435
v 0.667368 -4.651645 -0.232935
v -0.778292 -4.675736 -0.228035
v -0.794284 -3.899232 -0.227235
v -0.808275 -3.220989 -0.674935
v -0.794284 -3.899232 -0.674935
v -0.808275 -3.220989 -0.226535
v -0.810181 -3.127799 -0.674935
v -0.810181 -3.127799 -0.226435
v 0.083249 -3.099808 -0.229435
v -0.810181 -3.127799 -0.672234
v 0.083249 -3.099808 -0.672234
v 0.078183 -2.850225 -0.671635
v 0.083249 -3.099808 -0.671635
v 0.078183 -2.850225 -0.229135
v 0.078183 -2.850224 -1.186435
v 0.027060 -0.324339 -0.226534
v -2.224930 -2.897151 -1.186435
v -2.224930 -2.897151 -0.665135
v 0.078183 -2.850225 -0.664235
v -3.283778 3.058735 -1.186434
v -3.258576 1.824135 -1.186434
v -3.258576 1.824134 -0.232134
v -3.283778 3.058735 -0.226534
v -0.342594 3.118794 -0.228234
v -0.342595 3.118795 -1.186434
v -0.330564 2.523068 -0.230934
v -0.330564 2.523069 -1.186434
v -2.779743 1.833049 -1.186434
v -2.779743 1.833048 -0.232434
v -1.200758 1.102136 0.418566
v -1.203892 1.251656 0.418566
v -1.200758 1.102137 -1.186434
v -2.764192 1.070230 0.413766
v -2.764192 1.070230 -1.186434
v -2.779743 1.833048 0.413966
v -2.792764 2.472783 -0.232434
v -2.792764 2.472783 0.414066
v -2.792764 2.472783 -0.230934
v -0.330564 2.523068 0.421666
v 0.556796 2.529861 -1.186434
v 0.556796 2.529861 0.424366
v 1.856041 -4.722491 -1.186435
v 1.811538 -2.456788 -1.186435
v 1.811538 -2.456788 0.089765
v 1.856041 -4.722491 0.090465
v 0.669420 -4.746679 -1.186435
v 0.669421 -4.746679 0.091965
v 0.667368 -4.651645 0.091965
v 0.572108 -0.313164 0.090666
v 0.572108 -0.313164 -0.232934
v 1.247272 1.904543 -1.186434
v 1.085721 2.056615 0.604166
v 1.247272 1.904543 0.604666
v 1.047411 1.900451 0.595866
v 1.247272 1.904543 0.436566
v 1.047411 1.900451 0.436566
v 0.560715 2.335659 0.424366
v 0.560715 2.335659 0.593266
v 0.556796 2.529861 0.601266
v 0.598116 2.530809 -1.186434
v 0.598116 2.530809 0.603066
v 0.760645 2.374799 0.603466
v 0.760645 2.374799 -0.667734
v 2.397844 -2.451924 -1.186435
v 2.397844 -2.451924 0.405165
v 1.811538 -2.456788 0.420065
v 1.253077 -2.468120 0.089765
v 1.253077 -2.468120 0.434365
v 1.208812 -0.300238 0.089866
v 1.253077 -2.468120 0.089865
v 1.208812 -0.300238 0.436466
v 0.654589 -0.311418 0.089866
v 1.264204 0.516282 0.435465
v 1.264204 0.516282 -1.186434
v 2.345167 0.538488 0.407966
v 2.345167 0.538488 -1.186434
v -0.871767 2.306403 0.721766
v 0.302118 0.073481 0.719765
v 1.067916 0.888422 0.711066
v 0.619811 -2.482307 -0.230735
v -2.792764 2.472783 -0.229534
v 0.619811 -2.482307 0.091265
v 1.253077 -2.468120 0.090465
v 1.047411 1.900451 0.441666
v 0.650729 -0.132342 0.450766
vt 0.000000 0.000000
vt 1.000000 0.000000
vt 1.000000 0.998000
vt 0.000000 1.000000
vt 0.633000 0.603000
vt 0.593000 0.610000
vt 0.577000 0.574000
vt 0.689000 0.554000
vt 0.705000 0.590000
vt 0.629000 0.565000
vt 0.000000 0.997000
vt 1.000000 0.000000
vt 1.000000 1.000000
vt 0.000000 0.000000
vt 0.000000 0.000000
vt 1.000000 0.000000
vt 1.000000 0.999000
vt 0.000000 1.000000
vt 0.000000 0.000000
vt 1.000000 0.000000
vt 1.000000 1.000000
vt 0.000000 1.000000
vt 0.788000 0.799000
vt 0.703000 0.762000
vt 0.767000 0.751000
vt 0.544000 0.842000
vt 0.434000 0.739000
vt 0.597000 0.710000
vt 0.299000 0.885000
vt 0.250000 0.772000
vt 0.633000 0.603000
vt 0.531000 0.557000
vt 0.577000 0.574000
vt 0.593000 0.610000
vt 0.619000 0.542000
vt 0.629000 0.565000
vt 0.570000 0.550000
vt 0.000000 1.000000
vt 1.000000 0.000000
vt 1.000000 1.000000
vt 0.000000 0.000000
vt 0.000000 0.000000
vt 1.000000 0.000000
vt 1.000000 0.999000
vt 0.000000 1.000000
vt 0.000000 0.948000
vt 1.000000 0.000000
vt 1.000000 1.000000
vt 0.000000 0.000000
vt 0.000000 0.997000
vt 1.000000 0.000000
vt 1.000000 1.000000
vt 0.000000 0.000000
vt 0.000000 0.899000
vt 1.000000 0.000000
vt 1.000000 1.000000
vt 0.000000 0.000000
vt 0.000000 0.000000
vt 1.000000 0.000000
vt 1.000000 0.999000
vt 0.000000 1.000000
vt 0.000000 0.000000
vt 1.000000 0.000000
vt 1.000000 0.996000
vt 0.000000 1.000000
vt 0.000000 0.000000
vt 1.000000 0.000000
vt 1.000000 0.774000
vt 0.000000 1.000000
vt 0.196000 0.852000
vt 0.160000 0.770000
vt 0.250000 0.772000
vt 0.426000 0.723000
vt 0.434000 0.739000
vt 0.226000 0.921000
vt 0.299000 0.885000
vt 0.788000 0.799000
vt 0.797000 0.820000
vt 0.646000 0.847000
vt 0.000000 0.992000
vt 1.000000 0.000000
vt 1.000000 1.000000
vt 0.000000 0.000000
vt 0.655000 0.514000
vt 0.669000 0.512000
vt 0.677000 0.531000
vt 0.570000 0.550000
vt 0.562000 0.531000
vt 0.619000 0.542000
vt 0.000000 0.000000
vt 1.000000 0.000000
vt 1.000000 0.998000
vt 0.000000 1.000000
vt 0.000000 0.000000
vt 1.000000 0.000000
vt 1.000000 0.997000
vt 0.000000 1.000000
vt 0.000000 0.929000
vt 1.000000 0.000000
vt 1.000000 1.000000
vt 0.000000 0.000000
vt 0.273000 0.247000
vt 0.277000 0.257000
vt 0.031000 0.286000
vt 0.430000 0.232000
vt 0.442000 0.259000
vt 0.049000 0.328000
vt 0.000000 0.000000
vt 1.000000 0.000000
vt 1.000000 0.988000
vt 0.000000 1.000000
vt 0.000000 0.999000
vt 1.000000 0.000000
vt 1.000000 1.000000
vt 0.000000 0.000000
vt 0.000000 0.000000
vt 1.000000 0.000000
vt 1.000000 0.994000
vt 0.000000 1.000000
vt 0.705000 0.590000
vt 0.800000 0.627000
vt 0.633000 0.603000
vt 0.703000 0.762000
vt 0.752000 0.518000
vt 0.689000 0.554000
vt 0.767000 0.751000
vt 0.677000 0.531000
vt 0.629000 0.565000
vt 0.619000 0.542000
vt 0.848000 0.736000
vt 0.797000 0.820000
vt 0.788000 0.799000
vt 0.804000 0.818000
vt 0.767000 0.751000
vt 0.824000 0.796000
vt 0.863000 0.752000
vt 0.848000 0.736000
vt 0.882000 0.730000
vt 0.000000 0.000000
vt 1.000000 0.000000
vt 1.000000 0.884000
vt 0.000000 1.000000
vt 0.000000 0.000000
vt 1.000000 0.000000
vt 1.000000 0.955000
vt 0.000000 1.000000
vt 0.752000 0.518000
vt 0.763000 0.495000
vt 0.814000 0.581000
vt 0.855000 0.227000
vt 0.999000 0.549000
vt 0.882000 0.730000
vt 0.848000 0.736000
vt 0.677000 0.531000
vt 0.669000 0.512000
vt 0.756000 0.245000
vt 0.660000 0.262000
vt 0.000000 0.000000
vt 1.000000 0.000000
vt 1.000000 0.998000
vt 0.000000 1.000000
vt 0.000000 0.998000
vt 1.000000 0.000000
vt 1.000000 1.000000
vt 0.000000 0.000000
vt 0.000000 0.998000
vt 1.000000 0.000000
vt 1.000000 1.000000
vt 0.000000 0.000000
vt 0.000000 0.000000
vt 1.000000 0.000000
vt 1.000000 0.998000
vt 0.000000 1.000000
vt 0.000000 0.997000
vt 1.000000 0.000000
vt 1.000000 1.000000
vt 0.000000 0.000000
vt 0.000000 0.999000
vt 1.000000 0.000000
vt 1.000000 1.000000
vt 0.000000 0.000000
vt 0.000000 0.000000
vt 1.000000 0.000000
vt 1.000000 1.000000
vt 1.000000 0.000000
vt 1.000000 1.000000
vt 0.000000 0.762000
vt 1.000000 0.000000
vt 1.000000 1.000000
vt 0.000000 0.000000
vt 0.000000 0.799000
vt 1.000000 0.000000
vt 1.000000 1.000000
vt 0.000000 0.000000
vt 0.000000 0.000000
vt 1.000000 0.000000
vt 1.000000 0.999000
vt 0.000000 1.000000
vt 0.000000 0.000000
vt 1.000000 0.000000
vt 1.000000 0.999000
vt 0.000000 1.000000
vt 0.000000 0.861000
vt 1.000000 0.000000
vt 1.000000 1.000000
vt 0.000000 0.000000
vt 0.000000 0.000000
vt 1.000000 0.000000
vt 1.000000 0.993000
vt 0.000000 1.000000
vt 0.000000 0.000000
vt 1.000000 0.000000
vt 1.000000 0.976000
vt 0.000000 1.000000
vt 0.000000 0.000000
vt 1.000000 0.000000
vt 1.000000 0.994000
vt 0.000000 1.000000
vt 0.669000 0.512000
vt 0.655000 0.514000
vt 0.552000 0.281000
vt 0.445000 0.036000
vt 0.648000 0.001000
vt 0.450000 0.047000
vt 0.660000 0.262000
vt 0.756000 0.245000
vt 0.763000 0.495000
vt 0.000000 0.706000
vt 1.000000 0.000000
vt 1.000000 1.000000
vt 0.000000 0.000000
vt 0.000000 0.000000
vt 1.000000 0.000000
vt 1.000000 0.998000
vt 0.000000 1.000000
vt 0.241000 0.174000
vt 0.000000 0.217000
vt 0.000000 0.000000
vt 1.000000 0.000000
vt 1.000000 1.000000
vt 0.000000 1.000000
vt 0.114000 0.867000
vt 0.196000 0.852000
vt 0.226000 0.921000
vt 0.173000 1.000000
vt 0.646000 0.847000
vt 0.675000 0.912000
vt 0.000000 1.000000
vt 1.000000 0.000000
vt 1.000000 1.000000
vt 0.000000 0.000000
vt 0.000000 0.000000
vt 1.000000 0.000000
vt 1.000000 0.957000
vt 0.000000 1.000000
vt 0.000000 0.000000
vt 1.000000 0.000000
vt 1.000000 0.981000
vt 0.000000 1.000000
vt 0.000000 0.000000
vt 1.000000 0.000000
vt 1.000000 0.999000
vt 0.000000 1.000000
vt 0.000000 0.000000
vt 1.000000 0.000000
vt 1.000000 0.999000
vt 0.000000 1.000000
vt 0.273000 0.247000
vt 0.241000 0.174000
vt 0.430000 0.232000
vt 0.552000 0.281000
vt 0.562000 0.531000
vt 0.442000 0.259000
vt 0.655000 0.514000
vt 0.450000 0.047000
vt 0.277000 0.257000
vt 0.204000 0.091000
vt 0.000000 0.998000
vt 1.000000 0.000000
vt 1.000000 1.000000
vt 0.000000 0.000000
vt 0.000000 0.000000
vt 1.000000 0.000000
vt 1.000000 0.959000
vt 0.000000 1.000000
vt 0.000000 0.997000
vt 1.000000 0.000000
vt 1.000000 1.000000
vt 0.000000 0.000000
vt 0.824000 0.796000
vt 0.922000 0.774000
vt 0.882000 0.818000
vt 0.863000 0.752000
vt 0.000000 0.000000
vt 1.000000 0.000000
vt 1.000000 0.995000
vt 0.000000 1.000000
vt 0.000000 0.000000
vt 1.000000 0.000000
vt 1.000000 1.000000
vt 0.000000 1.000000
vt 0.000000 0.000000
vt 1.000000 0.000000
vt 1.000000 1.000000
vt 0.000000 1.000000
vt 0.000000 0.000000
vt 1.000000 0.000000
vt 1.000000 0.833000
vt 0.000000 1.000000
vt 0.000000 0.000000
vt 1.000000 0.000000
vt 1.000000 1.000000
vt 1.000000 0.000000
vt 0.000000 0.996000
vt 1.000000 0.000000
vt 1.000000 1.000000
vt 0.000000 0.000000
vt 0.000000 0.993000
vt 1.000000 0.000000
vt 1.000000 1.000000
vt 0.000000 0.000000
vt 0.000000 0.000000
vt 1.000000 0.000000
vt 1.000000 0.836000
vt 0.000000 1.000000
vt 0.000000 0.000000
vt 1.000000 0.000000
vt 1.000000 0.978000
vt 0.000000 1.000000
vt 0.000000 0.983000
vt 1.000000 0.000000
vt 1.000000 1.000000
vt 0.000000 0.000000
vt 0.000000 0.000000
vt 1.000000 0.000000
vt 1.000000 1.000000
vt 0.000000 1.000000
vt 0.000000 0.908000
vt 1.000000 0.000000
vt 1.000000 1.000000
vt 0.000000 0.000000
vt 0.000000 1.000000
vt 1.000000 0.000000
vt 1.000000 1.000000
vt 0.000000 0.000000
vt 0.000000 0.988000
vt 1.000000 0.000000
vt 1.000000 1.000000
vt 0.000000 0.000000
vt 0.000000 0.000000
vt 1.000000 0.000000
vt 1.000000 0.991000
vt 0.000000 1.000000
vt 0.000000 0.000000
vt 1.000000 0.000000
vt 1.000000 1.000000
vt 0.000000 1.000000
vt 0.000000 0.000000
vt 1.000000 0.000000
vt 1.000000 0.988000
vt 0.000000 1.000000
vt 0.000000 1.000000
vt 1.000000 0.000000
vt 1.000000 1.000000
vt 0.000000 0.000000
vt 0.000000 0.000000
vt 1.000000 0.000000
vt 1.000000 0.961000
vt 0.000000 1.000000
vn 0.0212 -0.9998 -0.0000
vn 0.0390 -0.0837 0.9957
vn 0.0388 -0.0837 0.9957
vn 0.0385 -0.0834 0.9958
vn 0.9998 0.0202 -0.0000
vn 0.9998 0.0196 0.0000
vn 0.6925 0.7214 -0.0000
vn 0.0000 -0.0011 1.0000
vn -0.0002 -0.0010 1.0000
vn -0.0003 -0.0011 1.0000
vn -0.0005 -0.0009 1.0000
vn -0.0004 -0.0011 1.0000
vn -0.0003 -0.0009 1.0000
vn -0.0004 -0.0010 1.0000
vn -0.0003 -0.0010 1.0000
vn -0.0001 -0.0011 1.0000
vn 0.0205 -0.9998 -0.0000
vn -0.9998 -0.0206 0.0000
vn 0.0202 -0.9998 -0.0000
vn 0.0204 -0.9998 0.0000
vn -0.9998 -0.0205 0.0000
vn -0.0030 -0.0003 1.0000
vn -0.0031 -0.0001 1.0000
vn -0.0032 -0.0002 1.0000
vn -0.0031 -0.0002 1.0000
vn -0.0030 -0.0001 1.0000
vn -0.0031 -0.0000 1.0000
vn 0.0158 -0.2469 0.9689
vn 0.0153 -0.2468 0.9690
vn 0.0152 -0.2467 0.9690
vn -0.0077 1.0000 0.0000
vn -0.9998 -0.0202 -0.0000
vn -0.0205 0.9998 0.0000
vn 0.0002 -0.0290 0.9996
vn 0.0003 -0.0296 0.9996
vn 0.0002 -0.0295 0.9996
vn 0.0002 -0.0293 0.9996
vn -0.0204 0.9998 0.0000
vn 0.0203 -0.9998 0.0000
vn -0.9998 -0.0204 0.0000
vn 0.0283 0.0033 0.9996
vn 0.0284 0.0032 0.9996
vn 0.0284 0.0033 0.9996
vn 0.0283 0.0029 0.9996
vn 0.0284 0.0034 0.9996
vn 0.0281 0.0029 0.9996
vn 0.0282 0.0031 0.9996
vn -0.0425 -0.0420 0.9982
vn -0.0427 -0.0422 0.9982
vn -0.0427 -0.0419 0.9982
vn -0.0432 -0.0419 0.9982
vn -0.0430 -0.0425 0.9982
vn -0.0431 -0.0425 0.9982
vn 0.0200 -0.9998 -0.0000
vn 0.0250 -0.0005 0.9997
vn 0.0254 -0.0005 0.9997
vn 0.0255 -0.0005 0.9997
vn 0.0252 -0.0005 0.9997
vn 0.0256 -0.0006 0.9997
vn 0.0254 -0.0002 0.9997
vn 0.0256 -0.0004 0.9997
vn 0.9998 0.0176 0.0000
vn 0.9998 0.0205 0.0000
vn 0.9999 0.0122 0.0000
vn -0.0203 0.9998 0.0000
vn 0.9998 0.0215 -0.0000
vn 0.6995 0.7146 -0.0000
vn -0.9998 -0.0203 0.0000
vn -0.0202 0.9998 0.0000
vn 0.0012 0.0003 1.0000
vn 0.0013 0.0000 1.0000
vn 0.0013 0.0003 1.0000
vn 0.0013 0.0004 1.0000
vn 0.9998 0.0200 0.0000
vn -0.0052 0.0892 0.9960
vn 0.0007 -0.0045 1.0000
vn 0.0007 -0.0046 1.0000
vn 0.0206 -0.9998 -0.0000
vn 0.9998 0.0203 0.0000
vn -0.9997 -0.0240 0.0000
vn -0.0229 0.9997 -0.0000
vn 0.0034 -0.0010 1.0000
vn 0.0036 -0.0010 1.0000
vn 0.0035 -0.0010 1.0000
vn 0.0035 -0.0009 1.0000
vn 0.0037 -0.0011 1.0000
vn 0.6864 0.7272 0.0000
vn -0.0097 -0.0128 0.9999
vn -0.0097 -0.0131 0.9999
vn 0.0167 -0.9999 0.0000
vn 0.6854 0.7281 0.0000
vn -0.9998 -0.0199 0.0000
vn -0.9998 -0.0220 0.0000
vn -0.0313 0.9995 0.0000
vn -0.9998 -0.0216 0.0000
vn 0.7289 -0.6847 0.0000
vn 0.0083 -1.0000 0.0000
vn 0.0186 -0.9998 -0.0000
vn -0.7362 0.6768 0.0000
vn 0.9998 0.0210 0.0000
vn 0.9998 0.0209 0.0000
usemtl noname2041
s off
f 26/1/1 27/2/1 22/3/1
f 17/4/1 26/1/1 22/3/1
usemtl noname2102
f 30/5/2 41/6/2 39/7/2
f 32/8/3 28/9/3 36/10/3
f 36/10/4 30/5/4 39/7/4
f 28/9/4 30/5/4 36/10/4
usemtl noname2074
f 109/11/5 108/12/5 107/13/5
f 109/11/5 110/14/5 108/12/5
usemtl noname2082
f 125/15/6 126/16/6 127/17/6
f 128/18/6 125/15/6 127/17/6
usemtl noname2090
f 8/19/7 143/20/7 144/21/7
f 145/22/7 8/19/7 144/21/7
usemtl noname2103
f 61/23/8 80/24/8 62/25/8
f 160/26/9 80/24/9 61/23/9
f 52/27/9 51/28/9 160/26/9
f 58/29/10 54/30/10 52/27/10
f 51/28/9 76/31/9 80/24/9
f 48/32/11 37/33/11 42/34/11
f 58/29/9 52/27/9 160/26/9
f 160/26/9 51/28/9 80/24/9
f 42/34/12 76/31/12 51/28/12
f 46/35/13 161/36/13 44/37/13
f 44/37/14 37/33/14 48/32/14
f 44/37/15 161/36/15 37/33/15
f 48/32/16 42/34/16 51/28/16
usemtl noname2051
f 52/38/17 50/39/17 51/40/17
f 52/38/17 53/41/17 50/39/17
usemtl noname2064
f 2/42/18 82/43/18 85/44/18
f 86/45/18 2/42/18 85/44/18
usemtl noname2087
f 137/46/17 138/47/17 136/48/17
f 137/46/17 139/49/17 138/47/17
usemtl noname2048
f 44/50/19 45/51/19 46/52/19
f 44/50/19 47/53/19 45/51/19
usemtl noname2034
f 5/54/18 4/55/18 1/56/18
f 5/54/18 6/57/18 4/55/18
usemtl noname2083
f 129/58/20 125/59/20 128/60/20
f 130/61/20 129/58/20 128/60/20
usemtl noname2053
f 57/62/18 56/63/18 54/64/18
f 58/65/18 57/62/18 54/64/18
usemtl noname2046
f 40/66/21 37/67/21 39/68/21
f 41/69/21 40/66/21 39/68/21
usemtl noname2108
f 118/70/22 116/71/22 56/72/22
f 56/72/23 113/73/23 114/74/23
f 120/75/24 118/70/24 60/76/24
f 113/73/25 56/72/25 116/71/25
f 140/77/26 124/78/26 122/79/26
f 140/77/25 122/79/25 60/76/25
f 122/79/27 120/75/27 60/76/27
f 60/76/22 118/70/22 56/72/22
usemtl noname2033
f 1/80/20 2/81/20 3/82/20
f 1/80/20 4/83/20 2/81/20
usemtl noname2101
f 17/84/28 22/85/28 24/86/28
f 21/87/29 18/88/29 45/89/29
f 45/89/30 17/84/30 24/86/30
f 18/88/30 17/84/30 45/89/30
usemtl noname2081
f 123/90/31 110/91/31 122/92/31
f 124/93/31 123/90/31 122/92/31
usemtl noname2069
f 20/94/32 98/95/32 97/96/32
f 99/97/32 20/94/32 97/96/32
usemtl noname2047
f 30/98/33 42/99/33 41/100/33
f 30/98/33 43/101/33 42/99/33
usemtl noname2106
f 87/102/34 93/103/34 5/104/34
f 96/105/35 102/106/35 93/103/35
f 93/103/36 102/106/36 101/107/36
f 5/104/37 93/103/37 101/107/37
usemtl noname2080
f 109/108/38 121/109/38 120/110/38
f 122/111/38 109/108/38 120/110/38
usemtl noname2052
f 54/112/39 55/113/39 52/114/39
f 54/112/39 56/115/39 55/113/39
usemtl noname2094
f 152/116/40 153/117/40 151/118/40
f 154/119/40 152/116/40 151/118/40
usemtl noname2104
f 31/120/41 162/121/41 77/122/41
f 77/122/42 162/121/42 75/123/42
f 68/124/43 31/120/43 35/125/43
f 162/121/42 79/126/42 75/123/42
f 68/124/44 35/125/44 70/127/44
f 70/127/45 73/128/45 72/129/45
f 35/125/46 73/128/46 70/127/46
f 162/121/42 31/120/42 68/124/42
f 67/130/47 79/126/47 162/121/47
usemtl noname2110
f 142/131/48 141/132/48 144/133/48
f 141/132/49 64/134/49 145/135/49
f 144/133/50 141/132/50 145/135/50
f 64/134/51 135/136/51 145/135/51
f 137/137/52 135/136/52 64/134/52
f 136/138/53 135/136/53 137/137/53
usemtl noname2045
f 37/139/54 38/140/54 36/141/54
f 39/142/54 37/139/54 36/141/54
usemtl noname2088
f 124/143/32 140/144/32 141/145/32
f 142/146/32 124/143/32 141/145/32
usemtl noname2111
f 65/147/55 154/148/55 156/149/55
f 154/148/56 148/150/56 158/151/56
f 138/152/57 167/153/57 156/149/57
f 167/153/58 65/147/58 156/149/58
f 65/147/59 168/154/59 25/155/59
f 156/149/56 154/148/56 158/151/56
f 65/147/60 25/155/60 154/148/60
f 154/148/56 149/156/56 148/150/56
f 154/148/61 151/157/61 149/156/61
usemtl noname2065
f 87/158/18 88/159/18 86/160/18
f 89/161/18 87/158/18 86/160/18
usemtl noname2073
f 107/162/38 103/163/38 106/164/38
f 107/162/38 108/165/38 103/163/38
usemtl noname2098
f 148/166/62 159/167/62 158/168/62
f 148/166/62 147/169/62 159/167/62
usemtl noname2071
f 98/170/38 100/171/38 101/172/38
f 102/173/38 98/170/38 101/172/38
usemtl noname2055
f 62/174/63 63/175/63 61/176/63
f 62/174/63 64/177/63 63/175/63
usemtl noname2096
f 156/178/64 134/179/64 138/180/64
f 156/178/64 157/181/64 134/179/64
usemtl noname2061
f 79/182/65 80/183/65 75/184/65
f 79/182/65 62/185/65 80/186/65
usemtl noname2060
f 75/187/21 76/188/21 77/189/21
f 75/187/21 78/190/21 76/188/21
usemtl noname2040
f 22/191/66 23/192/66 24/193/66
f 22/191/66 25/194/66 23/192/66
usemtl noname2091
f 13/195/67 146/196/67 145/197/67
f 135/198/67 13/195/67 145/197/67
usemtl noname2068
f 95/199/68 96/200/68 92/201/68
f 97/202/68 95/199/68 92/201/68
usemtl noname2042
f 28/203/69 29/204/69 30/205/69
f 28/203/69 31/206/69 29/204/69
usemtl noname2038
f 15/207/17 16/208/17 17/209/17
f 18/210/17 15/207/17 17/209/17
usemtl noname2039
f 19/211/18 20/212/18 18/213/18
f 21/214/18 19/211/18 18/213/18
usemtl noname2072
f 103/215/40 104/216/40 105/217/40
f 106/218/40 103/215/40 105/217/40
usemtl noname2109
f 27/219/70 132/220/70 165/221/70
f 130/222/71 128/223/71 131/224/71
f 166/225/70 128/223/70 127/226/70
f 131/224/72 128/223/72 166/225/72
f 166/225/72 27/219/72 165/221/72
f 152/227/72 27/219/72 166/225/72
f 131/224/73 166/225/73 165/221/73
usemtl noname2043
f 32/228/74 31/229/74 28/230/74
f 32/228/74 33/231/74 31/229/74
usemtl noname2054
f 59/232/38 60/233/38 58/234/38
f 61/235/38 59/232/38 58/234/38
usemtl noname2099
f 3/236/75 5/104/75 1/237/75
f 3/236/75 87/102/75 5/104/75
usemtl noname2066
f 90/238/40 87/239/40 89/240/40
f 91/241/40 90/238/40 89/240/40
usemtl noname2107
f 105/242/76 112/243/76 164/244/76
f 106/245/76 105/242/76 164/244/76
f 109/246/76 107/247/76 164/244/76
f 107/247/77 106/245/77 164/244/77
usemtl noname2049
f 48/248/78 19/249/78 44/250/78
f 48/248/78 49/251/78 19/249/78
usemtl noname2057
f 69/252/54 65/253/54 68/254/54
f 70/255/54 69/252/54 68/254/54
usemtl noname2056
f 65/256/79 66/257/79 67/258/79
f 68/259/79 65/256/79 67/258/79
usemtl noname2050
f 50/260/80 49/261/80 48/262/80
f 51/263/80 50/260/80 48/262/80
usemtl noname2089
f 143/264/81 123/265/81 142/266/81
f 144/267/81 143/264/81 142/266/81
usemtl noname2105
f 89/268/82 86/269/82 92/270/82
f 163/271/83 99/272/83 97/273/83
f 163/271/84 16/274/84 99/272/84
f 92/270/85 84/275/85 163/271/85
f 91/276/82 89/268/82 92/270/82
f 86/269/82 85/277/82 84/275/82
f 86/269/82 84/275/82 92/270/82
f 92/270/86 163/271/86 97/273/86
usemtl noname2036
f 11/278/87 7/279/87 10/280/87
f 11/278/87 12/281/87 7/279/87
usemtl noname2093
f 150/282/39 127/283/39 149/284/39
f 151/285/39 150/282/39 149/284/39
usemtl noname2077
f 116/286/20 115/287/20 113/288/20
f 116/286/20 117/289/20 115/287/20
usemtl noname2100
f 9/290/88 11/291/88 10/292/88
f 9/290/89 13/293/89 11/291/89
usemtl noname2063
f 82/294/90 83/295/90 84/296/90
f 85/297/90 82/294/90 84/296/90
usemtl noname2079
f 119/298/68 112/299/68 118/300/68
f 120/301/68 119/298/68 118/300/68
usemtl noname2086
f 134/302/91 14/303/91 135/304/91
f 136/305/91 134/302/91 135/304/91
usemtl noname2058
f 71/306/17 24/307/17 70/308/17
f 72/309/17 71/306/17 70/308/17
usemtl noname2059
f 73/310/92 46/311/92 72/312/92
f 73/310/92 74/313/92 46/52/92
usemtl noname2085
f 132/314/93 84/315/93 131/316/93
f 132/314/93 133/317/93 84/315/93
usemtl noname2067
f 92/318/94 93/319/94 91/320/94
f 92/318/94 94/321/94 93/319/94
usemtl noname2044
f 34/322/17 35/323/17 32/324/17
f 36/325/17 34/322/17 32/324/17
usemtl noname2070
f 100/326/32 6/327/32 5/328/32
f 101/329/32 100/326/32 5/328/32
usemtl noname2097
f 158/330/33 157/331/33 156/332/33
f 158/330/33 159/333/33 157/331/33
usemtl noname2078
f 111/334/40 117/335/40 116/336/40
f 118/337/40 111/334/40 116/336/40
usemtl noname2062
f 67/338/38 64/339/38 79/340/38
f 67/338/38 81/341/38 64/339/38
usemtl noname2084
f 131/342/95 129/343/95 130/344/95
f 131/342/95 83/345/95 129/343/95
usemtl noname2037
f 13/346/96 12/347/96 11/348/96
f 13/346/96 14/349/96 12/347/96
usemtl noname2092
f 126/350/97 147/351/97 148/352/97
f 149/353/97 126/350/97 148/352/97
usemtl noname2075
f 104/354/98 111/355/98 112/356/98
f 105/357/98 104/354/98 112/356/98
usemtl noname2035
f 7/358/99 8/359/99 9/360/99
f 10/361/99 7/358/99 9/360/99
usemtl noname2076
f 113/362/100 53/363/100 114/364/100
f 113/362/101 115/365/101 53/363/101
usemtl noname2095
f 155/366/19 152/367/19 154/368/19
f 25/369/19 155/366/19 154/368/19
