# Blender v2.79 (sub 0) OBJ File: ''
# www.blender.org
mtllib talo_Build0000080.mtl
o talo_Build0000080
v -0.374953 0.327684 0.191412
v -0.380980 -0.493971 -0.192888
v -0.380980 -0.493971 0.192612
v -0.374953 0.327684 -0.192887
v 0.119319 0.324109 -0.192887
v 0.119319 0.324109 0.192713
v 0.120927 0.536096 0.192413
v 0.120927 0.536096 -0.192887
v 0.381493 0.534178 -0.192887
v 0.381493 0.534178 0.193113
v 0.374861 -0.367961 -0.192888
v 0.374861 -0.367961 0.194412
v -0.119838 -0.364293 0.193112
v -0.119838 -0.364293 -0.192888
v -0.120829 -0.495843 -0.192888
v -0.120829 -0.495843 0.193312
vt 0.000000 0.998000
vt 1.000000 0.000000
vt 1.000000 1.000000
vt 0.000000 0.000000
vt 0.000000 0.997000
vt 1.000000 0.000000
vt 1.000000 1.000000
vt 0.000000 0.000000
vt 0.000000 0.000000
vt 1.000000 0.000000
vt 1.000000 0.997000
vt 0.000000 1.000000
vt 0.000000 0.997000
vt 1.000000 0.000000
vt 1.000000 1.000000
vt 0.000000 0.000000
vt 0.000000 0.999000
vt 1.000000 0.000000
vt 1.000000 1.000000
vt 0.000000 0.000000
vt 0.000000 0.000000
vt 1.000000 0.000000
vt 1.000000 1.000000
vt 0.000000 1.000000
vt 0.000000 0.000000
vt 1.000000 0.000000
vt 1.000000 0.998000
vt 0.000000 1.000000
vt 0.000000 0.000000
vt 1.000000 0.000000
vt 1.000000 0.997000
vt 0.000000 1.000000
vt 0.010000 0.071000
vt 0.259000 0.002000
vt 0.292000 0.136000
vt 0.688000 0.777000
vt 0.991000 0.923000
vt 0.741000 0.992000
vt 0.215000 0.908000
vt 0.766000 0.004000
vn -0.0072 -1.0000 -0.0000
vn -0.0074 -1.0000 -0.0000
vn 0.0072 1.0000 0.0000
vn -1.0000 0.0073 0.0000
vn -1.0000 0.0076 0.0000
vn 1.0000 -0.0075 -0.0000
vn 0.0074 1.0000 0.0000
vn 1.0000 -0.0074 -0.0000
vn -0.0027 0.0015 1.0000
vn -0.0027 0.0014 1.0000
vn -0.0026 0.0015 1.0000
usemtl noname993
s off
f 3/1/1 15/2/1 16/3/1
f 3/1/1 2/4/1 15/2/1
usemtl noname991
f 13/5/2 11/6/2 12/7/2
f 13/5/2 14/8/2 11/6/2
usemtl noname987
f 5/9/3 4/10/3 1/11/3
f 6/12/3 5/9/3 1/11/3
usemtl noname986
f 1/13/4 2/14/4 3/15/4
f 1/13/4 4/16/4 2/14/4
usemtl noname988
f 7/17/5 5/18/5 6/19/5
f 7/17/5 8/20/5 5/18/5
usemtl noname992
f 15/21/6 14/22/6 13/23/6
f 16/24/6 15/21/6 13/23/6
usemtl noname989
f 9/25/7 8/26/7 7/27/7
f 10/28/7 9/25/7 7/27/7
usemtl noname990
f 11/29/8 9/30/8 10/31/8
f 12/32/8 11/29/8 10/31/8
usemtl noname994
f 3/33/9 16/34/9 13/35/9
f 6/36/10 10/37/10 7/38/10
f 13/35/11 6/36/11 1/39/11
f 12/40/11 6/36/11 13/35/11
f 12/40/9 10/37/9 6/36/9
f 13/35/11 1/39/11 3/33/11
