<?xml version="1.0" encoding="UTF-8" standalone="no"?>
<!-- Created with Inkscape (http://www.inkscape.org/) -->

<svg
   xmlns:dc="http://purl.org/dc/elements/1.1/"
   xmlns:cc="http://creativecommons.org/ns#"
   xmlns:rdf="http://www.w3.org/1999/02/22-rdf-syntax-ns#"
   xmlns:svg="http://www.w3.org/2000/svg"
   xmlns="http://www.w3.org/2000/svg"
   xmlns:sodipodi="http://sodipodi.sourceforge.net/DTD/sodipodi-0.dtd"
   xmlns:inkscape="http://www.inkscape.org/namespaces/inkscape"
   width="210mm"
   height="297mm"
   viewBox="0 0 210 297"
   version="1.1"
   id="svg8"
   sodipodi:docname="MiniatureGuy.svg"
   inkscape:export-filename="C:\Users\SmartLabVantaa\Documents\GitHub\CityPlannerVR\CityPlannerVR\Assets\Textures\MiniatureGuy.png"
   inkscape:export-xdpi="96"
   inkscape:export-ydpi="96"
   inkscape:version="0.92.2 (5c3e80d, 2017-08-06)">
  <defs
     id="defs2" />
  <sodipodi:namedview
     id="base"
     pagecolor="#ffffff"
     bordercolor="#666666"
     borderopacity="1.0"
     inkscape:pageopacity="0.0"
     inkscape:pageshadow="2"
     inkscape:zoom="0.35"
     inkscape:cx="-736.76923"
     inkscape:cy="422.89775"
     inkscape:document-units="mm"
     inkscape:current-layer="layer1"
     showgrid="false"
     inkscape:window-width="1680"
     inkscape:window-height="987"
     inkscape:window-x="-8"
     inkscape:window-y="-8"
     inkscape:window-maximized="1" />
  <metadata
     id="metadata5">
    <rdf:RDF>
      <cc:Work
         rdf:about="">
        <dc:format>image/svg+xml</dc:format>
        <dc:type
           rdf:resource="http://purl.org/dc/dcmitype/StillImage" />
      </cc:Work>
    </rdf:RDF>
  </metadata>
  <g
     inkscape:label="Layer 1"
     inkscape:groupmode="layer"
     id="layer1">
    <path
       sodipodi:nodetypes="sssssssss"
       inkscape:connector-curvature="0"
       id="path3748"
       d="m 106.29799,243.62864 c -0.79012,13.34278 -1.5617,29.83822 0.82255,38.68049 2.04388,7.57997 9.66856,8.41002 13.25791,8.41002 3.6702,0 9.63899,-0.32452 11.7056,-8.11044 2.31213,-8.71089 2.89966,-25.51162 2.37485,-38.98007 -0.65305,-16.75978 -0.26012,-33.43283 -4.07005,-40.61163 -2.22442,-4.19132 -7.14381,-2.2301 -10.0104,-2.2301 -3.43079,0 -8.26464,-0.97216 -10.70737,4.92315 -3.09411,7.46737 -2.52503,23.59727 -3.37309,37.91858 z"
       style="fill:#000000;stroke-width:0.31259158" />
    <path
       style="fill:#ffffff;stroke-width:0.29230338"
       d="m 107.19236,243.75165 c -0.73884,12.47679 -1.46034,27.90162 0.76916,36.17 1.91123,7.088 9.04104,7.86418 12.39743,7.86418 3.43199,0 9.01339,-0.30346 10.94587,-7.58404 2.16206,-8.14553 2.71147,-23.85584 2.22072,-36.45014 -0.61067,-15.67202 -0.24324,-31.26294 -3.80589,-37.97581 -2.08005,-3.91929 -6.68016,-2.08536 -9.3607,-2.08536 -3.20811,0 -7.72824,-0.90906 -10.01242,4.60362 -2.8933,6.98272 -2.36115,22.06573 -3.15417,35.45755 z"
       id="path3750"
       inkscape:connector-curvature="0"
       sodipodi:nodetypes="sssssssss" />
    <path
       sodipodi:nodetypes="sssssssss"
       inkscape:connector-curvature="0"
       id="path3752"
       d="m 108.99185,243.83339 c -0.63565,11.90139 -1.25641,26.61485 0.66176,34.50192 1.64431,6.76113 7.77844,7.50151 10.6661,7.50151 2.95273,0 7.75467,-0.28945 9.41728,-7.23429 1.86012,-7.76988 2.33281,-22.75567 1.9106,-34.76914 -0.52539,-14.94929 -0.20927,-29.82119 -3.2744,-36.22447 -1.78957,-3.73854 -5.74728,-1.9892 -8.05348,-1.9892 -2.76008,0 -6.64898,-0.86713 -8.61416,4.39134 -2.48926,6.66068 -2.03142,21.0481 -2.7137,33.82233 z"
       style="fill:#000000;stroke-width:0.26480052" />
    <path
       style="fill:#000000;stroke-width:0.31259158"
       d="m 98.712126,243.49501 c 0.79012,13.34278 1.561704,29.83822 -0.82255,38.68049 -2.043876,7.57997 -9.668559,8.41002 -13.257904,8.41002 -3.670201,0 -9.638992,-0.32452 -11.705604,-8.11044 -2.312127,-8.71089 -2.899662,-25.51162 -2.374855,-38.98007 0.653056,-16.75978 0.260124,-33.43283 4.070054,-40.61163 2.22442,-4.19132 7.143812,-2.2301 10.010405,-2.2301 3.430781,0 8.264635,-0.97216 10.707362,4.92315 3.094112,7.46737 2.525032,23.59727 3.373092,37.91858 z"
       id="path3704"
       inkscape:connector-curvature="0"
       sodipodi:nodetypes="sssssssss" />
    <path
       sodipodi:nodetypes="sssssssss"
       inkscape:connector-curvature="0"
       id="path3744"
       d="m 97.817758,243.61802 c 0.738838,12.47679 1.460344,27.90162 -0.769164,36.17 -1.911222,7.088 -9.041039,7.86418 -12.397424,7.86418 -3.431994,0 -9.013391,-0.30346 -10.945873,-7.58404 -2.162063,-8.14553 -2.711465,-23.85584 -2.22072,-36.45014 0.610671,-15.67202 0.243241,-31.26294 3.805895,-37.97581 2.080048,-3.91929 6.680156,-2.08536 9.360698,-2.08536 3.208112,0 7.728234,-0.90906 10.01242,4.60362 2.893294,6.98272 2.361149,22.06573 3.154168,35.45755 z"
       style="fill:#ffffff;stroke-width:0.29230338" />
    <path
       style="fill:#000000;stroke-width:0.26665023"
       d="m 96.235675,243.70901 c 0.648123,11.83614 1.281043,26.46892 -0.674728,34.31274 -1.676564,6.72405 -7.930994,7.46038 -10.875286,7.46038 -3.01062,0 -7.906742,-0.28788 -9.601956,-7.19463 -1.896606,-7.72726 -2.378554,-22.63087 -1.948062,-34.57849 0.535693,-14.86728 0.213375,-29.65763 3.338613,-36.02581 1.824663,-3.71804 5.859976,-1.97829 8.211405,-1.97829 2.814224,0 6.779372,-0.86238 8.78311,4.36725 2.538058,6.62416 2.07125,20.93269 2.766904,33.63685 z"
       id="path3746"
       inkscape:connector-curvature="0"
       sodipodi:nodetypes="sssssssss" />
    <ellipse
       style="fill:#000000;stroke-width:0.26973563"
       id="path3699"
       cx="103.96786"
       cy="75.968109"
       rx="46.237629"
       ry="49.444866" />
    <path
       style="fill:#000000;stroke-width:0.2636103"
       d="m 143.76962,165.80192 c 0,23.91903 -21.2073,52.87754 -41.11494,52.87754 -19.907654,0 -42.804607,-30.4693 -42.804604,-54.38832 10e-7,-11.79912 -2.206287,-28.17171 7.079858,-35.61025 9.53861,-7.64077 25.63742,-10.21694 35.724746,-10.21694 8.7909,0 30.92726,3.78102 37.1831,10.0634 7.91095,7.94452 3.93184,23.91782 3.93184,37.27457 z"
       id="path3701"
       inkscape:connector-curvature="0"
       sodipodi:nodetypes="sssssss" />
    <path
       style="fill:#000000;stroke-width:0.27951318"
       d="m 72.240868,172.81813 c -1e-6,24.07772 -5.04323,38.50088 -11.264367,38.50088 -6.221137,0 -11.264366,-14.42315 -11.264367,-38.50088 0,-24.07773 11.801849,-43.59658 18.022988,-43.59658 6.221138,0 4.505746,19.51885 4.505746,43.59658 z"
       id="path3713"
       inkscape:connector-curvature="0"
       sodipodi:nodetypes="sssss" />
    <path
       sodipodi:nodetypes="sssss"
       inkscape:connector-curvature="0"
       id="path3716"
       d="m 132.15876,171.68575 c 0,24.07772 5.04322,38.50087 11.26436,38.50087 6.22114,0 11.26437,-14.42314 11.26437,-38.50087 0,-24.07773 -11.80186,-43.59658 -18.02299,-43.59658 -6.22114,0 -4.50574,19.51885 -4.50574,43.59658 z"
       style="fill:#000000;stroke-width:0.27951318" />
    <path
       style="fill:none;stroke:#000000;stroke-width:0.26458332px;stroke-linecap:butt;stroke-linejoin:miter;stroke-opacity:1"
       d="m 102.09696,30.79955 13.36347,1.069078"
       id="path3718"
       inkscape:connector-curvature="0" />
    <ellipse
       ry="46.799034"
       rx="43.763416"
       cy="75.968109"
       cx="103.96786"
       id="ellipse3736"
       style="fill:#ffffff;stroke-width:0.25530186" />
    <path
       sodipodi:nodetypes="sssssss"
       inkscape:connector-curvature="0"
       id="path3738"
       d="m 141.88801,165.92728 c 0,22.83646 -20.24748,50.48433 -39.2541,50.48433 -19.006643,0 -40.867288,-29.09028 -40.867286,-51.92674 10e-7,-11.26509 -2.106431,-26.89667 6.759426,-33.99853 9.106897,-7.29496 24.477081,-9.75454 34.10786,-9.75454 8.39303,0 29.5275,3.6099 35.50021,9.60794 7.55289,7.58495 3.75389,22.83531 3.75389,35.58754 z"
       style="fill:#ffffff;stroke-width:0.25167939" />
    <ellipse
       ry="44.013378"
       rx="41.158455"
       cy="75.968109"
       cx="103.96786"
       id="ellipse3740"
       style="fill:#000000;stroke-width:0.24010535" />
    <path
       style="fill:#000000;stroke-width:0.23860414"
       d="m 139.82591,166.06465 c 0,21.65007 -19.19557,47.86158 -37.21477,47.86158 -18.019203,0 -38.744144,-27.57898 -38.744142,-49.22905 10e-7,-10.67983 -1.996998,-25.49933 6.408259,-32.23223 8.633775,-6.91597 23.20545,-9.24777 32.335883,-9.24777 7.957,0 27.99349,3.42235 33.6559,9.10879 7.16051,7.19089 3.55887,21.64897 3.55887,33.73868 z"
       id="path3742"
       inkscape:connector-curvature="0"
       sodipodi:nodetypes="sssssss" />
    <path
       style="fill:#ffffff;stroke-width:0.31259158"
       d="m -91.761534,237.58102 c -0.79012,13.34278 -1.5617,29.83822 0.82255,38.68049 2.04388,7.57997 9.66856,8.41002 13.25791,8.41002 3.6702,0 9.63899,-0.32452 11.7056,-8.11044 2.31213,-8.71089 2.89966,-25.51162 2.37485,-38.98007 -0.65305,-16.75978 -0.26012,-33.43283 -4.07005,-40.61163 -2.22442,-4.19132 -7.14381,-2.2301 -10.0104,-2.2301 -3.43079,0 -8.26464,-0.97216 -10.70737,4.92315 -3.09411,7.46737 -2.52503,23.59727 -3.37309,37.91858 z"
       id="path3754"
       inkscape:connector-curvature="0"
       sodipodi:nodetypes="sssssssss"
       inkscape:export-xdpi="96"
       inkscape:export-ydpi="96" />
    <path
       sodipodi:nodetypes="sssssssss"
       inkscape:connector-curvature="0"
       id="path3756"
       d="m -89.967739,237.70403 c -0.692686,12.47679 -1.369116,27.90162 0.721114,36.17 1.79184,7.088 8.476271,7.86418 11.622997,7.86418 3.217604,0 8.450349,-0.30346 10.262112,-7.58404 2.027003,-8.14553 2.542092,-23.85584 2.081998,-36.45014 -0.572523,-15.67202 -0.228045,-31.26294 -3.568146,-37.97581 -1.950115,-3.91929 -6.26287,-2.08536 -8.775964,-2.08536 -3.007708,0 -7.245479,-0.90906 -9.386973,4.60362 -2.712563,6.98272 -2.213655,22.06573 -2.957138,35.45755 z"
       style="fill:#000000;stroke-width:0.28302649"
       inkscape:export-xdpi="96"
       inkscape:export-ydpi="96" />
    <path
       sodipodi:nodetypes="sssssssss"
       inkscape:connector-curvature="0"
       id="path3760"
       d="m -99.347398,237.44739 c 0.79012,13.34278 1.561704,29.83822 -0.822552,38.68049 -2.04387,7.57997 -9.66856,8.41002 -13.2579,8.41002 -3.6702,0 -9.63899,-0.32452 -11.70561,-8.11044 -2.31212,-8.71089 -2.89966,-25.51162 -2.37485,-38.98007 0.65306,-16.75978 0.26012,-33.43283 4.07005,-40.61163 2.22442,-4.19132 7.14382,-2.2301 10.01041,-2.2301 3.43078,0 8.26463,-0.97216 10.70736,4.92315 3.094112,7.46737 2.52503,23.59727 3.373092,37.91858 z"
       style="fill:#ffffff;stroke-width:0.31259158"
       inkscape:export-xdpi="96"
       inkscape:export-ydpi="96" />
    <path
       style="fill:#000000;stroke-width:0.28407222"
       d="m -100.95726,237.5704 c 0.69781,12.47679 1.379256,27.90162 -0.72646,36.17 -1.8051,7.088 -8.53902,7.86418 -11.70903,7.86418 -3.24143,0 -8.51291,-0.30346 -10.33809,-7.58404 -2.04202,-8.14553 -2.56091,-23.85584 -2.09742,-36.45014 0.57677,-15.67202 0.22974,-31.26294 3.59458,-37.97581 1.96455,-3.91929 6.30922,-2.08536 8.84093,-2.08536 3.02998,0 7.2991,-0.90906 9.45647,4.60362 2.73263,6.98272 2.23004,22.06573 2.97902,35.45755 z"
       id="path3762"
       inkscape:connector-curvature="0"
       sodipodi:nodetypes="sssssssss"
       inkscape:export-xdpi="96"
       inkscape:export-ydpi="96" />
    <ellipse
       ry="49.444866"
       rx="46.237629"
       cy="69.920486"
       cx="-94.091667"
       id="ellipse3766"
       style="fill:#ffffff;stroke-width:0.26973563"
       inkscape:export-xdpi="96"
       inkscape:export-ydpi="96" />
    <path
       sodipodi:nodetypes="sssssss"
       inkscape:connector-curvature="0"
       id="path3768"
       d="m -54.289904,159.7543 c 0,23.91903 -21.2073,52.87754 -41.11494,52.87754 -19.907656,0 -42.804606,-30.4693 -42.804606,-54.38832 0,-11.79912 -2.20628,-28.17171 7.07986,-35.61025 9.53861,-7.64077 25.63742,-10.21694 35.724746,-10.21694 8.7909,0 30.92726,3.78102 37.1831,10.0634 7.91095,7.94452 3.93184,23.91782 3.93184,37.27457 z"
       style="fill:#ffffff;stroke-width:0.2636103"
       inkscape:export-xdpi="96"
       inkscape:export-ydpi="96" />
    <path
       sodipodi:nodetypes="sssss"
       inkscape:connector-curvature="0"
       id="path3770"
       d="m -125.81866,166.77051 c 0,24.07772 -5.04323,38.50088 -11.26436,38.50088 -6.22114,0 -11.26437,-14.42315 -11.26437,-38.50088 0,-24.07773 11.80185,-43.59658 18.02299,-43.59658 6.22114,0 4.50574,19.51885 4.50574,43.59658 z"
       style="fill:#ffffff;stroke-width:0.27951318"
       inkscape:export-xdpi="96"
       inkscape:export-ydpi="96" />
    <path
       style="fill:#ffffff;stroke-width:0.27951318"
       d="m -65.900764,165.63813 c 0,24.07772 5.04322,38.50087 11.26436,38.50087 6.22114,0 11.26437,-14.42314 11.26437,-38.50087 0,-24.07773 -11.80186,-43.59658 -18.02299,-43.59658 -6.22114,0 -4.50574,19.51885 -4.50574,43.59658 z"
       id="path3772"
       inkscape:connector-curvature="0"
       sodipodi:nodetypes="sssss"
       inkscape:export-xdpi="96"
       inkscape:export-ydpi="96" />
    <path
       inkscape:connector-curvature="0"
       id="path3774"
       d="m -95.962564,24.751931 13.36347,1.069078"
       style="fill:none;stroke:#000000;stroke-width:0.26458332px;stroke-linecap:butt;stroke-linejoin:miter;stroke-opacity:1"
       inkscape:export-xdpi="96"
       inkscape:export-ydpi="96" />
    <ellipse
       style="fill:#000000;stroke-width:0.25530186"
       id="ellipse3776"
       cx="-94.091667"
       cy="69.920486"
       rx="43.763416"
       ry="46.799034"
       inkscape:export-xdpi="96"
       inkscape:export-ydpi="96" />
    <path
       style="fill:#000000;stroke-width:0.25167939"
       d="m -56.171514,159.87966 c 0,22.83646 -20.24748,50.48433 -39.2541,50.48433 -19.006646,0 -40.867286,-29.09028 -40.867286,-51.92674 0,-11.26509 -2.10643,-26.89667 6.75943,-33.99853 9.10689,-7.29496 24.47708,-9.75454 34.107856,-9.75454 8.39303,0 29.5275,3.6099 35.50021,9.60794 7.55289,7.58495 3.75389,22.83531 3.75389,35.58754 z"
       id="path3778"
       inkscape:connector-curvature="0"
       sodipodi:nodetypes="sssssss"
       inkscape:export-xdpi="96"
       inkscape:export-ydpi="96" />
    <path
       sodipodi:nodetypes="sssss"
       inkscape:connector-curvature="0"
       id="path3786"
       d="m -64.886541,165.40526 c 0,21.87709 4.456575,34.98201 9.95405,34.98201 5.497475,0 9.954059,-13.10491 9.954059,-34.98201 0,-21.87709 -10.429026,-39.61198 -15.926493,-39.61198 -5.497475,0 -3.981616,17.73489 -3.981616,39.61198 z"
       style="fill:#000000;stroke-width:0.25045866"
       inkscape:export-xdpi="96"
       inkscape:export-ydpi="96" />
    <path
       style="fill:#000000;stroke-width:0.25180405"
       d="m -126.7387,166.55881 c 0,22.07715 -4.46378,35.30191 -9.97011,35.30191 -5.50634,0 -9.97011,-13.22475 -9.97011,-35.30191 0,-22.07715 10.44584,-39.97421 15.95218,-39.97421 5.50635,0 3.98804,17.89706 3.98804,39.97421 z"
       id="path3790"
       inkscape:connector-curvature="0"
       sodipodi:nodetypes="sssss"
       inkscape:export-xdpi="96"
       inkscape:export-ydpi="96" />
  </g>
</svg>
